solid OpenSCAD_Model
  facet normal -0 0 -1
    outer loop
      vertex -8.20634 -1.25 -3.11587
      vertex -8.20634 1.25 -3.11587
      vertex -5.1857 -6.4819 -3.11587
    endloop
  endfacet
  facet normal 0 -0 -1
    outer loop
      vertex -5.1857 -6.4819 -3.11587
      vertex -8.20634 1.25 -3.11587
      vertex -5.1857 6.4819 -3.11587
    endloop
  endfacet
  facet normal 0 0 -1
    outer loop
      vertex -5.1857 -6.4819 -3.11587
      vertex -5.1857 6.4819 -3.11587
      vertex -4.10317 7.1069 -3.11587
    endloop
  endfacet
  facet normal 0 0 -1
    outer loop
      vertex -5.1857 -6.4819 -3.11587
      vertex -4.10317 7.1069 -3.11587
      vertex -3.02064 7.7319 -3.11587
    endloop
  endfacet
  facet normal 0 0 -1
    outer loop
      vertex -5.1857 -6.4819 -3.11587
      vertex -3.02064 7.7319 -3.11587
      vertex 3.02064 7.7319 -3.11587
    endloop
  endfacet
  facet normal 0 0 -1
    outer loop
      vertex -5.1857 -6.4819 -3.11587
      vertex 3.02064 7.7319 -3.11587
      vertex 4.10317 7.1069 -3.11587
    endloop
  endfacet
  facet normal 0 0 -1
    outer loop
      vertex -5.1857 -6.4819 -3.11587
      vertex 4.10317 7.1069 -3.11587
      vertex 5.1857 6.4819 -3.11587
    endloop
  endfacet
  facet normal 0 0 -1
    outer loop
      vertex -5.1857 -6.4819 -3.11587
      vertex 5.1857 6.4819 -3.11587
      vertex 8.20634 1.25 -3.11587
    endloop
  endfacet
  facet normal 0 0 -1
    outer loop
      vertex -5.1857 -6.4819 -3.11587
      vertex 8.20634 1.25 -3.11587
      vertex 8.20634 -1.25 -3.11587
    endloop
  endfacet
  facet normal -0 0 -1
    outer loop
      vertex -5.1857 -6.4819 -3.11587
      vertex 8.20634 -1.25 -3.11587
      vertex 5.1857 -6.4819 -3.11587
    endloop
  endfacet
  facet normal 0 0 -1
    outer loop
      vertex -5.1857 -6.4819 -3.11587
      vertex 5.1857 -6.4819 -3.11587
      vertex 4.10317 -7.1069 -3.11587
    endloop
  endfacet
  facet normal 0 0 -1
    outer loop
      vertex -5.1857 -6.4819 -3.11587
      vertex 4.10317 -7.1069 -3.11587
      vertex 3.02064 -7.7319 -3.11587
    endloop
  endfacet
  facet normal 0 0 -1
    outer loop
      vertex -5.1857 -6.4819 -3.11587
      vertex 3.02064 -7.7319 -3.11587
      vertex -3.02064 -7.7319 -3.11587
    endloop
  endfacet
  facet normal 0 0 -5.99114e-08
    outer loop
      vertex -5.1857 -6.4819 -3.11587
      vertex -3.02064 -7.7319 -3.11587
      vertex -4.10317 -7.1069 -3.11587
    endloop
  endfacet
  facet normal -1 1.55845e-15 1.35864e-16
    outer loop
      vertex -8.20634 1.08253 -1.19491
      vertex -8.20634 1.25 -3.11587
      vertex -8.20634 1.00495e-15 -1.85207
    endloop
  endfacet
  facet normal -1 7.10543e-16 -3.97114e-17
    outer loop
      vertex -8.20634 1.08253 0.11942
      vertex -8.20634 -1.25 3.11587
      vertex -8.20634 1.25 3.11587
    endloop
  endfacet
  facet normal -1 0 -0
    outer loop
      vertex -8.20634 -1.25 -3.11587
      vertex -8.20634 -1.25 3.11587
      vertex -8.20634 -1.08253 0.11942
    endloop
  endfacet
  facet normal -1 0 0
    outer loop
      vertex -8.20634 -1.25 -3.11587
      vertex -8.20634 -1.08253 0.11942
      vertex -8.20634 -1.08253 -1.19491
    endloop
  endfacet
  facet normal -1 7.10543e-16 -6.19445e-17
    outer loop
      vertex -8.20634 -1.25 -3.11587
      vertex -8.20634 -1.08253 -1.19491
      vertex -8.20634 1.25 -3.11587
    endloop
  endfacet
  facet normal -1 -2.13548e-15 -3.51772e-15
    outer loop
      vertex -8.20634 -1.08253 -1.19491
      vertex -8.20634 1.00495e-15 -1.85207
      vertex -8.20634 1.25 -3.11587
    endloop
  endfacet
  facet normal -1 0 0
    outer loop
      vertex -8.20634 1.25 -3.11587
      vertex -8.20634 1.08253 -1.19491
      vertex -8.20634 1.25 3.11587
    endloop
  endfacet
  facet normal -1 0 -0
    outer loop
      vertex -8.20634 1.08253 -1.19491
      vertex -8.20634 1.08253 0.11942
      vertex -8.20634 1.25 3.11587
    endloop
  endfacet
  facet normal -1 2.42879e-15 1.29782e-15
    outer loop
      vertex -8.20634 1.00495e-15 0.776584
      vertex -8.20634 -1.25 3.11587
      vertex -8.20634 1.08253 0.11942
    endloop
  endfacet
  facet normal -1 0 -0
    outer loop
      vertex -8.20634 -1.08253 0.11942
      vertex -8.20634 -1.25 3.11587
      vertex -8.20634 1.00495e-15 0.776584
    endloop
  endfacet
  facet normal -0.866025 -0.5 -0
    outer loop
      vertex -8.20634 -1.25 -3.11587
      vertex -5.1857 -6.4819 -3.11587
      vertex -8.20634 -1.25 3.11587
    endloop
  endfacet
  facet normal -0.866025 -0.5 0
    outer loop
      vertex -8.20634 -1.25 3.11587
      vertex -5.1857 -6.4819 -3.11587
      vertex -5.1857 -6.4819 3.11587
    endloop
  endfacet
  facet normal -0.5 -0.866025 1.32635e-16
    outer loop
      vertex -5.04067 -6.56563 -1.12475
      vertex -5.1857 -6.4819 -3.11587
      vertex -4.10317 -7.1069 -3.11587
    endloop
  endfacet
  facet normal -0.5 -0.866025 0
    outer loop
      vertex -5.1857 -6.4819 3.11587
      vertex -5.1857 -6.4819 -3.11587
      vertex -5.04067 -6.56563 -1.12475
    endloop
  endfacet
  facet normal -0.5 -0.866025 -1.00228e-16
    outer loop
      vertex -5.04067 -6.56563 0.175622
      vertex -4.10317 -7.1069 0.825809
      vertex -5.1857 -6.4819 3.11587
    endloop
  endfacet
  facet normal -0.5 -0.866025 0
    outer loop
      vertex -5.1857 -6.4819 3.11587
      vertex -5.04067 -6.56563 -1.12475
      vertex -5.04067 -6.56563 0.175622
    endloop
  endfacet
  facet normal -0.5 -0.866025 0
    outer loop
      vertex -4.10317 -7.1069 3.11587
      vertex -5.1857 -6.4819 3.11587
      vertex -4.10317 -7.1069 0.825809
    endloop
  endfacet
  facet normal -0.5 -0.866025 0
    outer loop
      vertex -4.10317 -7.1069 -1.77494
      vertex -5.04067 -6.56563 -1.12475
      vertex -4.10317 -7.1069 -3.11587
    endloop
  endfacet
  facet normal -0.5 -0.866025 0
    outer loop
      vertex -4.10317 -7.1069 -1.77494
      vertex -4.10317 -7.1069 -3.11587
      vertex -3.02064 -7.7319 -3.11587
    endloop
  endfacet
  facet normal -0.5 -0.866025 0
    outer loop
      vertex -4.10317 -7.1069 3.11587
      vertex -4.10317 -7.1069 0.825809
      vertex -3.02064 -7.7319 3.11587
    endloop
  endfacet
  facet normal -0.5 -0.866025 0
    outer loop
      vertex -3.02064 -7.7319 3.11587
      vertex -3.16567 -7.64816 0.175622
      vertex -3.02064 -7.7319 -3.11587
    endloop
  endfacet
  facet normal -0.5 -0.866025 0
    outer loop
      vertex -3.16567 -7.64816 0.175622
      vertex -3.16567 -7.64816 -1.12475
      vertex -3.02064 -7.7319 -3.11587
    endloop
  endfacet
  facet normal -0.5 -0.866025 -9.71928e-17
    outer loop
      vertex -3.16567 -7.64816 -1.12475
      vertex -4.10317 -7.1069 -1.77494
      vertex -3.02064 -7.7319 -3.11587
    endloop
  endfacet
  facet normal -0.5 -0.866025 6.63289e-17
    outer loop
      vertex -4.10317 -7.1069 0.825809
      vertex -3.16567 -7.64816 0.175622
      vertex -3.02064 -7.7319 3.11587
    endloop
  endfacet
  facet normal -2.94037e-16 -1 0
    outer loop
      vertex -3.02064 -7.7319 3.11587
      vertex -3.02064 -7.7319 -3.11587
      vertex 3.02064 -7.7319 -3.11587
    endloop
  endfacet
  facet normal -2.94037e-16 -1 0
    outer loop
      vertex 3.02064 -7.7319 3.11587
      vertex -3.02064 -7.7319 3.11587
      vertex 3.02064 -7.7319 -3.11587
    endloop
  endfacet
  facet normal 0.5 -0.866025 2.92903e-16
    outer loop
      vertex 3.16567 -7.64816 -1.12475
      vertex 3.02064 -7.7319 -3.11587
      vertex 4.10317 -7.1069 -3.11587
    endloop
  endfacet
  facet normal 0.5 -0.866025 -1.73121e-16
    outer loop
      vertex 3.16567 -7.64816 0.175622
      vertex 4.10317 -7.1069 0.825809
      vertex 3.02064 -7.7319 3.11587
    endloop
  endfacet
  facet normal 0.5 -0.866025 0
    outer loop
      vertex 3.02064 -7.7319 3.11587
      vertex 3.02064 -7.7319 -3.11587
      vertex 3.16567 -7.64816 -1.12475
    endloop
  endfacet
  facet normal 0.5 -0.866025 0
    outer loop
      vertex 3.02064 -7.7319 3.11587
      vertex 3.16567 -7.64816 -1.12475
      vertex 3.16567 -7.64816 0.175622
    endloop
  endfacet
  facet normal 0.5 -0.866025 0
    outer loop
      vertex 4.10317 -7.1069 3.11587
      vertex 3.02064 -7.7319 3.11587
      vertex 4.10317 -7.1069 0.825809
    endloop
  endfacet
  facet normal 0.5 -0.866025 7.1271e-16
    outer loop
      vertex 4.10317 -7.1069 -1.77494
      vertex 3.16567 -7.64816 -1.12475
      vertex 4.10317 -7.1069 -3.11587
    endloop
  endfacet
  facet normal 0.5 -0.866025 0
    outer loop
      vertex 4.10317 -7.1069 -1.77494
      vertex 4.10317 -7.1069 -3.11587
      vertex 5.1857 -6.4819 -3.11587
    endloop
  endfacet
  facet normal 0.5 -0.866025 6.07455e-17
    outer loop
      vertex 5.04067 -6.56563 -1.12475
      vertex 4.10317 -7.1069 -1.77494
      vertex 5.1857 -6.4819 -3.11587
    endloop
  endfacet
  facet normal 0.5 -0.866025 0
    outer loop
      vertex 4.10317 -7.1069 3.11587
      vertex 4.10317 -7.1069 0.825809
      vertex 5.1857 -6.4819 3.11587
    endloop
  endfacet
  facet normal 0.5 -0.866025 0
    outer loop
      vertex 5.1857 -6.4819 3.11587
      vertex 5.04067 -6.56563 0.175622
      vertex 5.1857 -6.4819 -3.11587
    endloop
  endfacet
  facet normal 0.5 -0.866025 0
    outer loop
      vertex 5.04067 -6.56563 0.175622
      vertex 5.04067 -6.56563 -1.12475
      vertex 5.1857 -6.4819 -3.11587
    endloop
  endfacet
  facet normal 0.5 -0.866025 -6.63289e-17
    outer loop
      vertex 4.10317 -7.1069 0.825809
      vertex 5.04067 -6.56563 0.175622
      vertex 5.1857 -6.4819 3.11587
    endloop
  endfacet
  facet normal 0.866025 -0.5 0
    outer loop
      vertex 5.1857 -6.4819 3.11587
      vertex 5.1857 -6.4819 -3.11587
      vertex 8.20634 -1.25 -3.11587
    endloop
  endfacet
  facet normal 0.866025 -0.5 0
    outer loop
      vertex 8.20634 -1.25 3.11587
      vertex 5.1857 -6.4819 3.11587
      vertex 8.20634 -1.25 -3.11587
    endloop
  endfacet
  facet normal 1 0 -0
    outer loop
      vertex 8.20634 -1.08253 -1.19491
      vertex 8.20634 -1.25 -3.11587
      vertex 8.20634 1.25 -3.11587
    endloop
  endfacet
  facet normal 1 -0 -0
    outer loop
      vertex 8.20634 0 -1.85207
      vertex 8.20634 -1.08253 -1.19491
      vertex 8.20634 1.25 -3.11587
    endloop
  endfacet
  facet normal 1 0 -0
    outer loop
      vertex 8.20634 -1.25 3.11587
      vertex 8.20634 -1.25 -3.11587
      vertex 8.20634 -1.08253 -1.19491
    endloop
  endfacet
  facet normal 1 0 0
    outer loop
      vertex 8.20634 -1.25 3.11587
      vertex 8.20634 -1.08253 -1.19491
      vertex 8.20634 -1.08253 0.11942
    endloop
  endfacet
  facet normal 1 0 0
    outer loop
      vertex 8.20634 1.25 3.11587
      vertex 8.20634 -1.25 3.11587
      vertex 8.20634 0 0.776584
    endloop
  endfacet
  facet normal 1 0 0
    outer loop
      vertex 8.20634 1.25 3.11587
      vertex 8.20634 1.08253 0.11942
      vertex 8.20634 1.25 -3.11587
    endloop
  endfacet
  facet normal 1 0 0
    outer loop
      vertex 8.20634 1.25 3.11587
      vertex 8.20634 0 0.776584
      vertex 8.20634 1.08253 0.11942
    endloop
  endfacet
  facet normal 1 0 -0
    outer loop
      vertex 8.20634 1.08253 0.11942
      vertex 8.20634 1.08253 -1.19491
      vertex 8.20634 1.25 -3.11587
    endloop
  endfacet
  facet normal 1 0 0
    outer loop
      vertex 8.20634 -1.08253 0.11942
      vertex 8.20634 0 0.776584
      vertex 8.20634 -1.25 3.11587
    endloop
  endfacet
  facet normal 1 0 -0
    outer loop
      vertex 8.20634 1.08253 -1.19491
      vertex 8.20634 0 -1.85207
      vertex 8.20634 1.25 -3.11587
    endloop
  endfacet
  facet normal 0.866025 0.5 0
    outer loop
      vertex 8.20634 1.25 -3.11587
      vertex 5.1857 6.4819 -3.11587
      vertex 5.1857 6.4819 3.11587
    endloop
  endfacet
  facet normal 0.866025 0.5 -0
    outer loop
      vertex 8.20634 1.25 3.11587
      vertex 8.20634 1.25 -3.11587
      vertex 5.1857 6.4819 3.11587
    endloop
  endfacet
  facet normal 0.5 0.866025 0
    outer loop
      vertex 4.10317 7.1069 -3.11587
      vertex 4.10317 7.1069 -1.77494
      vertex 5.1857 6.4819 -3.11587
    endloop
  endfacet
  facet normal 0.5 0.866025 6.07455e-17
    outer loop
      vertex 5.1857 6.4819 -3.11587
      vertex 4.10317 7.1069 -1.77494
      vertex 5.04067 6.56563 -1.12475
    endloop
  endfacet
  facet normal 0.5 0.866025 0
    outer loop
      vertex 5.1857 6.4819 -3.11587
      vertex 5.04067 6.56563 -1.12475
      vertex 5.04067 6.56563 0.175622
    endloop
  endfacet
  facet normal 0.5 0.866025 0
    outer loop
      vertex 5.04067 6.56563 0.175622
      vertex 4.10317 7.1069 0.825809
      vertex 4.10317 7.1069 3.11587
    endloop
  endfacet
  facet normal 0.5 0.866025 -4.08042e-17
    outer loop
      vertex 5.04067 6.56563 0.175622
      vertex 4.10317 7.1069 3.11587
      vertex 5.1857 6.4819 3.11587
    endloop
  endfacet
  facet normal 0.5 0.866025 0
    outer loop
      vertex 5.04067 6.56563 0.175622
      vertex 5.1857 6.4819 3.11587
      vertex 5.1857 6.4819 -3.11587
    endloop
  endfacet
  facet normal 0.5 0.866025 7.1271e-16
    outer loop
      vertex 4.10317 7.1069 -1.77494
      vertex 4.10317 7.1069 -3.11587
      vertex 3.16567 7.64816 -1.12475
    endloop
  endfacet
  facet normal 0.5 0.866025 0
    outer loop
      vertex 4.10317 7.1069 0.825809
      vertex 3.02064 7.7319 3.11587
      vertex 4.10317 7.1069 3.11587
    endloop
  endfacet
  facet normal 0.5 0.866025 0
    outer loop
      vertex 3.02064 7.7319 -3.11587
      vertex 3.02064 7.7319 3.11587
      vertex 3.16567 7.64816 0.175622
    endloop
  endfacet
  facet normal 0.5 0.866025 0
    outer loop
      vertex 3.02064 7.7319 -3.11587
      vertex 3.16567 7.64816 0.175622
      vertex 3.16567 7.64816 -1.12475
    endloop
  endfacet
  facet normal 0.5 0.866025 2.92903e-16
    outer loop
      vertex 3.02064 7.7319 -3.11587
      vertex 3.16567 7.64816 -1.12475
      vertex 4.10317 7.1069 -3.11587
    endloop
  endfacet
  facet normal 0.5 0.866025 -1.73121e-16
    outer loop
      vertex 3.16567 7.64816 0.175622
      vertex 3.02064 7.7319 3.11587
      vertex 4.10317 7.1069 0.825809
    endloop
  endfacet
  facet normal 1.47018e-16 1 0
    outer loop
      vertex -3.02064 7.7319 -3.11587
      vertex -3.02064 7.7319 3.11587
      vertex 3.02064 7.7319 -3.11587
    endloop
  endfacet
  facet normal 1.47018e-16 1 0
    outer loop
      vertex 3.02064 7.7319 -3.11587
      vertex -3.02064 7.7319 3.11587
      vertex 3.02064 7.7319 3.11587
    endloop
  endfacet
  facet normal -0.5 0.866025 0
    outer loop
      vertex -4.10317 7.1069 -3.11587
      vertex -4.10317 7.1069 -1.77494
      vertex -3.02064 7.7319 -3.11587
    endloop
  endfacet
  facet normal -0.5 0.866025 1.21491e-17
    outer loop
      vertex -3.02064 7.7319 -3.11587
      vertex -4.10317 7.1069 -1.77494
      vertex -3.16567 7.64816 -1.12475
    endloop
  endfacet
  facet normal -0.5 0.866025 0
    outer loop
      vertex -3.16567 7.64816 -1.12475
      vertex -3.16567 7.64816 0.175622
      vertex -3.02064 7.7319 -3.11587
    endloop
  endfacet
  facet normal -0.5 0.866025 -3.27325e-16
    outer loop
      vertex -4.10317 7.1069 0.825809
      vertex -4.10317 7.1069 3.11587
      vertex -3.16567 7.64816 0.175622
    endloop
  endfacet
  facet normal -0.5 0.866025 -4.08041e-17
    outer loop
      vertex -3.16567 7.64816 0.175622
      vertex -4.10317 7.1069 3.11587
      vertex -3.02064 7.7319 3.11587
    endloop
  endfacet
  facet normal -0.5 0.866025 0
    outer loop
      vertex -3.16567 7.64816 0.175622
      vertex -3.02064 7.7319 3.11587
      vertex -3.02064 7.7319 -3.11587
    endloop
  endfacet
  facet normal -0.5 0.866025 0
    outer loop
      vertex -4.10317 7.1069 -1.77494
      vertex -4.10317 7.1069 -3.11587
      vertex -5.04067 6.56563 -1.12475
    endloop
  endfacet
  facet normal -0.5 0.866025 0
    outer loop
      vertex -4.10317 7.1069 0.825809
      vertex -5.1857 6.4819 3.11587
      vertex -4.10317 7.1069 3.11587
    endloop
  endfacet
  facet normal -0.5 0.866025 0
    outer loop
      vertex -5.1857 6.4819 -3.11587
      vertex -5.1857 6.4819 3.11587
      vertex -5.04067 6.56563 0.175622
    endloop
  endfacet
  facet normal -0.5 0.866025 0
    outer loop
      vertex -5.1857 6.4819 -3.11587
      vertex -5.04067 6.56563 0.175622
      vertex -5.04067 6.56563 -1.12475
    endloop
  endfacet
  facet normal -0.5 0.866025 -1.10529e-17
    outer loop
      vertex -5.1857 6.4819 -3.11587
      vertex -5.04067 6.56563 -1.12475
      vertex -4.10317 7.1069 -3.11587
    endloop
  endfacet
  facet normal -0.5 0.866025 4.55581e-18
    outer loop
      vertex -5.04067 6.56563 0.175622
      vertex -5.1857 6.4819 3.11587
      vertex -4.10317 7.1069 0.825809
    endloop
  endfacet
  facet normal -0.866025 0.5 0
    outer loop
      vertex -8.20634 1.25 -3.11587
      vertex -8.20634 1.25 3.11587
      vertex -5.1857 6.4819 -3.11587
    endloop
  endfacet
  facet normal -0.866025 0.5 0
    outer loop
      vertex -5.1857 6.4819 -3.11587
      vertex -8.20634 1.25 3.11587
      vertex -5.1857 6.4819 3.11587
    endloop
  endfacet
  facet normal 0 -0 1
    outer loop
      vertex -8.20634 1.25 3.11587
      vertex -8.20634 -1.25 3.11587
      vertex -5.1857 -6.4819 3.11587
    endloop
  endfacet
  facet normal -0 -0 1
    outer loop
      vertex -4.12587 -6.14621 3.11587
      vertex -8.20634 1.25 3.11587
      vertex -4.10317 -7.1069 3.11587
    endloop
  endfacet
  facet normal 0 0 1
    outer loop
      vertex -4.10317 -7.1069 3.11587
      vertex -8.20634 1.25 3.11587
      vertex -5.1857 -6.4819 3.11587
    endloop
  endfacet
  facet normal -0 -0 1
    outer loop
      vertex -3.25984 -6.64621 3.11587
      vertex -4.12587 -6.14621 3.11587
      vertex -3.02064 -7.7319 3.11587
    endloop
  endfacet
  facet normal 0 0 1
    outer loop
      vertex 4.12587 6.14621 3.11587
      vertex 8.20634 1.25 3.11587
      vertex 5.1857 6.4819 3.11587
    endloop
  endfacet
  facet normal 0 0 1
    outer loop
      vertex 0.57735 0 3.11587
      vertex 4.12587 -6.14621 3.11587
      vertex 5.1857 -6.4819 3.11587
    endloop
  endfacet
  facet normal 0 0 1
    outer loop
      vertex 4.12587 6.14621 3.11587
      vertex 8.20634 -1.25 3.11587
      vertex 8.20634 1.25 3.11587
    endloop
  endfacet
  facet normal 0 0 1
    outer loop
      vertex -3.25984 6.64621 3.11587
      vertex 4.10317 7.1069 3.11587
      vertex 3.02064 7.7319 3.11587
    endloop
  endfacet
  facet normal 0 -0 1
    outer loop
      vertex -4.10317 7.1069 3.11587
      vertex -8.20634 1.25 3.11587
      vertex -3.02064 7.7319 3.11587
    endloop
  endfacet
  facet normal 0 -0 1
    outer loop
      vertex -5.1857 6.4819 3.11587
      vertex -8.20634 1.25 3.11587
      vertex -4.10317 7.1069 3.11587
    endloop
  endfacet
  facet normal 0 0 1
    outer loop
      vertex 3.02064 -7.7319 3.11587
      vertex -3.25984 -6.64621 3.11587
      vertex -3.02064 -7.7319 3.11587
    endloop
  endfacet
  facet normal 0 0 1
    outer loop
      vertex 0 1 3.11587
      vertex 3.25984 6.64621 3.11587
      vertex -3.25984 6.64621 3.11587
    endloop
  endfacet
  facet normal 0 0 1
    outer loop
      vertex -3.02064 -7.7319 3.11587
      vertex -4.12587 -6.14621 3.11587
      vertex -4.10317 -7.1069 3.11587
    endloop
  endfacet
  facet normal 0 0 1
    outer loop
      vertex -3.02064 7.7319 3.11587
      vertex -8.20634 1.25 3.11587
      vertex -4.12587 6.14621 3.11587
    endloop
  endfacet
  facet normal 0 -0 1
    outer loop
      vertex -3.02064 7.7319 3.11587
      vertex -3.25984 6.64621 3.11587
      vertex 3.02064 7.7319 3.11587
    endloop
  endfacet
  facet normal 0 0 1
    outer loop
      vertex -3.02064 7.7319 3.11587
      vertex -4.12587 6.14621 3.11587
      vertex -3.25984 6.64621 3.11587
    endloop
  endfacet
  facet normal 0 -0 1
    outer loop
      vertex 4.10317 7.1069 3.11587
      vertex 3.25984 6.64621 3.11587
      vertex 5.1857 6.4819 3.11587
    endloop
  endfacet
  facet normal 0 0 1
    outer loop
      vertex -3.25984 6.64621 3.11587
      vertex 3.25984 6.64621 3.11587
      vertex 4.10317 7.1069 3.11587
    endloop
  endfacet
  facet normal 0 0 1
    outer loop
      vertex 3.25984 6.64621 3.11587
      vertex 4.12587 6.14621 3.11587
      vertex 5.1857 6.4819 3.11587
    endloop
  endfacet
  facet normal -0 0 1
    outer loop
      vertex 5.1857 -6.4819 3.11587
      vertex 4.12587 -6.14621 3.11587
      vertex 4.10317 -7.1069 3.11587
    endloop
  endfacet
  facet normal 0 0 1
    outer loop
      vertex 0.57735 0 3.11587
      vertex 5.1857 -6.4819 3.11587
      vertex 8.20634 -1.25 3.11587
    endloop
  endfacet
  facet normal -0 0 1
    outer loop
      vertex 4.10317 -7.1069 3.11587
      vertex 3.25984 -6.64621 3.11587
      vertex 3.02064 -7.7319 3.11587
    endloop
  endfacet
  facet normal 0 0 1
    outer loop
      vertex -4.12587 -6.14621 3.11587
      vertex -0.57735 0 3.11587
      vertex -8.20634 1.25 3.11587
    endloop
  endfacet
  facet normal 0 0 1
    outer loop
      vertex 4.12587 -6.14621 3.11587
      vertex 3.25984 -6.64621 3.11587
      vertex 4.10317 -7.1069 3.11587
    endloop
  endfacet
  facet normal 0 -0 1
    outer loop
      vertex 4.12587 6.14621 3.11587
      vertex 0.57735 0 3.11587
      vertex 8.20634 -1.25 3.11587
    endloop
  endfacet
  facet normal 0 0 1
    outer loop
      vertex 0 -1 3.11587
      vertex 3.02064 -7.7319 3.11587
      vertex 3.25984 -6.64621 3.11587
    endloop
  endfacet
  facet normal 0 -0 1
    outer loop
      vertex 0 -1 3.11587
      vertex -3.25984 -6.64621 3.11587
      vertex 3.02064 -7.7319 3.11587
    endloop
  endfacet
  facet normal 0 0 1
    outer loop
      vertex -0.57735 0 3.11587
      vertex -4.12587 6.14621 3.11587
      vertex -8.20634 1.25 3.11587
    endloop
  endfacet
  facet normal 1.06954e-16 1 3.47516e-17
    outer loop
      vertex -2.57288 -1.08253 1.94984
      vertex -2.18661 -1.08253 0.761022
      vertex -8.20634 -1.08253 0.11942
    endloop
  endfacet
  facet normal 1.10658e-16 1 -0
    outer loop
      vertex -8.20634 -1.08253 0.11942
      vertex -2.18661 -1.08253 0.761022
      vertex -8.20634 -1.08253 -1.19491
    endloop
  endfacet
  facet normal 0.267617 0.5 -0.823639
    outer loop
      vertex -2.76601 3.38728e-16 2.54425
      vertex -2.57288 -1.08253 1.94984
      vertex -8.20634 1.00495e-15 0.776584
    endloop
  endfacet
  facet normal 0.267617 0.5 -0.823639
    outer loop
      vertex -8.20634 1.00495e-15 0.776584
      vertex -2.57288 -1.08253 1.94984
      vertex -8.20634 -1.08253 0.11942
    endloop
  endfacet
  facet normal 0.267617 -0.5 -0.823639
    outer loop
      vertex -2.57288 1.08253 1.94984
      vertex -2.76601 3.38728e-16 2.54425
      vertex -8.20634 1.08253 0.11942
    endloop
  endfacet
  facet normal 0.267617 -0.5 -0.823639
    outer loop
      vertex -8.20634 1.08253 0.11942
      vertex -2.76601 3.38728e-16 2.54425
      vertex -8.20634 1.00495e-15 0.776584
    endloop
  endfacet
  facet normal -1.06954e-16 -1 -3.47516e-17
    outer loop
      vertex -2.18661 1.08253 0.761022
      vertex -2.57288 1.08253 1.94984
      vertex -8.20634 1.08253 0.11942
    endloop
  endfacet
  facet normal -1.10658e-16 -1 -0
    outer loop
      vertex -8.20634 1.08253 -1.19491
      vertex -2.18661 1.08253 0.761022
      vertex -8.20634 1.08253 0.11942
    endloop
  endfacet
  facet normal -0.267617 -0.5 0.823639
    outer loop
      vertex -1.99347 2.44122e-16 0.166612
      vertex -2.18661 1.08253 0.761022
      vertex -8.20634 1.08253 -1.19491
    endloop
  endfacet
  facet normal -0.267617 -0.5 0.823639
    outer loop
      vertex -8.20634 1.00495e-15 -1.85207
      vertex -1.99347 2.44122e-16 0.166612
      vertex -8.20634 1.08253 -1.19491
    endloop
  endfacet
  facet normal -0.267617 0.5 0.823639
    outer loop
      vertex -2.18661 -1.08253 0.761022
      vertex -1.99347 2.44122e-16 0.166612
      vertex -8.20634 1.00495e-15 -1.85207
    endloop
  endfacet
  facet normal -0.267617 0.5 0.823639
    outer loop
      vertex -8.20634 -1.08253 -1.19491
      vertex -2.18661 -1.08253 0.761022
      vertex -8.20634 1.00495e-15 -1.85207
    endloop
  endfacet
  facet normal 0.552367 -0.0432719 -0.832477
    outer loop
      vertex -1.33976 -2.32054 2.4106
      vertex -4.10317 -7.1069 0.825809
      vertex -2.19113 -1.63008 1.80981
    endloop
  endfacet
  facet normal 0.552367 -0.0432719 -0.832477
    outer loop
      vertex -2.19113 -1.63008 1.80981
      vertex -4.10317 -7.1069 0.825809
      vertex -5.04067 -6.56563 0.175622
    endloop
  endfacet
  facet normal 0.866025 -0.5 -1.28246e-16
    outer loop
      vertex -2.01885 -1.33169 0.608232
      vertex -2.19113 -1.63008 1.80981
      vertex -5.04067 -6.56563 0.175622
    endloop
  endfacet
  facet normal 0.866025 -0.5 0
    outer loop
      vertex -5.04067 -6.56563 -1.12475
      vertex -2.01885 -1.33169 0.608232
      vertex -5.04067 -6.56563 0.175622
    endloop
  endfacet
  facet normal 0.313658 -0.456728 0.832477
    outer loop
      vertex -5.04067 -6.56563 -1.12475
      vertex -4.10317 -7.1069 -1.77494
      vertex -2.01885 -1.33169 0.608232
    endloop
  endfacet
  facet normal 0.313658 -0.456728 0.832477
    outer loop
      vertex -2.01885 -1.33169 0.608232
      vertex -4.10317 -7.1069 -1.77494
      vertex -0.995217 -1.72377 0.00744302
    endloop
  endfacet
  facet normal -0.552367 0.0432719 0.832477
    outer loop
      vertex -3.16567 -7.64816 -1.12475
      vertex -0.143853 -2.41423 0.608232
      vertex -0.995217 -1.72377 0.00744302
    endloop
  endfacet
  facet normal -0.552367 0.0432719 0.832477
    outer loop
      vertex -4.10317 -7.1069 -1.77494
      vertex -3.16567 -7.64816 -1.12475
      vertex -0.995217 -1.72377 0.00744302
    endloop
  endfacet
  facet normal -0.866025 0.5 9.12322e-17
    outer loop
      vertex -0.316127 -2.71261 1.80981
      vertex -0.143853 -2.41423 0.608232
      vertex -3.16567 -7.64816 0.175622
    endloop
  endfacet
  facet normal -0.866025 0.5 0
    outer loop
      vertex -3.16567 -7.64816 0.175622
      vertex -0.143853 -2.41423 0.608232
      vertex -3.16567 -7.64816 -1.12475
    endloop
  endfacet
  facet normal -0.313658 0.456728 -0.832477
    outer loop
      vertex -0.316127 -2.71261 1.80981
      vertex -3.16567 -7.64816 0.175622
      vertex -1.33976 -2.32054 2.4106
    endloop
  endfacet
  facet normal -0.313658 0.456728 -0.832477
    outer loop
      vertex -1.33976 -2.32054 2.4106
      vertex -3.16567 -7.64816 0.175622
      vertex -4.10317 -7.1069 0.825809
    endloop
  endfacet
  facet normal -0.552367 -0.0432719 -0.832477
    outer loop
      vertex 5.04067 -6.56563 0.175622
      vertex 4.10317 -7.1069 0.825809
      vertex 2.19113 -1.63008 1.80981
    endloop
  endfacet
  facet normal -0.552367 -0.0432719 -0.832477
    outer loop
      vertex 2.19113 -1.63008 1.80981
      vertex 4.10317 -7.1069 0.825809
      vertex 1.33976 -2.32054 2.4106
    endloop
  endfacet
  facet normal 0.313658 0.456728 -0.832477
    outer loop
      vertex 4.10317 -7.1069 0.825809
      vertex 3.16567 -7.64816 0.175622
      vertex 1.33976 -2.32054 2.4106
    endloop
  endfacet
  facet normal 0.313658 0.456728 -0.832477
    outer loop
      vertex 1.33976 -2.32054 2.4106
      vertex 3.16567 -7.64816 0.175622
      vertex 0.316127 -2.71261 1.80981
    endloop
  endfacet
  facet normal 0.866025 0.5 0
    outer loop
      vertex 0.316127 -2.71261 1.80981
      vertex 3.16567 -7.64816 0.175622
      vertex 3.16567 -7.64816 -1.12475
    endloop
  endfacet
  facet normal 0.866025 0.5 1.20935e-16
    outer loop
      vertex 0.143853 -2.41423 0.608232
      vertex 0.316127 -2.71261 1.80981
      vertex 3.16567 -7.64816 -1.12475
    endloop
  endfacet
  facet normal 0.552367 0.0432719 0.832477
    outer loop
      vertex 3.16567 -7.64816 -1.12475
      vertex 4.10317 -7.1069 -1.77494
      vertex 0.995217 -1.72377 0.00744302
    endloop
  endfacet
  facet normal 0.552367 0.0432719 0.832477
    outer loop
      vertex 0.143853 -2.41423 0.608232
      vertex 3.16567 -7.64816 -1.12475
      vertex 0.995217 -1.72377 0.00744302
    endloop
  endfacet
  facet normal -0.313658 -0.456728 0.832477
    outer loop
      vertex 0.995217 -1.72377 0.00744302
      vertex 4.10317 -7.1069 -1.77494
      vertex 2.01885 -1.33169 0.608232
    endloop
  endfacet
  facet normal -0.313658 -0.456728 0.832477
    outer loop
      vertex 2.01885 -1.33169 0.608232
      vertex 4.10317 -7.1069 -1.77494
      vertex 5.04067 -6.56563 -1.12475
    endloop
  endfacet
  facet normal -0.866025 -0.5 0
    outer loop
      vertex 5.04067 -6.56563 0.175622
      vertex 2.19113 -1.63008 1.80981
      vertex 5.04067 -6.56563 -1.12475
    endloop
  endfacet
  facet normal -0.866025 -0.5 0
    outer loop
      vertex 5.04067 -6.56563 -1.12475
      vertex 2.19113 -1.63008 1.80981
      vertex 2.01885 -1.33169 0.608232
    endloop
  endfacet
  facet normal -0 1 0
    outer loop
      vertex 8.20634 -1.08253 0.11942
      vertex 8.20634 -1.08253 -1.19491
      vertex 2.57288 -1.08253 1.94984
    endloop
  endfacet
  facet normal 0 1 -0
    outer loop
      vertex 2.57288 -1.08253 1.94984
      vertex 8.20634 -1.08253 -1.19491
      vertex 2.18661 -1.08253 0.761022
    endloop
  endfacet
  facet normal 0.267617 0.5 0.823639
    outer loop
      vertex 2.18661 -1.08253 0.761022
      vertex 8.20634 -1.08253 -1.19491
      vertex 8.20634 0 -1.85207
    endloop
  endfacet
  facet normal 0.267617 0.5 0.823639
    outer loop
      vertex 1.99347 0 0.166612
      vertex 2.18661 -1.08253 0.761022
      vertex 8.20634 0 -1.85207
    endloop
  endfacet
  facet normal 0.267617 -0.5 0.823639
    outer loop
      vertex 8.20634 0 -1.85207
      vertex 8.20634 1.08253 -1.19491
      vertex 2.18661 1.08253 0.761022
    endloop
  endfacet
  facet normal 0.267617 -0.5 0.823639
    outer loop
      vertex 1.99347 0 0.166612
      vertex 8.20634 0 -1.85207
      vertex 2.18661 1.08253 0.761022
    endloop
  endfacet
  facet normal 0 -1 0
    outer loop
      vertex 8.20634 1.08253 -1.19491
      vertex 8.20634 1.08253 0.11942
      vertex 2.57288 1.08253 1.94984
    endloop
  endfacet
  facet normal -0 -1 0
    outer loop
      vertex 2.18661 1.08253 0.761022
      vertex 8.20634 1.08253 -1.19491
      vertex 2.57288 1.08253 1.94984
    endloop
  endfacet
  facet normal -0.267617 -0.5 -0.823639
    outer loop
      vertex 8.20634 0 0.776584
      vertex 2.76601 0 2.54425
      vertex 8.20634 1.08253 0.11942
    endloop
  endfacet
  facet normal -0.267617 -0.5 -0.823639
    outer loop
      vertex 8.20634 1.08253 0.11942
      vertex 2.76601 0 2.54425
      vertex 2.57288 1.08253 1.94984
    endloop
  endfacet
  facet normal -0.267617 0.5 -0.823639
    outer loop
      vertex 8.20634 0 0.776584
      vertex 8.20634 -1.08253 0.11942
      vertex 2.76601 0 2.54425
    endloop
  endfacet
  facet normal -0.267617 0.5 -0.823639
    outer loop
      vertex 2.76601 0 2.54425
      vertex 8.20634 -1.08253 0.11942
      vertex 2.57288 -1.08253 1.94984
    endloop
  endfacet
  facet normal -0.552367 0.0432719 -0.832477
    outer loop
      vertex 4.10317 7.1069 0.825809
      vertex 5.04067 6.56563 0.175622
      vertex 2.19113 1.63008 1.80981
    endloop
  endfacet
  facet normal -0.552367 0.0432719 -0.832477
    outer loop
      vertex 4.10317 7.1069 0.825809
      vertex 2.19113 1.63008 1.80981
      vertex 1.33976 2.32054 2.4106
    endloop
  endfacet
  facet normal -0.866025 0.5 0
    outer loop
      vertex 5.04067 6.56563 0.175622
      vertex 5.04067 6.56563 -1.12475
      vertex 2.19113 1.63008 1.80981
    endloop
  endfacet
  facet normal -0.866025 0.5 -8.60311e-17
    outer loop
      vertex 2.19113 1.63008 1.80981
      vertex 5.04067 6.56563 -1.12475
      vertex 2.01885 1.33169 0.608232
    endloop
  endfacet
  facet normal -0.313658 0.456728 0.832477
    outer loop
      vertex 2.01885 1.33169 0.608232
      vertex 5.04067 6.56563 -1.12475
      vertex 4.10317 7.1069 -1.77494
    endloop
  endfacet
  facet normal -0.313658 0.456728 0.832477
    outer loop
      vertex 0.995217 1.72377 0.00744302
      vertex 2.01885 1.33169 0.608232
      vertex 4.10317 7.1069 -1.77494
    endloop
  endfacet
  facet normal 0.552367 -0.0432719 0.832477
    outer loop
      vertex 0.995217 1.72377 0.00744302
      vertex 4.10317 7.1069 -1.77494
      vertex 3.16567 7.64816 -1.12475
    endloop
  endfacet
  facet normal 0.552367 -0.0432719 0.832477
    outer loop
      vertex 0.143853 2.41423 0.608232
      vertex 0.995217 1.72377 0.00744302
      vertex 3.16567 7.64816 -1.12475
    endloop
  endfacet
  facet normal 0.866025 -0.5 0
    outer loop
      vertex 3.16567 7.64816 -1.12475
      vertex 3.16567 7.64816 0.175622
      vertex 0.316127 2.71261 1.80981
    endloop
  endfacet
  facet normal 0.866025 -0.5 1.20935e-16
    outer loop
      vertex 0.143853 2.41423 0.608232
      vertex 3.16567 7.64816 -1.12475
      vertex 0.316127 2.71261 1.80981
    endloop
  endfacet
  facet normal 0.313658 -0.456728 -0.832477
    outer loop
      vertex 4.10317 7.1069 0.825809
      vertex 1.33976 2.32054 2.4106
      vertex 3.16567 7.64816 0.175622
    endloop
  endfacet
  facet normal 0.313658 -0.456728 -0.832477
    outer loop
      vertex 3.16567 7.64816 0.175622
      vertex 1.33976 2.32054 2.4106
      vertex 0.316127 2.71261 1.80981
    endloop
  endfacet
  facet normal 0.552367 0.0432719 -0.832477
    outer loop
      vertex -4.10317 7.1069 0.825809
      vertex -1.33976 2.32054 2.4106
      vertex -2.19113 1.63008 1.80981
    endloop
  endfacet
  facet normal 0.552367 0.0432719 -0.832477
    outer loop
      vertex -4.10317 7.1069 0.825809
      vertex -2.19113 1.63008 1.80981
      vertex -5.04067 6.56563 0.175622
    endloop
  endfacet
  facet normal -0.313658 -0.456728 -0.832477
    outer loop
      vertex -0.316127 2.71261 1.80981
      vertex -1.33976 2.32054 2.4106
      vertex -3.16567 7.64816 0.175622
    endloop
  endfacet
  facet normal -0.313658 -0.456728 -0.832477
    outer loop
      vertex -3.16567 7.64816 0.175622
      vertex -1.33976 2.32054 2.4106
      vertex -4.10317 7.1069 0.825809
    endloop
  endfacet
  facet normal -0.866025 -0.5 6.84242e-17
    outer loop
      vertex -0.316127 2.71261 1.80981
      vertex -3.16567 7.64816 0.175622
      vertex -0.143853 2.41423 0.608232
    endloop
  endfacet
  facet normal -0.866025 -0.5 0
    outer loop
      vertex -0.143853 2.41423 0.608232
      vertex -3.16567 7.64816 0.175622
      vertex -3.16567 7.64816 -1.12475
    endloop
  endfacet
  facet normal -0.552367 -0.0432719 0.832477
    outer loop
      vertex -0.995217 1.72377 0.00744302
      vertex -0.143853 2.41423 0.608232
      vertex -3.16567 7.64816 -1.12475
    endloop
  endfacet
  facet normal -0.552367 -0.0432719 0.832477
    outer loop
      vertex -4.10317 7.1069 -1.77494
      vertex -0.995217 1.72377 0.00744302
      vertex -3.16567 7.64816 -1.12475
    endloop
  endfacet
  facet normal 0.313658 0.456728 0.832477
    outer loop
      vertex -2.01885 1.33169 0.608232
      vertex -0.995217 1.72377 0.00744302
      vertex -4.10317 7.1069 -1.77494
    endloop
  endfacet
  facet normal 0.313658 0.456728 0.832477
    outer loop
      vertex -5.04067 6.56563 -1.12475
      vertex -2.01885 1.33169 0.608232
      vertex -4.10317 7.1069 -1.77494
    endloop
  endfacet
  facet normal 0.866025 0.5 0
    outer loop
      vertex -5.04067 6.56563 0.175622
      vertex -2.19113 1.63008 1.80981
      vertex -2.01885 1.33169 0.608232
    endloop
  endfacet
  facet normal 0.866025 0.5 0
    outer loop
      vertex -5.04067 6.56563 -1.12475
      vertex -5.04067 6.56563 0.175622
      vertex -2.01885 1.33169 0.608232
    endloop
  endfacet
  facet normal -0.5 -0.866025 0
    outer loop
      vertex -4.12587 -6.14621 3.61587
      vertex -4.12587 -6.14621 3.11587
      vertex -3.25984 -6.64621 3.11587
    endloop
  endfacet
  facet normal -0.5 -0.866025 0
    outer loop
      vertex -3.25984 -6.64621 3.61587
      vertex -4.12587 -6.14621 3.61587
      vertex -3.25984 -6.64621 3.11587
    endloop
  endfacet
  facet normal 0.866025 -0.5 0
    outer loop
      vertex -3.25984 -6.64621 3.61587
      vertex -3.25984 -6.64621 3.11587
      vertex 0 -1 3.11587
    endloop
  endfacet
  facet normal 0.866025 -0.5 0
    outer loop
      vertex 0 -1 3.61587
      vertex -3.25984 -6.64621 3.61587
      vertex 0 -1 3.11587
    endloop
  endfacet
  facet normal -0.866025 -0.5 -0
    outer loop
      vertex 0 -1 3.11587
      vertex 3.25984 -6.64621 3.11587
      vertex 0 -1 3.61587
    endloop
  endfacet
  facet normal -0.866025 -0.5 0
    outer loop
      vertex 0 -1 3.61587
      vertex 3.25984 -6.64621 3.11587
      vertex 3.25984 -6.64621 3.61587
    endloop
  endfacet
  facet normal 0.5 -0.866025 0
    outer loop
      vertex 3.25984 -6.64621 3.61587
      vertex 3.25984 -6.64621 3.11587
      vertex 4.12587 -6.14621 3.11587
    endloop
  endfacet
  facet normal 0.5 -0.866025 0
    outer loop
      vertex 4.12587 -6.14621 3.61587
      vertex 3.25984 -6.64621 3.61587
      vertex 4.12587 -6.14621 3.11587
    endloop
  endfacet
  facet normal 0.866025 0.5 0
    outer loop
      vertex 4.12587 -6.14621 3.11587
      vertex 0.57735 0 3.11587
      vertex 0.57735 0 3.61587
    endloop
  endfacet
  facet normal 0.866025 0.5 -0
    outer loop
      vertex 4.12587 -6.14621 3.61587
      vertex 4.12587 -6.14621 3.11587
      vertex 0.57735 0 3.61587
    endloop
  endfacet
  facet normal 0.866025 -0.5 0
    outer loop
      vertex 0.57735 0 3.61587
      vertex 0.57735 0 3.11587
      vertex 4.12587 6.14621 3.11587
    endloop
  endfacet
  facet normal 0.866025 -0.5 0
    outer loop
      vertex 4.12587 6.14621 3.61587
      vertex 0.57735 0 3.61587
      vertex 4.12587 6.14621 3.11587
    endloop
  endfacet
  facet normal 0.5 0.866025 0
    outer loop
      vertex 3.25984 6.64621 3.11587
      vertex 3.25984 6.64621 3.61587
      vertex 4.12587 6.14621 3.11587
    endloop
  endfacet
  facet normal 0.5 0.866025 0
    outer loop
      vertex 4.12587 6.14621 3.11587
      vertex 3.25984 6.64621 3.61587
      vertex 4.12587 6.14621 3.61587
    endloop
  endfacet
  facet normal -0.866025 0.5 0
    outer loop
      vertex 0 1 3.11587
      vertex 0 1 3.61587
      vertex 3.25984 6.64621 3.11587
    endloop
  endfacet
  facet normal -0.866025 0.5 0
    outer loop
      vertex 3.25984 6.64621 3.11587
      vertex 0 1 3.61587
      vertex 3.25984 6.64621 3.61587
    endloop
  endfacet
  facet normal 0.866025 0.5 0
    outer loop
      vertex 0 1 3.11587
      vertex -3.25984 6.64621 3.11587
      vertex -3.25984 6.64621 3.61587
    endloop
  endfacet
  facet normal 0.866025 0.5 -0
    outer loop
      vertex 0 1 3.61587
      vertex 0 1 3.11587
      vertex -3.25984 6.64621 3.61587
    endloop
  endfacet
  facet normal -0.5 0.866025 0
    outer loop
      vertex -4.12587 6.14621 3.11587
      vertex -4.12587 6.14621 3.61587
      vertex -3.25984 6.64621 3.11587
    endloop
  endfacet
  facet normal -0.5 0.866025 0
    outer loop
      vertex -3.25984 6.64621 3.11587
      vertex -4.12587 6.14621 3.61587
      vertex -3.25984 6.64621 3.61587
    endloop
  endfacet
  facet normal -0.866025 -0.5 -0
    outer loop
      vertex -4.12587 6.14621 3.11587
      vertex -0.57735 0 3.11587
      vertex -4.12587 6.14621 3.61587
    endloop
  endfacet
  facet normal -0.866025 -0.5 0
    outer loop
      vertex -4.12587 6.14621 3.61587
      vertex -0.57735 0 3.11587
      vertex -0.57735 0 3.61587
    endloop
  endfacet
  facet normal -0.866025 0.5 0
    outer loop
      vertex -4.12587 -6.14621 3.11587
      vertex -4.12587 -6.14621 3.61587
      vertex -0.57735 0 3.11587
    endloop
  endfacet
  facet normal -0.866025 0.5 0
    outer loop
      vertex -0.57735 0 3.11587
      vertex -4.12587 -6.14621 3.61587
      vertex -0.57735 0 3.61587
    endloop
  endfacet
  facet normal -0.951057 0 -0.309017
    outer loop
      vertex -2.18661 1.08253 0.761022
      vertex -1.99347 2.44122e-16 0.166612
      vertex -2.57288 1.08253 1.94984
    endloop
  endfacet
  facet normal -0.951057 4.80741e-17 -0.309017
    outer loop
      vertex -2.57288 1.08253 1.94984
      vertex -1.99347 2.44122e-16 0.166612
      vertex -2.18661 -1.08253 0.761022
    endloop
  endfacet
  facet normal -0.951057 1.95077e-16 -0.309017
    outer loop
      vertex -2.57288 1.08253 1.94984
      vertex -2.18661 -1.08253 0.761022
      vertex -2.57288 -1.08253 1.94984
    endloop
  endfacet
  facet normal -0.951057 1.95077e-16 -0.309017
    outer loop
      vertex -2.57288 1.08253 1.94984
      vertex -2.57288 -1.08253 1.94984
      vertex -2.76601 3.38728e-16 2.54425
    endloop
  endfacet
  facet normal -0.480631 -0.832477 -0.275637
    outer loop
      vertex -2.01885 -1.33169 0.608232
      vertex -0.995217 -1.72377 0.00744302
      vertex -0.143853 -2.41423 0.608232
    endloop
  endfacet
  facet normal -0.480631 -0.832477 -0.275637
    outer loop
      vertex -1.33976 -2.32054 2.4106
      vertex -2.01885 -1.33169 0.608232
      vertex -0.316127 -2.71261 1.80981
    endloop
  endfacet
  facet normal -0.480631 -0.832477 -0.275637
    outer loop
      vertex -0.316127 -2.71261 1.80981
      vertex -2.01885 -1.33169 0.608232
      vertex -0.143853 -2.41423 0.608232
    endloop
  endfacet
  facet normal -0.480631 -0.832477 -0.275637
    outer loop
      vertex -2.19113 -1.63008 1.80981
      vertex -2.01885 -1.33169 0.608232
      vertex -1.33976 -2.32054 2.4106
    endloop
  endfacet
  facet normal 0.480631 -0.832477 -0.275637
    outer loop
      vertex 0.995217 -1.72377 0.00744302
      vertex 2.01885 -1.33169 0.608232
      vertex 2.19113 -1.63008 1.80981
    endloop
  endfacet
  facet normal 0.480631 -0.832477 -0.275637
    outer loop
      vertex 0.316127 -2.71261 1.80981
      vertex 0.995217 -1.72377 0.00744302
      vertex 1.33976 -2.32054 2.4106
    endloop
  endfacet
  facet normal 0.480631 -0.832477 -0.275637
    outer loop
      vertex 1.33976 -2.32054 2.4106
      vertex 0.995217 -1.72377 0.00744302
      vertex 2.19113 -1.63008 1.80981
    endloop
  endfacet
  facet normal 0.480631 -0.832477 -0.275637
    outer loop
      vertex 0.143853 -2.41423 0.608232
      vertex 0.995217 -1.72377 0.00744302
      vertex 0.316127 -2.71261 1.80981
    endloop
  endfacet
  facet normal 0.951057 5.21801e-16 -0.309017
    outer loop
      vertex 2.18661 1.08253 0.761022
      vertex 2.57288 1.08253 1.94984
      vertex 2.76601 0 2.54425
    endloop
  endfacet
  facet normal 0.951057 0 -0.309017
    outer loop
      vertex 2.18661 -1.08253 0.761022
      vertex 2.18661 1.08253 0.761022
      vertex 2.57288 -1.08253 1.94984
    endloop
  endfacet
  facet normal 0.951057 -2.28352e-16 -0.309017
    outer loop
      vertex 2.57288 -1.08253 1.94984
      vertex 2.18661 1.08253 0.761022
      vertex 2.76601 0 2.54425
    endloop
  endfacet
  facet normal 0.951057 0 -0.309017
    outer loop
      vertex 1.99347 0 0.166612
      vertex 2.18661 1.08253 0.761022
      vertex 2.18661 -1.08253 0.761022
    endloop
  endfacet
  facet normal 0.480631 0.832477 -0.275637
    outer loop
      vertex 1.33976 2.32054 2.4106
      vertex 2.19113 1.63008 1.80981
      vertex 0.316127 2.71261 1.80981
    endloop
  endfacet
  facet normal 0.480631 0.832477 -0.275637
    outer loop
      vertex 0.316127 2.71261 1.80981
      vertex 2.19113 1.63008 1.80981
      vertex 2.01885 1.33169 0.608232
    endloop
  endfacet
  facet normal 0.480631 0.832477 -0.275637
    outer loop
      vertex 0.316127 2.71261 1.80981
      vertex 2.01885 1.33169 0.608232
      vertex 0.995217 1.72377 0.00744302
    endloop
  endfacet
  facet normal 0.480631 0.832477 -0.275637
    outer loop
      vertex 0.316127 2.71261 1.80981
      vertex 0.995217 1.72377 0.00744302
      vertex 0.143853 2.41423 0.608232
    endloop
  endfacet
  facet normal -0.480631 0.832477 -0.275637
    outer loop
      vertex -0.316127 2.71261 1.80981
      vertex -0.143853 2.41423 0.608232
      vertex -1.33976 2.32054 2.4106
    endloop
  endfacet
  facet normal -0.480631 0.832477 -0.275637
    outer loop
      vertex -1.33976 2.32054 2.4106
      vertex -0.143853 2.41423 0.608232
      vertex -0.995217 1.72377 0.00744302
    endloop
  endfacet
  facet normal -0.480631 0.832477 -0.275637
    outer loop
      vertex -1.33976 2.32054 2.4106
      vertex -0.995217 1.72377 0.00744302
      vertex -2.01885 1.33169 0.608232
    endloop
  endfacet
  facet normal -0.480631 0.832477 -0.275637
    outer loop
      vertex -1.33976 2.32054 2.4106
      vertex -2.01885 1.33169 0.608232
      vertex -2.19113 1.63008 1.80981
    endloop
  endfacet
  facet normal 0 0 1
    outer loop
      vertex -0.57735 0 3.61587
      vertex -4.12587 -6.14621 3.61587
      vertex -3.25984 -6.64621 3.61587
    endloop
  endfacet
  facet normal 0 0 1
    outer loop
      vertex 4.12587 -6.14621 3.61587
      vertex -0.57735 0 3.61587
      vertex 0 -1 3.61587
    endloop
  endfacet
  facet normal -0 0 1
    outer loop
      vertex 0 -1 3.61587
      vertex -0.57735 0 3.61587
      vertex -3.25984 -6.64621 3.61587
    endloop
  endfacet
  facet normal -0 0 1
    outer loop
      vertex 4.12587 -6.14621 3.61587
      vertex 0 -1 3.61587
      vertex 3.25984 -6.64621 3.61587
    endloop
  endfacet
  facet normal 0 -0 1
    outer loop
      vertex 0.57735 0 3.61587
      vertex -0.57735 0 3.61587
      vertex 4.12587 -6.14621 3.61587
    endloop
  endfacet
  facet normal 0 0 1
    outer loop
      vertex 4.12587 6.14621 3.61587
      vertex -0.57735 0 3.61587
      vertex 0.57735 0 3.61587
    endloop
  endfacet
  facet normal 0 -0 1
    outer loop
      vertex 0 1 3.61587
      vertex -0.57735 0 3.61587
      vertex 4.12587 6.14621 3.61587
    endloop
  endfacet
  facet normal 0 0 1
    outer loop
      vertex -3.25984 6.64621 3.61587
      vertex -0.57735 0 3.61587
      vertex 0 1 3.61587
    endloop
  endfacet
  facet normal 0 -0 1
    outer loop
      vertex 3.25984 6.64621 3.61587
      vertex 0 1 3.61587
      vertex 4.12587 6.14621 3.61587
    endloop
  endfacet
  facet normal 0 0 1
    outer loop
      vertex -4.12587 6.14621 3.61587
      vertex -0.57735 0 3.61587
      vertex -3.25984 6.64621 3.61587
    endloop
  endfacet
endsolid OpenSCAD_Model
