solid OpenSCAD_Model
  facet normal -1 4.65955e-16 0
    outer loop
      vertex -7.3738 -3.81229 -3.11587
      vertex -7.3738 -3.81229 3.11587
      vertex -7.3738 3.81229 -3.11587
    endloop
  endfacet
  facet normal -1 4.65955e-16 0
    outer loop
      vertex -7.3738 3.81229 -3.11587
      vertex -7.3738 -3.81229 3.11587
      vertex -7.3738 3.81229 3.11587
    endloop
  endfacet
  facet normal -0.809017 -0.587785 8.84235e-17
    outer loop
      vertex -7.3738 -3.81229 -3.11587
      vertex -6.63907 -4.82356 -3.11587
      vertex -7.27536 -3.94778 -1.12475
    endloop
  endfacet
  facet normal -0.809017 -0.587785 -0
    outer loop
      vertex -7.3738 -3.81229 -3.11587
      vertex -7.27536 -3.94778 -1.12475
      vertex -7.3738 -3.81229 3.11587
    endloop
  endfacet
  facet normal -0.809017 -0.587785 -8.84386e-17
    outer loop
      vertex -6.63907 -4.82356 0.825809
      vertex -7.3738 -3.81229 3.11587
      vertex -7.27536 -3.94778 0.175622
    endloop
  endfacet
  facet normal -0.809017 -0.587785 -0
    outer loop
      vertex -7.27536 -3.94778 -1.12475
      vertex -7.27536 -3.94778 0.175622
      vertex -7.3738 -3.81229 3.11587
    endloop
  endfacet
  facet normal -0.809017 -0.587785 0
    outer loop
      vertex -7.3738 -3.81229 3.11587
      vertex -6.63907 -4.82356 0.825809
      vertex -6.63907 -4.82356 3.11587
    endloop
  endfacet
  facet normal -0.809017 -0.587785 0
    outer loop
      vertex -7.27536 -3.94778 -1.12475
      vertex -6.63907 -4.82356 -3.11587
      vertex -6.63907 -4.82356 -1.77494
    endloop
  endfacet
  facet normal -0 0 -1
    outer loop
      vertex -7.3738 -3.81229 -3.11587
      vertex -7.3738 3.81229 -3.11587
      vertex -6.63907 -4.82356 -3.11587
    endloop
  endfacet
  facet normal 0 0 -1
    outer loop
      vertex -6.63907 -4.82356 -3.11587
      vertex -7.3738 3.81229 -3.11587
      vertex -6.63907 4.82356 -3.11587
    endloop
  endfacet
  facet normal 0 -0 -1
    outer loop
      vertex -6.63907 -4.82356 -3.11587
      vertex -6.63907 4.82356 -3.11587
      vertex -5.90434 5.83484 -3.11587
    endloop
  endfacet
  facet normal 0 0 -1
    outer loop
      vertex -6.63907 -4.82356 -3.11587
      vertex -5.90434 5.83484 -3.11587
      vertex 1.34708 8.19096 -3.11587
    endloop
  endfacet
  facet normal 0 0 -1
    outer loop
      vertex -6.63907 -4.82356 -3.11587
      vertex 1.34708 8.19096 -3.11587
      vertex 3.72472 7.41842 -3.11587
    endloop
  endfacet
  facet normal 0 0 -1
    outer loop
      vertex -6.63907 -4.82356 -3.11587
      vertex 3.72472 7.41842 -3.11587
      vertex 8.20634 1.25 -3.11587
    endloop
  endfacet
  facet normal 0 0 -1
    outer loop
      vertex -6.63907 -4.82356 -3.11587
      vertex 8.20634 1.25 -3.11587
      vertex 8.20634 -1.25 -3.11587
    endloop
  endfacet
  facet normal -0 0 -1
    outer loop
      vertex -6.63907 -4.82356 -3.11587
      vertex 8.20634 -1.25 -3.11587
      vertex 3.72472 -7.41842 -3.11587
    endloop
  endfacet
  facet normal 0 0 -1
    outer loop
      vertex -6.63907 -4.82356 -3.11587
      vertex 3.72472 -7.41842 -3.11587
      vertex 1.34708 -8.19096 -3.11587
    endloop
  endfacet
  facet normal 0 0 -1
    outer loop
      vertex -6.63907 -4.82356 -3.11587
      vertex 1.34708 -8.19096 -3.11587
      vertex -5.90434 -5.83484 -3.11587
    endloop
  endfacet
  facet normal -0.809017 0.587785 0
    outer loop
      vertex -6.63907 4.82356 -1.77494
      vertex -6.63907 4.82356 -3.11587
      vertex -7.27536 3.94778 -1.12475
    endloop
  endfacet
  facet normal -0.809017 0.587785 0
    outer loop
      vertex -6.63907 4.82356 0.825809
      vertex -7.3738 3.81229 3.11587
      vertex -6.63907 4.82356 3.11587
    endloop
  endfacet
  facet normal -0.809017 0.587785 0
    outer loop
      vertex -7.3738 3.81229 -3.11587
      vertex -7.3738 3.81229 3.11587
      vertex -7.27536 3.94778 0.175622
    endloop
  endfacet
  facet normal -0.809017 0.587785 0
    outer loop
      vertex -7.3738 3.81229 -3.11587
      vertex -7.27536 3.94778 0.175622
      vertex -7.27536 3.94778 -1.12475
    endloop
  endfacet
  facet normal -0.809017 0.587785 -1.54741e-16
    outer loop
      vertex -7.3738 3.81229 -3.11587
      vertex -7.27536 3.94778 -1.12475
      vertex -6.63907 4.82356 -3.11587
    endloop
  endfacet
  facet normal -0.809017 0.587785 1.13895e-16
    outer loop
      vertex -7.27536 3.94778 0.175622
      vertex -7.3738 3.81229 3.11587
      vertex -6.63907 4.82356 0.825809
    endloop
  endfacet
  facet normal 0 -0 1
    outer loop
      vertex -7.3738 3.81229 3.11587
      vertex -7.3738 -3.81229 3.11587
      vertex -6.63907 -4.82356 3.11587
    endloop
  endfacet
  facet normal 0 0 1
    outer loop
      vertex 1.34708 -8.19096 3.11587
      vertex -7.3738 3.81229 3.11587
      vertex -5.90434 -5.83484 3.11587
    endloop
  endfacet
  facet normal 0 0 1
    outer loop
      vertex -5.90434 -5.83484 3.11587
      vertex -7.3738 3.81229 3.11587
      vertex -6.63907 -4.82356 3.11587
    endloop
  endfacet
  facet normal -0 -0 1
    outer loop
      vertex -1.36772 -2.36897 3.11587
      vertex -7.3738 3.81229 3.11587
      vertex 1.34708 -8.19096 3.11587
    endloop
  endfacet
  facet normal 0 0 1
    outer loop
      vertex 2.09547 1.75831 3.11587
      vertex 2.73545 0 3.11587
      vertex 8.20634 -1.25 3.11587
    endloop
  endfacet
  facet normal 0 -0 1
    outer loop
      vertex 1.34708 8.19096 3.11587
      vertex -7.3738 3.81229 3.11587
      vertex 3.72472 7.41842 3.11587
    endloop
  endfacet
  facet normal 0 -0 1
    outer loop
      vertex -5.90434 5.83484 3.11587
      vertex -7.3738 3.81229 3.11587
      vertex 1.34708 8.19096 3.11587
    endloop
  endfacet
  facet normal 0 -0 2.72605e-07
    outer loop
      vertex -6.63907 4.82356 3.11587
      vertex -7.3738 3.81229 3.11587
      vertex -5.90434 5.83484 3.11587
    endloop
  endfacet
  facet normal -0 0 1
    outer loop
      vertex -2.57048 0.935578 3.11587
      vertex -7.3738 3.81229 3.11587
      vertex -2.57048 -0.935578 3.11587
    endloop
  endfacet
  facet normal -0 -0 1
    outer loop
      vertex 0.475005 -2.69389 3.11587
      vertex -1.36772 -2.36897 3.11587
      vertex 3.72472 -7.41842 3.11587
    endloop
  endfacet
  facet normal 0 -0 1
    outer loop
      vertex 2.73545 0 3.11587
      vertex 2.09547 -1.75831 3.11587
      vertex 8.20634 -1.25 3.11587
    endloop
  endfacet
  facet normal 0 0 1
    outer loop
      vertex 0.475005 2.69389 3.11587
      vertex 2.09547 1.75831 3.11587
      vertex 8.20634 1.25 3.11587
    endloop
  endfacet
  facet normal 0 -0 1
    outer loop
      vertex 3.72472 7.41842 3.11587
      vertex 0.475005 2.69389 3.11587
      vertex 8.20634 1.25 3.11587
    endloop
  endfacet
  facet normal 0 0 1
    outer loop
      vertex 3.72472 7.41842 3.11587
      vertex -7.3738 3.81229 3.11587
      vertex 0.475005 2.69389 3.11587
    endloop
  endfacet
  facet normal -0 0 1
    outer loop
      vertex 8.20634 1.25 3.11587
      vertex 2.09547 1.75831 3.11587
      vertex 8.20634 -1.25 3.11587
    endloop
  endfacet
  facet normal 0 0 1
    outer loop
      vertex -1.36772 2.36897 3.11587
      vertex 0.475005 2.69389 3.11587
      vertex -7.3738 3.81229 3.11587
    endloop
  endfacet
  facet normal 0 0 1
    outer loop
      vertex 8.20634 -1.25 3.11587
      vertex 2.09547 -1.75831 3.11587
      vertex 3.72472 -7.41842 3.11587
    endloop
  endfacet
  facet normal 0 -0 1
    outer loop
      vertex 2.09547 -1.75831 3.11587
      vertex 0.475005 -2.69389 3.11587
      vertex 3.72472 -7.41842 3.11587
    endloop
  endfacet
  facet normal -0 0 1
    outer loop
      vertex 3.72472 -7.41842 3.11587
      vertex -1.36772 -2.36897 3.11587
      vertex 1.34708 -8.19096 3.11587
    endloop
  endfacet
  facet normal 0 0 1
    outer loop
      vertex -1.36772 -2.36897 3.11587
      vertex -2.57048 -0.935578 3.11587
      vertex -7.3738 3.81229 3.11587
    endloop
  endfacet
  facet normal 0 0 1
    outer loop
      vertex -2.57048 0.935578 3.11587
      vertex -1.36772 2.36897 3.11587
      vertex -7.3738 3.81229 3.11587
    endloop
  endfacet
  facet normal -0.809017 -0.587785 -0
    outer loop
      vertex -6.63907 -4.82356 -3.11587
      vertex -5.90434 -5.83484 -3.11587
      vertex -6.63907 -4.82356 -1.77494
    endloop
  endfacet
  facet normal -0.809017 -0.587785 0
    outer loop
      vertex -6.00277 -5.69935 0.175622
      vertex -5.90434 -5.83484 -3.11587
      vertex -5.90434 -5.83484 3.11587
    endloop
  endfacet
  facet normal -0.809017 -0.587785 -0
    outer loop
      vertex -6.63907 -4.82356 0.825809
      vertex -5.90434 -5.83484 3.11587
      vertex -6.63907 -4.82356 3.11587
    endloop
  endfacet
  facet normal -4.77037e-08 -3.46588e-08 -1.76958e-16
    outer loop
      vertex -6.63907 -4.82357 0.825809
      vertex -5.90434 -5.83484 3.11587
      vertex -6.63907 -4.82356 0.825809
    endloop
  endfacet
  facet normal -0.809017 -0.587785 -0
    outer loop
      vertex -6.00277 -5.69935 -1.12475
      vertex -5.90434 -5.83484 -3.11587
      vertex -6.00277 -5.69935 0.175622
    endloop
  endfacet
  facet normal -0.809017 -0.587785 1.32244e-16
    outer loop
      vertex -6.63907 -4.82357 -1.77494
      vertex -5.90434 -5.83484 -3.11587
      vertex -6.00277 -5.69935 -1.12475
    endloop
  endfacet
  facet normal -5.33437e-08 -3.87565e-08 5.1612e-16
    outer loop
      vertex -6.63907 -4.82356 -1.77494
      vertex -5.90434 -5.83484 -3.11587
      vertex -6.63907 -4.82357 -1.77494
    endloop
  endfacet
  facet normal -0.809017 -0.587785 -7.28929e-17
    outer loop
      vertex -6.00277 -5.69935 0.175622
      vertex -5.90434 -5.83484 3.11587
      vertex -6.63907 -4.82357 0.825809
    endloop
  endfacet
  facet normal 0.487012 -0.264199 -0.832477
    outer loop
      vertex -2.16778 -1.57499 2.4106
      vertex -6.63907 -4.82357 0.825809
      vertex -2.66471 -0.59794 1.80981
    endloop
  endfacet
  facet normal 3.75111e-08 -2.03493e-08 -6.41197e-08
    outer loop
      vertex -2.66471 -0.59794 1.80981
      vertex -6.63907 -4.82357 0.825809
      vertex -6.63907 -4.82356 0.825809
    endloop
  endfacet
  facet normal 0.487012 -0.264199 -0.832477
    outer loop
      vertex -2.66471 -0.59794 1.80981
      vertex -6.63907 -4.82356 0.825809
      vertex -7.27536 -3.94778 0.175622
    endloop
  endfacet
  facet normal 0.587785 -0.809017 -6.71505e-17
    outer loop
      vertex -2.38596 -0.395421 0.608232
      vertex -2.66471 -0.59794 1.80981
      vertex -7.27536 -3.94778 0.175622
    endloop
  endfacet
  facet normal 0.587785 -0.809017 0
    outer loop
      vertex -7.27536 -3.94778 -1.12475
      vertex -2.38596 -0.395421 0.608232
      vertex -7.27536 -3.94778 0.175622
    endloop
  endfacet
  facet normal 5.97751e-09 -3.23168e-08 4.93797e-08
    outer loop
      vertex -6.63907 -4.82356 -1.77494
      vertex -6.63907 -4.82357 -1.77494
      vertex -1.61029 -1.16995 0.00744302
    endloop
  endfacet
  facet normal 0.100773 -0.544818 0.832477
    outer loop
      vertex -7.27536 -3.94778 -1.12475
      vertex -6.63907 -4.82356 -1.77494
      vertex -2.38596 -0.395421 0.608232
    endloop
  endfacet
  facet normal 0.100773 -0.544818 0.832477
    outer loop
      vertex -2.38596 -0.395421 0.608232
      vertex -6.63907 -4.82356 -1.77494
      vertex -1.61029 -1.16995 0.00744302
    endloop
  endfacet
  facet normal -0.309017 -0.951057 0
    outer loop
      vertex -5.90434 -5.83484 3.11587
      vertex -5.90434 -5.83484 -3.11587
      vertex 1.34708 -8.19096 -3.11587
    endloop
  endfacet
  facet normal -0.309017 -0.951057 0
    outer loop
      vertex 1.34708 -8.19096 3.11587
      vertex -5.90434 -5.83484 3.11587
      vertex 1.34708 -8.19096 -3.11587
    endloop
  endfacet
  facet normal 0.309017 -0.951057 -5.24786e-16
    outer loop
      vertex 1.50635 -8.13921 -1.12475
      vertex 1.34708 -8.19096 -3.11587
      vertex 3.72472 -7.41842 -3.11587
    endloop
  endfacet
  facet normal 0.309017 -0.951057 2.18731e-15
    outer loop
      vertex 2.5359 -7.80469 -1.77494
      vertex 1.50635 -8.13921 -1.12475
      vertex 3.72472 -7.41842 -3.11587
    endloop
  endfacet
  facet normal 0.309017 -0.951057 0
    outer loop
      vertex 1.34708 -8.19096 3.11587
      vertex 1.34708 -8.19096 -3.11587
      vertex 1.50635 -8.13921 -1.12475
    endloop
  endfacet
  facet normal 0.309017 -0.951057 0
    outer loop
      vertex 1.34708 -8.19096 3.11587
      vertex 1.50635 -8.13921 -1.12475
      vertex 1.50635 -8.13921 0.175622
    endloop
  endfacet
  facet normal 0.309017 -0.951057 0
    outer loop
      vertex 3.72472 -7.41842 3.11587
      vertex 1.34708 -8.19096 3.11587
      vertex 2.5359 -7.80469 0.825809
    endloop
  endfacet
  facet normal 0.309017 -0.951057 0
    outer loop
      vertex 3.72472 -7.41842 3.11587
      vertex 3.56545 -7.47017 0.175622
      vertex 3.72472 -7.41842 -3.11587
    endloop
  endfacet
  facet normal 0.309017 -0.951057 -4.7836e-17
    outer loop
      vertex 3.72472 -7.41842 3.11587
      vertex 2.5359 -7.80469 0.825809
      vertex 3.56545 -7.47017 0.175622
    endloop
  endfacet
  facet normal 0.309017 -0.951057 0
    outer loop
      vertex 3.56545 -7.47017 0.175622
      vertex 3.56545 -7.47017 -1.12475
      vertex 3.72472 -7.41842 -3.11587
    endloop
  endfacet
  facet normal 0.309017 -0.951057 3.98633e-16
    outer loop
      vertex 1.50635 -8.13921 0.175622
      vertex 2.5359 -7.80469 0.825809
      vertex 1.34708 -8.19096 3.11587
    endloop
  endfacet
  facet normal 0.309017 -0.951057 7.28946e-17
    outer loop
      vertex 3.56545 -7.47017 -1.12475
      vertex 2.5359 -7.80469 -1.77494
      vertex 3.72472 -7.41842 -3.11587
    endloop
  endfacet
  facet normal 0.809017 -0.587785 0
    outer loop
      vertex 3.72472 -7.41842 3.11587
      vertex 3.72472 -7.41842 -3.11587
      vertex 8.20634 -1.25 -3.11587
    endloop
  endfacet
  facet normal 0.809017 -0.587785 0
    outer loop
      vertex 8.20634 -1.25 3.11587
      vertex 3.72472 -7.41842 3.11587
      vertex 8.20634 -1.25 -3.11587
    endloop
  endfacet
  facet normal 1 0 -0
    outer loop
      vertex 8.20634 -1.08253 -1.12475
      vertex 8.20634 -1.25 -3.11587
      vertex 8.20634 1.25 -3.11587
    endloop
  endfacet
  facet normal 1 -0 -0
    outer loop
      vertex 8.20634 -2.00991e-15 -1.77494
      vertex 8.20634 -1.08253 -1.12475
      vertex 8.20634 1.25 -3.11587
    endloop
  endfacet
  facet normal 1 0 -0
    outer loop
      vertex 8.20634 -1.25 3.11587
      vertex 8.20634 -1.25 -3.11587
      vertex 8.20634 -1.08253 -1.12475
    endloop
  endfacet
  facet normal 1 0 0
    outer loop
      vertex 8.20634 -1.25 3.11587
      vertex 8.20634 -1.08253 -1.12475
      vertex 8.20634 -1.08253 0.175622
    endloop
  endfacet
  facet normal 1 0 0
    outer loop
      vertex 8.20634 1.25 3.11587
      vertex 8.20634 -1.25 3.11587
      vertex 8.20634 -2.00991e-15 0.825809
    endloop
  endfacet
  facet normal 5.55112e-16 0 0
    outer loop
      vertex 8.20634 1.25 3.11587
      vertex 8.20634 -2.00991e-15 0.825809
      vertex 8.20634 -1.00495e-15 0.825809
    endloop
  endfacet
  facet normal 2.22045e-16 0 0
    outer loop
      vertex 8.20634 1.25 3.11587
      vertex 8.20634 -1.00495e-15 0.825809
      vertex 8.20634 0 0.825809
    endloop
  endfacet
  facet normal 1 0 0
    outer loop
      vertex 8.20634 1.25 3.11587
      vertex 8.20634 1.08253 0.175622
      vertex 8.20634 1.25 -3.11587
    endloop
  endfacet
  facet normal 1 0 0
    outer loop
      vertex 8.20634 1.25 3.11587
      vertex 8.20634 0 0.825809
      vertex 8.20634 1.08253 0.175622
    endloop
  endfacet
  facet normal 1 0 -0
    outer loop
      vertex 8.20634 1.08253 0.175622
      vertex 8.20634 1.08253 -1.12475
      vertex 8.20634 1.25 -3.11587
    endloop
  endfacet
  facet normal 1.49889e-15 0 -0
    outer loop
      vertex 8.20634 0 -1.77494
      vertex 8.20634 -2.00991e-15 -1.77494
      vertex 8.20634 1.25 -3.11587
    endloop
  endfacet
  facet normal 1 0 -0
    outer loop
      vertex 8.20634 -1.00495e-15 -1.77494
      vertex 8.20634 -2.00991e-15 -1.77494
      vertex 8.20634 0 -1.77494
    endloop
  endfacet
  facet normal 1 0 0
    outer loop
      vertex 8.20634 -1.08253 0.175622
      vertex 8.20634 -2.00991e-15 0.825809
      vertex 8.20634 -1.25 3.11587
    endloop
  endfacet
  facet normal 1 0 -0
    outer loop
      vertex 8.20634 1.08253 -1.12475
      vertex 8.20634 0 -1.77494
      vertex 8.20634 1.25 -3.11587
    endloop
  endfacet
  facet normal 0.809017 0.587785 0
    outer loop
      vertex 8.20634 1.25 -3.11587
      vertex 3.72472 7.41842 -3.11587
      vertex 3.72472 7.41842 3.11587
    endloop
  endfacet
  facet normal 0.809017 0.587785 -0
    outer loop
      vertex 8.20634 1.25 3.11587
      vertex 8.20634 1.25 -3.11587
      vertex 3.72472 7.41842 3.11587
    endloop
  endfacet
  facet normal 0.309017 0.951057 2.12609e-16
    outer loop
      vertex 3.56545 7.47017 -1.12475
      vertex 3.72472 7.41842 -3.11587
      vertex 2.5359 7.80469 -1.77494
    endloop
  endfacet
  facet normal 0.309017 0.951057 -1.46895e-16
    outer loop
      vertex 3.56545 7.47017 0.175622
      vertex 1.34708 8.19096 3.11587
      vertex 3.72472 7.41842 3.11587
    endloop
  endfacet
  facet normal 0.309017 0.951057 0
    outer loop
      vertex 1.34708 8.19096 -3.11587
      vertex 1.34708 8.19096 3.11587
      vertex 1.50635 8.13921 0.175622
    endloop
  endfacet
  facet normal 0.309017 0.951057 0
    outer loop
      vertex 1.34708 8.19096 -3.11587
      vertex 1.50635 8.13921 0.175622
      vertex 1.50635 8.13921 -1.12475
    endloop
  endfacet
  facet normal 0.309017 0.951057 2.75812e-16
    outer loop
      vertex 1.34708 8.19096 -3.11587
      vertex 1.50635 8.13921 -1.12475
      vertex 3.72472 7.41842 -3.11587
    endloop
  endfacet
  facet normal 0.309017 0.951057 4.27599e-16
    outer loop
      vertex 1.50635 8.13921 -1.12475
      vertex 2.5359 7.80469 -1.77494
      vertex 3.72472 7.41842 -3.11587
    endloop
  endfacet
  facet normal 0.309017 0.951057 0
    outer loop
      vertex 3.72472 7.41842 -3.11587
      vertex 3.56545 7.47017 -1.12475
      vertex 3.72472 7.41842 3.11587
    endloop
  endfacet
  facet normal 0.309017 0.951057 0
    outer loop
      vertex 3.56545 7.47017 -1.12475
      vertex 3.56545 7.47017 0.175622
      vertex 3.72472 7.41842 3.11587
    endloop
  endfacet
  facet normal 0.309017 0.951057 -2.62062e-16
    outer loop
      vertex 2.5359 7.80469 0.825809
      vertex 1.34708 8.19096 3.11587
      vertex 3.56545 7.47017 0.175622
    endloop
  endfacet
  facet normal 0.309017 0.951057 -1.89066e-16
    outer loop
      vertex 1.50635 8.13921 0.175622
      vertex 1.34708 8.19096 3.11587
      vertex 2.5359 7.80469 0.825809
    endloop
  endfacet
  facet normal -0.309017 0.951057 0
    outer loop
      vertex -5.90434 5.83484 -3.11587
      vertex -5.90434 5.83484 3.11587
      vertex 1.34708 8.19096 -3.11587
    endloop
  endfacet
  facet normal -0.309017 0.951057 0
    outer loop
      vertex 1.34708 8.19096 -3.11587
      vertex -5.90434 5.83484 3.11587
      vertex 1.34708 8.19096 3.11587
    endloop
  endfacet
  facet normal -0.809017 0.587785 0
    outer loop
      vertex -6.63907 4.82356 -3.11587
      vertex -6.63907 4.82356 -1.77494
      vertex -5.90434 5.83484 -3.11587
    endloop
  endfacet
  facet normal -5.33437e-08 3.87565e-08 8.32667e-16
    outer loop
      vertex -5.90434 5.83484 -3.11587
      vertex -6.63907 4.82356 -1.77494
      vertex -6.63907 4.82357 -1.77494
    endloop
  endfacet
  facet normal -0.809017 0.587785 2.97653e-16
    outer loop
      vertex -5.90434 5.83484 -3.11587
      vertex -6.63907 4.82357 -1.77494
      vertex -6.00277 5.69935 -1.12475
    endloop
  endfacet
  facet normal -0.809017 0.587785 0
    outer loop
      vertex -6.00277 5.69935 -1.12475
      vertex -6.00277 5.69935 0.175622
      vertex -5.90434 5.83484 -3.11587
    endloop
  endfacet
  facet normal -7.09706e-08 5.15632e-08 0
    outer loop
      vertex -6.63907 4.82357 0.825809
      vertex -6.63907 4.82356 0.825809
      vertex -6.63907 4.82356 3.11587
    endloop
  endfacet
  facet normal -0.809017 0.587785 -4.95801e-16
    outer loop
      vertex -6.63907 4.82357 0.825809
      vertex -6.63907 4.82356 3.11587
      vertex -6.00277 5.69935 0.175622
    endloop
  endfacet
  facet normal -0.809017 0.587785 -2.32584e-16
    outer loop
      vertex -6.00277 5.69935 0.175622
      vertex -6.63907 4.82356 3.11587
      vertex -5.90434 5.83484 3.11587
    endloop
  endfacet
  facet normal -0.809017 0.587785 0
    outer loop
      vertex -6.00277 5.69935 0.175622
      vertex -5.90434 5.83484 3.11587
      vertex -5.90434 5.83484 -3.11587
    endloop
  endfacet
  facet normal 0.100773 0.544818 0.832477
    outer loop
      vertex -2.38596 0.395421 0.608232
      vertex -1.61029 1.16995 0.00744302
      vertex -6.63907 4.82357 -1.77494
    endloop
  endfacet
  facet normal 0.100773 0.544818 0.832477
    outer loop
      vertex -7.27536 3.94778 -1.12475
      vertex -2.38596 0.395421 0.608232
      vertex -6.63907 4.82356 -1.77494
    endloop
  endfacet
  facet normal 7.4954e-09 4.0523e-08 6.19189e-08
    outer loop
      vertex -6.63907 4.82356 -1.77494
      vertex -2.38596 0.395421 0.608232
      vertex -6.63907 4.82357 -1.77494
    endloop
  endfacet
  facet normal 0.587785 0.809017 -3.98082e-17
    outer loop
      vertex -2.66471 0.59794 1.80981
      vertex -2.38596 0.395421 0.608232
      vertex -7.27536 3.94778 0.175622
    endloop
  endfacet
  facet normal 0.587785 0.809017 -0
    outer loop
      vertex -7.27536 3.94778 0.175622
      vertex -2.38596 0.395421 0.608232
      vertex -7.27536 3.94778 -1.12475
    endloop
  endfacet
  facet normal 3.24897e-08 1.76253e-08 -5.55365e-08
    outer loop
      vertex -6.63907 4.82357 0.825809
      vertex -2.16778 1.57499 2.4106
      vertex -6.63907 4.82356 0.825809
    endloop
  endfacet
  facet normal 0.487012 0.264199 -0.832477
    outer loop
      vertex -6.63907 4.82356 0.825809
      vertex -2.16778 1.57499 2.4106
      vertex -2.66471 0.59794 1.80981
    endloop
  endfacet
  facet normal 0.487012 0.264199 -0.832477
    outer loop
      vertex -6.63907 4.82356 0.825809
      vertex -2.66471 0.59794 1.80981
      vertex -7.27536 3.94778 0.175622
    endloop
  endfacet
  facet normal -1 -0 -0
    outer loop
      vertex -2.57048 -0.935578 3.11587
      vertex -2.57048 -0.935578 3.61587
      vertex -2.57048 0.935578 3.11587
    endloop
  endfacet
  facet normal -1 0 0
    outer loop
      vertex -2.57048 0.935578 3.11587
      vertex -2.57048 -0.935578 3.61587
      vertex -2.57048 0.935578 3.61587
    endloop
  endfacet
  facet normal -0.766044 -0.642788 -0
    outer loop
      vertex -2.57048 -0.935578 3.11587
      vertex -1.36772 -2.36897 3.11587
      vertex -2.57048 -0.935578 3.61587
    endloop
  endfacet
  facet normal -0.766044 -0.642788 0
    outer loop
      vertex -2.57048 -0.935578 3.61587
      vertex -1.36772 -2.36897 3.11587
      vertex -1.36772 -2.36897 3.61587
    endloop
  endfacet
  facet normal -0.173648 -0.984808 0
    outer loop
      vertex -1.36772 -2.36897 3.61587
      vertex -1.36772 -2.36897 3.11587
      vertex 0.475005 -2.69389 3.11587
    endloop
  endfacet
  facet normal -0.173648 -0.984808 0
    outer loop
      vertex 0.475005 -2.69389 3.61587
      vertex -1.36772 -2.36897 3.61587
      vertex 0.475005 -2.69389 3.11587
    endloop
  endfacet
  facet normal 0.5 -0.866025 0
    outer loop
      vertex 0.475005 -2.69389 3.61587
      vertex 0.475005 -2.69389 3.11587
      vertex 2.09547 -1.75831 3.11587
    endloop
  endfacet
  facet normal 0.5 -0.866025 0
    outer loop
      vertex 2.09547 -1.75831 3.61587
      vertex 0.475005 -2.69389 3.61587
      vertex 2.09547 -1.75831 3.11587
    endloop
  endfacet
  facet normal 0.939693 -0.34202 0
    outer loop
      vertex 2.09547 -1.75831 3.61587
      vertex 2.09547 -1.75831 3.11587
      vertex 2.73545 0 3.11587
    endloop
  endfacet
  facet normal 0.939693 -0.34202 0
    outer loop
      vertex 2.73545 0 3.61587
      vertex 2.09547 -1.75831 3.61587
      vertex 2.73545 0 3.11587
    endloop
  endfacet
  facet normal 0.939693 0.34202 0
    outer loop
      vertex 2.73545 0 3.11587
      vertex 2.09547 1.75831 3.11587
      vertex 2.09547 1.75831 3.61587
    endloop
  endfacet
  facet normal 0.939693 0.34202 -0
    outer loop
      vertex 2.73545 0 3.61587
      vertex 2.73545 0 3.11587
      vertex 2.09547 1.75831 3.61587
    endloop
  endfacet
  facet normal 0.5 0.866025 0
    outer loop
      vertex 0.475005 2.69389 3.11587
      vertex 0.475005 2.69389 3.61587
      vertex 2.09547 1.75831 3.11587
    endloop
  endfacet
  facet normal 0.5 0.866025 0
    outer loop
      vertex 2.09547 1.75831 3.11587
      vertex 0.475005 2.69389 3.61587
      vertex 2.09547 1.75831 3.61587
    endloop
  endfacet
  facet normal -0.173648 0.984808 0
    outer loop
      vertex -1.36772 2.36897 3.11587
      vertex -1.36772 2.36897 3.61587
      vertex 0.475005 2.69389 3.11587
    endloop
  endfacet
  facet normal -0.173648 0.984808 0
    outer loop
      vertex 0.475005 2.69389 3.11587
      vertex -1.36772 2.36897 3.61587
      vertex 0.475005 2.69389 3.61587
    endloop
  endfacet
  facet normal -0.766044 0.642788 0
    outer loop
      vertex -2.57048 0.935578 3.11587
      vertex -2.57048 0.935578 3.61587
      vertex -1.36772 2.36897 3.11587
    endloop
  endfacet
  facet normal -0.766044 0.642788 0
    outer loop
      vertex -1.36772 2.36897 3.11587
      vertex -2.57048 0.935578 3.61587
      vertex -1.36772 2.36897 3.61587
    endloop
  endfacet
  facet normal -0.487012 0.264199 0.832477
    outer loop
      vertex -6.00277 -5.69935 -1.12475
      vertex -1.11337 -2.14699 0.608232
      vertex -1.61029 -1.16995 0.00744302
    endloop
  endfacet
  facet normal -0.487012 0.264199 0.832477
    outer loop
      vertex -6.63907 -4.82357 -1.77494
      vertex -6.00277 -5.69935 -1.12475
      vertex -1.61029 -1.16995 0.00744302
    endloop
  endfacet
  facet normal -0.587785 0.809017 -7.96164e-17
    outer loop
      vertex -1.39211 -2.34951 1.80981
      vertex -1.11337 -2.14699 0.608232
      vertex -6.00277 -5.69935 0.175622
    endloop
  endfacet
  facet normal -0.587785 0.809017 0
    outer loop
      vertex -6.00277 -5.69935 0.175622
      vertex -1.11337 -2.14699 0.608232
      vertex -6.00277 -5.69935 -1.12475
    endloop
  endfacet
  facet normal -0.100773 0.544818 -0.832477
    outer loop
      vertex -1.39211 -2.34951 1.80981
      vertex -6.00277 -5.69935 0.175622
      vertex -2.16778 -1.57499 2.4106
    endloop
  endfacet
  facet normal -0.100773 0.544818 -0.832477
    outer loop
      vertex -2.16778 -1.57499 2.4106
      vertex -6.00277 -5.69935 0.175622
      vertex -6.63907 -4.82357 0.825809
    endloop
  endfacet
  facet normal -0.777677 -0.565015 -0.275637
    outer loop
      vertex -1.61029 -1.16995 0.00744302
      vertex -1.11337 -2.14699 0.608232
      vertex -2.38596 -0.395421 0.608232
    endloop
  endfacet
  facet normal -0.777677 -0.565015 -0.275637
    outer loop
      vertex -2.38596 -0.395421 0.608232
      vertex -1.11337 -2.14699 0.608232
      vertex -1.39211 -2.34951 1.80981
    endloop
  endfacet
  facet normal -0.777677 -0.565015 -0.275637
    outer loop
      vertex -2.38596 -0.395421 0.608232
      vertex -1.39211 -2.34951 1.80981
      vertex -2.16778 -1.57499 2.4106
    endloop
  endfacet
  facet normal -0.777677 -0.565015 -0.275637
    outer loop
      vertex -2.38596 -0.395421 0.608232
      vertex -2.16778 -1.57499 2.4106
      vertex -2.66471 -0.59794 1.80981
    endloop
  endfacet
  facet normal 0.951057 0.309017 0
    outer loop
      vertex -0.254765 -2.71906 1.80981
      vertex 1.50635 -8.13921 0.175622
      vertex 1.50635 -8.13921 -1.12475
    endloop
  endfacet
  facet normal 0.951057 0.309017 -2.91697e-17
    outer loop
      vertex -0.361236 -2.39138 0.608232
      vertex -0.254765 -2.71906 1.80981
      vertex 1.50635 -8.13921 -1.12475
    endloop
  endfacet
  facet normal 0.549293 -0.0725172 0.832477
    outer loop
      vertex 1.50635 -8.13921 -1.12475
      vertex 2.5359 -7.80469 -1.77494
      vertex 0.615078 -1.89301 0.00744302
    endloop
  endfacet
  facet normal 0.549293 -0.0725172 0.832477
    outer loop
      vertex -0.361236 -2.39138 0.608232
      vertex 1.50635 -8.13921 -1.12475
      vertex 0.615078 -1.89301 0.00744302
    endloop
  endfacet
  facet normal -0.401763 -0.381534 0.832477
    outer loop
      vertex 2.5359 -7.80469 -1.77494
      vertex 3.56545 -7.47017 -1.12475
      vertex 1.69786 -1.72234 0.608232
    endloop
  endfacet
  facet normal -0.401763 -0.381534 0.832477
    outer loop
      vertex 0.615078 -1.89301 0.00744302
      vertex 2.5359 -7.80469 -1.77494
      vertex 1.69786 -1.72234 0.608232
    endloop
  endfacet
  facet normal -0.951057 -0.309017 0
    outer loop
      vertex 3.56545 -7.47017 0.175622
      vertex 1.80433 -2.05002 1.80981
      vertex 3.56545 -7.47017 -1.12475
    endloop
  endfacet
  facet normal -0.951057 -0.309017 2.33358e-16
    outer loop
      vertex 3.56545 -7.47017 -1.12475
      vertex 1.80433 -2.05002 1.80981
      vertex 1.69786 -1.72234 0.608232
    endloop
  endfacet
  facet normal -0.549293 0.0725172 -0.832477
    outer loop
      vertex 3.56545 -7.47017 0.175622
      vertex 2.5359 -7.80469 0.825809
      vertex 1.80433 -2.05002 1.80981
    endloop
  endfacet
  facet normal -0.549293 0.0725172 -0.832477
    outer loop
      vertex 1.80433 -2.05002 1.80981
      vertex 2.5359 -7.80469 0.825809
      vertex 0.828019 -2.54838 2.4106
    endloop
  endfacet
  facet normal 0.401763 0.381534 -0.832477
    outer loop
      vertex 2.5359 -7.80469 0.825809
      vertex 1.50635 -8.13921 0.175622
      vertex 0.828019 -2.54838 2.4106
    endloop
  endfacet
  facet normal 0.401763 0.381534 -0.832477
    outer loop
      vertex 0.828019 -2.54838 2.4106
      vertex 1.50635 -8.13921 0.175622
      vertex -0.254765 -2.71906 1.80981
    endloop
  endfacet
  facet normal 2.7273e-16 1 -0
    outer loop
      vertex 8.20634 -1.08253 0.175622
      vertex 8.20634 -1.08253 -1.12475
      vertex 2.50725 -1.08253 1.80981
    endloop
  endfacet
  facet normal 2.37642e-16 1 -6.81428e-17
    outer loop
      vertex 2.50725 -1.08253 1.80981
      vertex 8.20634 -1.08253 -1.12475
      vertex 2.16271 -1.08253 0.608232
    endloop
  endfacet
  facet normal 0.238709 0.5 0.832477
    outer loop
      vertex 2.16271 -1.08253 0.608232
      vertex 8.20634 -1.08253 -1.12475
      vertex 8.20634 -2.00991e-15 -1.77494
    endloop
  endfacet
  facet normal 0.238709 0.5 0.832477
    outer loop
      vertex 1.99043 -4.875e-16 0.00744302
      vertex 2.16271 -1.08253 0.608232
      vertex 8.20634 -2.00991e-15 -1.77494
    endloop
  endfacet
  facet normal 4.63594e-17 -7.1444e-17 1.61675e-16
    outer loop
      vertex 8.20634 -2.00991e-15 -1.77494
      vertex 8.20634 -1.00495e-15 -1.77494
      vertex 1.99043 -2.4375e-16 0.00744302
    endloop
  endfacet
  facet normal 1.12444e-17 -2.17681e-17 3.92139e-17
    outer loop
      vertex 1.99043 -4.875e-16 0.00744302
      vertex 8.20634 -2.00991e-15 -1.77494
      vertex 1.99043 -2.4375e-16 0.00744302
    endloop
  endfacet
  facet normal 4.63594e-17 7.1444e-17 1.61675e-16
    outer loop
      vertex 8.20634 0 -1.77494
      vertex 1.99043 -2.4375e-16 0.00744302
      vertex 8.20634 -1.00495e-15 -1.77494
    endloop
  endfacet
  facet normal 1.12444e-17 2.17681e-17 3.92139e-17
    outer loop
      vertex 1.99043 0 0.00744302
      vertex 1.99043 -2.4375e-16 0.00744302
      vertex 8.20634 0 -1.77494
    endloop
  endfacet
  facet normal 0 -0.485347 -0.874322
    outer loop
      vertex 1.99043 -4.875e-16 0.00744302
      vertex 1.99043 -2.4375e-16 0.00744302
      vertex 1.99043 0 0.00744302
    endloop
  endfacet
  facet normal 0.238709 -0.5 0.832477
    outer loop
      vertex 8.20634 0 -1.77494
      vertex 8.20634 1.08253 -1.12475
      vertex 2.16271 1.08253 0.608232
    endloop
  endfacet
  facet normal 0.238709 -0.5 0.832477
    outer loop
      vertex 1.99043 0 0.00744302
      vertex 8.20634 0 -1.77494
      vertex 2.16271 1.08253 0.608232
    endloop
  endfacet
  facet normal 0 -1 0
    outer loop
      vertex 8.20634 1.08253 -1.12475
      vertex 8.20634 1.08253 0.175622
      vertex 2.50725 1.08253 1.80981
    endloop
  endfacet
  facet normal -0 -1 0
    outer loop
      vertex 2.16271 1.08253 0.608232
      vertex 8.20634 1.08253 -1.12475
      vertex 2.50725 1.08253 1.80981
    endloop
  endfacet
  facet normal -0.238709 -0.5 -0.832477
    outer loop
      vertex 8.20634 0 0.825809
      vertex 2.67953 0 2.4106
      vertex 8.20634 1.08253 0.175622
    endloop
  endfacet
  facet normal -0.238709 -0.5 -0.832477
    outer loop
      vertex 8.20634 1.08253 0.175622
      vertex 2.67953 0 2.4106
      vertex 2.50725 1.08253 1.80981
    endloop
  endfacet
  facet normal -5.21396e-17 1.0044e-16 -1.81832e-16
    outer loop
      vertex 8.20634 0 0.825809
      vertex 8.20634 -1.00495e-15 0.825809
      vertex 2.67953 0 2.4106
    endloop
  endfacet
  facet normal -1.70246e-17 0 -5.93718e-17
    outer loop
      vertex 2.67953 0 2.4106
      vertex 8.20634 -1.00495e-15 0.825809
      vertex 2.67953 -3.28137e-16 2.4106
    endloop
  endfacet
  facet normal 0 0 0
    outer loop
      vertex 2.67953 0 2.4106
      vertex 2.67953 -3.28137e-16 2.4106
      vertex 2.67953 -6.56273e-16 2.4106
    endloop
  endfacet
  facet normal -5.21396e-17 -1.0044e-16 -1.81832e-16
    outer loop
      vertex 8.20634 -2.00991e-15 0.825809
      vertex 2.67953 -6.56273e-16 2.4106
      vertex 8.20634 -1.00495e-15 0.825809
    endloop
  endfacet
  facet normal -1.70246e-17 0 -5.93718e-17
    outer loop
      vertex 8.20634 -1.00495e-15 0.825809
      vertex 2.67953 -6.56273e-16 2.4106
      vertex 2.67953 -3.28137e-16 2.4106
    endloop
  endfacet
  facet normal -0.238709 0.5 -0.832477
    outer loop
      vertex 8.20634 -2.00991e-15 0.825809
      vertex 8.20634 -1.08253 0.175622
      vertex 2.67953 -6.56273e-16 2.4106
    endloop
  endfacet
  facet normal -0.238709 0.5 -0.832477
    outer loop
      vertex 2.67953 -6.56273e-16 2.4106
      vertex 8.20634 -1.08253 0.175622
      vertex 2.50725 -1.08253 1.80981
    endloop
  endfacet
  facet normal 0.401763 -0.381534 -0.832477
    outer loop
      vertex 2.5359 7.80469 0.825809
      vertex 0.828019 2.54838 2.4106
      vertex 1.50635 8.13921 0.175622
    endloop
  endfacet
  facet normal 0.401763 -0.381534 -0.832477
    outer loop
      vertex 1.50635 8.13921 0.175622
      vertex 0.828019 2.54838 2.4106
      vertex -0.254765 2.71906 1.80981
    endloop
  endfacet
  facet normal 0.951057 -0.309017 0
    outer loop
      vertex 1.50635 8.13921 -1.12475
      vertex 1.50635 8.13921 0.175622
      vertex -0.254765 2.71906 1.80981
    endloop
  endfacet
  facet normal 0.951057 -0.309017 -2.91697e-17
    outer loop
      vertex -0.361236 2.39138 0.608232
      vertex 1.50635 8.13921 -1.12475
      vertex -0.254765 2.71906 1.80981
    endloop
  endfacet
  facet normal -0.549293 -0.0725172 -0.832477
    outer loop
      vertex 3.56545 7.47017 0.175622
      vertex 1.80433 2.05002 1.80981
      vertex 2.5359 7.80469 0.825809
    endloop
  endfacet
  facet normal -0.549293 -0.0725172 -0.832477
    outer loop
      vertex 2.5359 7.80469 0.825809
      vertex 1.80433 2.05002 1.80981
      vertex 0.828019 2.54838 2.4106
    endloop
  endfacet
  facet normal -0.951057 0.309017 0
    outer loop
      vertex 3.56545 7.47017 0.175622
      vertex 3.56545 7.47017 -1.12475
      vertex 1.80433 2.05002 1.80981
    endloop
  endfacet
  facet normal -0.951057 0.309017 0
    outer loop
      vertex 1.80433 2.05002 1.80981
      vertex 3.56545 7.47017 -1.12475
      vertex 1.69786 1.72234 0.608232
    endloop
  endfacet
  facet normal -0.401763 0.381534 0.832477
    outer loop
      vertex 1.69786 1.72234 0.608232
      vertex 3.56545 7.47017 -1.12475
      vertex 2.5359 7.80469 -1.77494
    endloop
  endfacet
  facet normal -0.401763 0.381534 0.832477
    outer loop
      vertex 0.615078 1.89301 0.00744302
      vertex 1.69786 1.72234 0.608232
      vertex 2.5359 7.80469 -1.77494
    endloop
  endfacet
  facet normal 0.549293 0.0725172 0.832477
    outer loop
      vertex 0.615078 1.89301 0.00744302
      vertex 2.5359 7.80469 -1.77494
      vertex 1.50635 8.13921 -1.12475
    endloop
  endfacet
  facet normal 0.549293 0.0725172 0.832477
    outer loop
      vertex -0.361236 2.39138 0.608232
      vertex 0.615078 1.89301 0.00744302
      vertex 1.50635 8.13921 -1.12475
    endloop
  endfacet
  facet normal -0.100773 -0.544818 -0.832477
    outer loop
      vertex -1.39211 2.34951 1.80981
      vertex -2.16778 1.57499 2.4106
      vertex -6.00277 5.69935 0.175622
    endloop
  endfacet
  facet normal -0.100773 -0.544818 -0.832477
    outer loop
      vertex -6.00277 5.69935 0.175622
      vertex -2.16778 1.57499 2.4106
      vertex -6.63907 4.82357 0.825809
    endloop
  endfacet
  facet normal -0.587785 -0.809017 -6.71505e-17
    outer loop
      vertex -1.11337 2.14699 0.608232
      vertex -1.39211 2.34951 1.80981
      vertex -6.00277 5.69935 0.175622
    endloop
  endfacet
  facet normal -0.587785 -0.809017 -0
    outer loop
      vertex -6.00277 5.69935 -1.12475
      vertex -1.11337 2.14699 0.608232
      vertex -6.00277 5.69935 0.175622
    endloop
  endfacet
  facet normal -0.487012 -0.264199 0.832477
    outer loop
      vertex -1.61029 1.16995 0.00744302
      vertex -1.11337 2.14699 0.608232
      vertex -6.00277 5.69935 -1.12475
    endloop
  endfacet
  facet normal -0.487012 -0.264199 0.832477
    outer loop
      vertex -6.63907 4.82357 -1.77494
      vertex -1.61029 1.16995 0.00744302
      vertex -6.00277 5.69935 -1.12475
    endloop
  endfacet
  facet normal -0.777677 0.565015 -0.275637
    outer loop
      vertex -1.39211 2.34951 1.80981
      vertex -1.11337 2.14699 0.608232
      vertex -2.16778 1.57499 2.4106
    endloop
  endfacet
  facet normal -0.777677 0.565015 -0.275637
    outer loop
      vertex -2.16778 1.57499 2.4106
      vertex -1.11337 2.14699 0.608232
      vertex -1.61029 1.16995 0.00744302
    endloop
  endfacet
  facet normal -0.777677 0.565015 -0.275637
    outer loop
      vertex -2.16778 1.57499 2.4106
      vertex -1.61029 1.16995 0.00744302
      vertex -2.38596 0.395421 0.608232
    endloop
  endfacet
  facet normal -0.777677 0.565015 -0.275637
    outer loop
      vertex -2.16778 1.57499 2.4106
      vertex -2.38596 0.395421 0.608232
      vertex -2.66471 0.59794 1.80981
    endloop
  endfacet
  facet normal 0 -0 1
    outer loop
      vertex -2.57048 0.935578 3.61587
      vertex -2.57048 -0.935578 3.61587
      vertex -1.36772 -2.36897 3.61587
    endloop
  endfacet
  facet normal -0 0 1
    outer loop
      vertex 2.09547 -1.75831 3.61587
      vertex -2.57048 0.935578 3.61587
      vertex 0.475005 -2.69389 3.61587
    endloop
  endfacet
  facet normal 0 0 1
    outer loop
      vertex 0.475005 -2.69389 3.61587
      vertex -2.57048 0.935578 3.61587
      vertex -1.36772 -2.36897 3.61587
    endloop
  endfacet
  facet normal -0 0 1
    outer loop
      vertex 2.73545 0 3.61587
      vertex -2.57048 0.935578 3.61587
      vertex 2.09547 -1.75831 3.61587
    endloop
  endfacet
  facet normal 0 -0 1
    outer loop
      vertex 2.09547 1.75831 3.61587
      vertex -2.57048 0.935578 3.61587
      vertex 2.73545 0 3.61587
    endloop
  endfacet
  facet normal 0 -0 1
    outer loop
      vertex 0.475005 2.69389 3.61587
      vertex -2.57048 0.935578 3.61587
      vertex 2.09547 1.75831 3.61587
    endloop
  endfacet
  facet normal 0 -0 1
    outer loop
      vertex -1.36772 2.36897 3.61587
      vertex -2.57048 0.935578 3.61587
      vertex 0.475005 2.69389 3.61587
    endloop
  endfacet
  facet normal 0.297046 -0.914214 -0.275637
    outer loop
      vertex 0.615078 -1.89301 0.00744302
      vertex 1.69786 -1.72234 0.608232
      vertex 1.80433 -2.05002 1.80981
    endloop
  endfacet
  facet normal 0.297046 -0.914214 -0.275637
    outer loop
      vertex -0.254765 -2.71906 1.80981
      vertex 0.615078 -1.89301 0.00744302
      vertex 0.828019 -2.54838 2.4106
    endloop
  endfacet
  facet normal 0.297046 -0.914214 -0.275637
    outer loop
      vertex 0.828019 -2.54838 2.4106
      vertex 0.615078 -1.89301 0.00744302
      vertex 1.80433 -2.05002 1.80981
    endloop
  endfacet
  facet normal 0.297046 -0.914214 -0.275637
    outer loop
      vertex -0.361236 -2.39138 0.608232
      vertex 0.615078 -1.89301 0.00744302
      vertex -0.254765 -2.71906 1.80981
    endloop
  endfacet
  facet normal 0.961262 -8.32905e-17 -0.275637
    outer loop
      vertex 2.50725 -1.08253 1.80981
      vertex 1.99043 -4.875e-16 0.00744302
      vertex 2.67953 -6.56273e-16 2.4106
    endloop
  endfacet
  facet normal 2.86939e-20 -9.3945e-17 -1.69283e-16
    outer loop
      vertex 1.99043 -2.4375e-16 0.00744302
      vertex 1.99043 -4.875e-16 0.00744302
      vertex 2.16271 -1.08253 0.608232
    endloop
  endfacet
  facet normal 0.961262 -7.99589e-16 -0.275637
    outer loop
      vertex 2.50725 -1.08253 1.80981
      vertex 2.16271 -1.08253 0.608232
      vertex 1.99043 -4.875e-16 0.00744302
    endloop
  endfacet
  facet normal 2.22045e-16 1.38778e-17 -2.77556e-17
    outer loop
      vertex 2.16271 -1.08253 0.608232
      vertex 1.99043 -4.875e-16 0.00744302
      vertex 1.99043 -2.4375e-16 0.00744302
    endloop
  endfacet
  facet normal 0.961262 0 -0.275637
    outer loop
      vertex 2.16271 1.08253 0.608232
      vertex 2.50725 1.08253 1.80981
      vertex 2.67953 0 2.4106
    endloop
  endfacet
  facet normal 0.961262 8.88432e-17 -0.275637
    outer loop
      vertex 1.99043 -4.875e-16 0.00744302
      vertex 2.16271 1.08253 0.608232
      vertex 2.67953 -6.56273e-16 2.4106
    endloop
  endfacet
  facet normal 3.64118e-16 0 -1.04409e-16
    outer loop
      vertex 2.67953 -6.56273e-16 2.4106
      vertex 2.16271 1.08253 0.608232
      vertex 2.67953 0 2.4106
    endloop
  endfacet
  facet normal 4.99913e-16 7.40538e-17 -2.76782e-16
    outer loop
      vertex 1.99043 0 0.00744302
      vertex 2.16271 1.08253 0.608232
      vertex 1.99043 -4.875e-16 0.00744302
    endloop
  endfacet
  facet normal 0.297046 0.914214 -0.275637
    outer loop
      vertex 0.828019 2.54838 2.4106
      vertex 1.80433 2.05002 1.80981
      vertex -0.254765 2.71906 1.80981
    endloop
  endfacet
  facet normal 0.297046 0.914214 -0.275637
    outer loop
      vertex -0.254765 2.71906 1.80981
      vertex 1.80433 2.05002 1.80981
      vertex 1.69786 1.72234 0.608232
    endloop
  endfacet
  facet normal 0.297046 0.914214 -0.275637
    outer loop
      vertex -0.254765 2.71906 1.80981
      vertex 1.69786 1.72234 0.608232
      vertex 0.615078 1.89301 0.00744302
    endloop
  endfacet
  facet normal 0.297046 0.914214 -0.275637
    outer loop
      vertex -0.254765 2.71906 1.80981
      vertex 0.615078 1.89301 0.00744302
      vertex -0.361236 2.39138 0.608232
    endloop
  endfacet
endsolid OpenSCAD_Model
