solid OpenSCAD_Model
  facet normal -1 5.71791e-16 0
    outer loop
      vertex -11.4441 -6.21331 -4.16188
      vertex -11.4441 -6.21331 4.16188
      vertex -11.4441 6.21331 -4.16188
    endloop
  endfacet
  facet normal -1 5.71791e-16 0
    outer loop
      vertex -11.4441 6.21331 -4.16188
      vertex -11.4441 -6.21331 4.16188
      vertex -11.4441 6.21331 4.16188
    endloop
  endfacet
  facet normal -0.809017 -0.587785 4.30156e-16
    outer loop
      vertex -11.4441 -6.21331 -4.16188
      vertex -10.4449 -7.58864 -4.16188
      vertex -11.3102 -6.39757 -1.87087
    endloop
  endfacet
  facet normal -0.809017 -0.587785 -0
    outer loop
      vertex -11.4441 -6.21331 -4.16188
      vertex -11.3102 -6.39757 -1.87087
      vertex -11.4441 -6.21331 4.16188
    endloop
  endfacet
  facet normal -0.809017 -0.587785 -2.20221e-16
    outer loop
      vertex -10.4449 -7.58864 0.78189
      vertex -11.4441 -6.21331 4.16188
      vertex -11.3102 -6.39757 -0.102365
    endloop
  endfacet
  facet normal -0.809017 -0.587785 -0
    outer loop
      vertex -11.3102 -6.39757 -1.87087
      vertex -11.3102 -6.39757 -0.102365
      vertex -11.4441 -6.21331 4.16188
    endloop
  endfacet
  facet normal -0.809017 -0.587785 0
    outer loop
      vertex -11.4441 -6.21331 4.16188
      vertex -10.4449 -7.58864 0.78189
      vertex -10.4449 -7.58864 4.16188
    endloop
  endfacet
  facet normal -0.809017 -0.587785 0
    outer loop
      vertex -11.3102 -6.39757 -1.87087
      vertex -10.4449 -7.58864 -4.16188
      vertex -10.4449 -7.58864 -2.75513
    endloop
  endfacet
  facet normal -0 0 -1
    outer loop
      vertex -11.4441 -6.21331 -4.16188
      vertex -11.4441 6.21331 -4.16188
      vertex -10.4449 -7.58864 -4.16188
    endloop
  endfacet
  facet normal 0 0 -1
    outer loop
      vertex -10.4449 -7.58864 -4.16188
      vertex -11.4441 6.21331 -4.16188
      vertex -10.4449 7.58864 -4.16188
    endloop
  endfacet
  facet normal 0 -0 -1
    outer loop
      vertex -10.4449 -7.58864 -4.16188
      vertex -10.4449 7.58864 -4.16188
      vertex -9.44563 8.96397 -4.16188
    endloop
  endfacet
  facet normal 0 0 -1
    outer loop
      vertex -10.4449 -7.58864 -4.16188
      vertex -9.44563 8.96397 -4.16188
      vertex 2.37279 12.804 -4.16188
    endloop
  endfacet
  facet normal 0 0 -1
    outer loop
      vertex -10.4449 -7.58864 -4.16188
      vertex 2.37279 12.804 -4.16188
      vertex 5.60638 11.7533 -4.16188
    endloop
  endfacet
  facet normal 0 0 -1
    outer loop
      vertex -10.4449 -7.58864 -4.16188
      vertex 5.60638 11.7533 -4.16188
      vertex 12.9106 1.7 -4.16188
    endloop
  endfacet
  facet normal 0 0 -1
    outer loop
      vertex -10.4449 -7.58864 -4.16188
      vertex 12.9106 1.7 -4.16188
      vertex 12.9106 -1.7 -4.16188
    endloop
  endfacet
  facet normal -0 0 -1
    outer loop
      vertex -10.4449 -7.58864 -4.16188
      vertex 12.9106 -1.7 -4.16188
      vertex 5.60638 -11.7533 -4.16188
    endloop
  endfacet
  facet normal 0 0 -1
    outer loop
      vertex -10.4449 -7.58864 -4.16188
      vertex 5.60638 -11.7533 -4.16188
      vertex 2.37279 -12.804 -4.16188
    endloop
  endfacet
  facet normal 0 0 -1
    outer loop
      vertex -10.4449 -7.58864 -4.16188
      vertex 2.37279 -12.804 -4.16188
      vertex -9.44563 -8.96397 -4.16188
    endloop
  endfacet
  facet normal -0.809017 0.587785 0
    outer loop
      vertex -10.4449 7.58864 -2.75513
      vertex -10.4449 7.58864 -4.16188
      vertex -11.3102 6.39757 -1.87087
    endloop
  endfacet
  facet normal -0.809017 0.587785 0
    outer loop
      vertex -10.4449 7.58864 0.78189
      vertex -11.4441 6.21331 4.16188
      vertex -10.4449 7.58864 4.16188
    endloop
  endfacet
  facet normal -0.809017 0.587785 0
    outer loop
      vertex -11.4441 6.21331 -4.16188
      vertex -11.4441 6.21331 4.16188
      vertex -11.3102 6.39757 -0.102365
    endloop
  endfacet
  facet normal -0.809017 0.587785 0
    outer loop
      vertex -11.4441 6.21331 -4.16188
      vertex -11.3102 6.39757 -0.102365
      vertex -11.3102 6.39757 -1.87087
    endloop
  endfacet
  facet normal -0.809017 0.587785 -1.58971e-16
    outer loop
      vertex -11.4441 6.21331 -4.16188
      vertex -11.3102 6.39757 -1.87087
      vertex -10.4449 7.58864 -4.16188
    endloop
  endfacet
  facet normal -0.809017 0.587785 9.73666e-17
    outer loop
      vertex -11.3102 6.39757 -0.102365
      vertex -11.4441 6.21331 4.16188
      vertex -10.4449 7.58864 0.78189
    endloop
  endfacet
  facet normal 0 -0 1
    outer loop
      vertex -11.4441 6.21331 4.16188
      vertex -11.4441 -6.21331 4.16188
      vertex -10.4449 -7.58864 4.16188
    endloop
  endfacet
  facet normal 0 0 1
    outer loop
      vertex 2.37279 -12.804 4.16188
      vertex -11.4441 6.21331 4.16188
      vertex -9.44563 -8.96397 4.16188
    endloop
  endfacet
  facet normal 0 0 1
    outer loop
      vertex -9.44563 -8.96397 4.16188
      vertex -11.4441 6.21331 4.16188
      vertex -10.4449 -7.58864 4.16188
    endloop
  endfacet
  facet normal -0 -0 1
    outer loop
      vertex -3.87734 -1.86723 4.16188
      vertex -11.4441 6.21331 4.16188
      vertex 2.37279 -12.804 4.16188
    endloop
  endfacet
  facet normal 0 0 1
    outer loop
      vertex -0.957624 4.19562 4.16188
      vertex 0.957624 4.19562 4.16188
      vertex -11.4441 6.21331 4.16188
    endloop
  endfacet
  facet normal 0 -0 1
    outer loop
      vertex 2.37279 12.804 4.16188
      vertex -11.4441 6.21331 4.16188
      vertex 5.60638 11.7533 4.16188
    endloop
  endfacet
  facet normal 0 -0 1
    outer loop
      vertex -9.44563 8.96397 4.16188
      vertex -11.4441 6.21331 4.16188
      vertex 2.37279 12.804 4.16188
    endloop
  endfacet
  facet normal 0 -0 7.56726e-07
    outer loop
      vertex -10.4449 7.58864 4.16188
      vertex -11.4441 6.21331 4.16188
      vertex -9.44563 8.96397 4.16188
    endloop
  endfacet
  facet normal -0 -0 1
    outer loop
      vertex -2.6832 -3.36463 4.16188
      vertex -3.87734 -1.86723 4.16188
      vertex 2.37279 -12.804 4.16188
    endloop
  endfacet
  facet normal 0 0 1
    outer loop
      vertex -2.6832 3.36463 4.16188
      vertex -0.957624 4.19562 4.16188
      vertex -11.4441 6.21331 4.16188
    endloop
  endfacet
  facet normal -0 -0 1
    outer loop
      vertex -0.957624 -4.19562 4.16188
      vertex -2.6832 -3.36463 4.16188
      vertex 5.60638 -11.7533 4.16188
    endloop
  endfacet
  facet normal -0 0 1
    outer loop
      vertex -3.87734 1.86723 4.16188
      vertex -11.4441 6.21331 4.16188
      vertex -4.30352 0 4.16188
    endloop
  endfacet
  facet normal -0 0 1
    outer loop
      vertex -2.6832 3.36463 4.16188
      vertex -11.4441 6.21331 4.16188
      vertex -3.87734 1.86723 4.16188
    endloop
  endfacet
  facet normal 0 -0 1
    outer loop
      vertex 4.30352 0 4.16188
      vertex 3.87734 -1.86723 4.16188
      vertex 12.9106 -1.7 4.16188
    endloop
  endfacet
  facet normal 0 0 1
    outer loop
      vertex 3.87734 1.86723 4.16188
      vertex 4.30352 0 4.16188
      vertex 12.9106 -1.7 4.16188
    endloop
  endfacet
  facet normal 0 0 1
    outer loop
      vertex 0.957624 4.19562 4.16188
      vertex 2.6832 3.36463 4.16188
      vertex 12.9106 1.7 4.16188
    endloop
  endfacet
  facet normal 0 -0 1
    outer loop
      vertex 5.60638 11.7533 4.16188
      vertex 0.957624 4.19562 4.16188
      vertex 12.9106 1.7 4.16188
    endloop
  endfacet
  facet normal 0 0 1
    outer loop
      vertex 5.60638 11.7533 4.16188
      vertex -11.4441 6.21331 4.16188
      vertex 0.957624 4.19562 4.16188
    endloop
  endfacet
  facet normal -0 0 1
    outer loop
      vertex 12.9106 1.7 4.16188
      vertex 2.6832 3.36463 4.16188
      vertex 12.9106 -1.7 4.16188
    endloop
  endfacet
  facet normal 0 0 1
    outer loop
      vertex 2.6832 3.36463 4.16188
      vertex 3.87734 1.86723 4.16188
      vertex 12.9106 -1.7 4.16188
    endloop
  endfacet
  facet normal 0 -0 1
    outer loop
      vertex 0.957624 -4.19562 4.16188
      vertex -0.957624 -4.19562 4.16188
      vertex 5.60638 -11.7533 4.16188
    endloop
  endfacet
  facet normal 0 0 1
    outer loop
      vertex 12.9106 -1.7 4.16188
      vertex 3.87734 -1.86723 4.16188
      vertex 5.60638 -11.7533 4.16188
    endloop
  endfacet
  facet normal 0 -0 1
    outer loop
      vertex 3.87734 -1.86723 4.16188
      vertex 2.6832 -3.36463 4.16188
      vertex 5.60638 -11.7533 4.16188
    endloop
  endfacet
  facet normal 0 -0 1
    outer loop
      vertex 2.6832 -3.36463 4.16188
      vertex 0.957624 -4.19562 4.16188
      vertex 5.60638 -11.7533 4.16188
    endloop
  endfacet
  facet normal -0 0 1
    outer loop
      vertex 5.60638 -11.7533 4.16188
      vertex -2.6832 -3.36463 4.16188
      vertex 2.37279 -12.804 4.16188
    endloop
  endfacet
  facet normal 0 0 1
    outer loop
      vertex -3.87734 -1.86723 4.16188
      vertex -4.30352 0 4.16188
      vertex -11.4441 6.21331 4.16188
    endloop
  endfacet
  facet normal -0.809017 -0.587785 -0
    outer loop
      vertex -10.4449 -7.58864 -4.16188
      vertex -9.44563 -8.96397 -4.16188
      vertex -10.4449 -7.58864 -2.75513
    endloop
  endfacet
  facet normal -0.809017 -0.587785 0
    outer loop
      vertex -9.5795 -8.77971 -0.102365
      vertex -9.44563 -8.96397 -4.16188
      vertex -9.44563 -8.96397 4.16188
    endloop
  endfacet
  facet normal -0.809017 -0.587785 -0
    outer loop
      vertex -10.4449 -7.58864 0.78189
      vertex -9.44563 -8.96397 4.16188
      vertex -10.4449 -7.58864 4.16188
    endloop
  endfacet
  facet normal -0.809017 -0.587785 -0
    outer loop
      vertex -9.5795 -8.77971 -1.87087
      vertex -9.44563 -8.96397 -4.16188
      vertex -9.5795 -8.77971 -0.102365
    endloop
  endfacet
  facet normal -0.809017 -0.587785 -3.07343e-16
    outer loop
      vertex -10.4449 -7.58864 -2.75513
      vertex -9.44563 -8.96397 -4.16188
      vertex -9.5795 -8.77971 -1.87087
    endloop
  endfacet
  facet normal -0.809017 -0.587785 1.99601e-16
    outer loop
      vertex -9.5795 -8.77971 -0.102365
      vertex -9.44563 -8.96397 4.16188
      vertex -10.4449 -7.58864 0.78189
    endloop
  endfacet
  facet normal 0.487012 -0.264199 -0.832477
    outer loop
      vertex -2.96573 -2.15473 3.43277
      vertex -10.4449 -7.58864 0.78189
      vertex -3.64155 -0.82595 2.6157
    endloop
  endfacet
  facet normal 0.487012 -0.264199 -0.832477
    outer loop
      vertex -3.64155 -0.82595 2.6157
      vertex -10.4449 -7.58864 0.78189
      vertex -11.3102 -6.39757 -0.102365
    endloop
  endfacet
  facet normal 0.587785 -0.809017 2.68084e-17
    outer loop
      vertex -3.26246 -0.550523 0.981552
      vertex -3.64155 -0.82595 2.6157
      vertex -11.3102 -6.39757 -0.102365
    endloop
  endfacet
  facet normal 0.587785 -0.809017 0
    outer loop
      vertex -11.3102 -6.39757 -1.87087
      vertex -3.26246 -0.550523 0.981552
      vertex -11.3102 -6.39757 -0.102365
    endloop
  endfacet
  facet normal 0.100773 -0.544818 0.832477
    outer loop
      vertex -11.3102 -6.39757 -1.87087
      vertex -10.4449 -7.58864 -2.75513
      vertex -3.26246 -0.550523 0.981552
    endloop
  endfacet
  facet normal 0.100773 -0.544818 0.832477
    outer loop
      vertex -3.26246 -0.550523 0.981552
      vertex -10.4449 -7.58864 -2.75513
      vertex -2.20755 -1.60388 0.16448
    endloop
  endfacet
  facet normal -0.309017 -0.951057 0
    outer loop
      vertex -9.44563 -8.96397 4.16188
      vertex -9.44563 -8.96397 -4.16188
      vertex 2.37279 -12.804 -4.16188
    endloop
  endfacet
  facet normal -0.309017 -0.951057 0
    outer loop
      vertex 2.37279 -12.804 4.16188
      vertex -9.44563 -8.96397 4.16188
      vertex 2.37279 -12.804 -4.16188
    endloop
  endfacet
  facet normal 0.309017 -0.951057 4.7839e-16
    outer loop
      vertex 2.5894 -12.7336 -1.87087
      vertex 2.37279 -12.804 -4.16188
      vertex 5.60638 -11.7533 -4.16188
    endloop
  endfacet
  facet normal 0.309017 -0.951057 1.02216e-15
    outer loop
      vertex 3.98958 -12.2787 -2.75513
      vertex 2.5894 -12.7336 -1.87087
      vertex 5.60638 -11.7533 -4.16188
    endloop
  endfacet
  facet normal 0.309017 -0.951057 0
    outer loop
      vertex 2.37279 -12.804 4.16188
      vertex 2.37279 -12.804 -4.16188
      vertex 2.5894 -12.7336 -1.87087
    endloop
  endfacet
  facet normal 0.309017 -0.951057 0
    outer loop
      vertex 2.37279 -12.804 4.16188
      vertex 2.5894 -12.7336 -1.87087
      vertex 2.5894 -12.7336 -0.102365
    endloop
  endfacet
  facet normal 0.309017 -0.951057 -2.20738e-16
    outer loop
      vertex 5.60638 -11.7533 4.16188
      vertex 2.37279 -12.804 4.16188
      vertex 3.98958 -12.2787 0.78189
    endloop
  endfacet
  facet normal 0.309017 -0.951057 0
    outer loop
      vertex 5.60638 -11.7533 4.16188
      vertex 5.38977 -11.8237 -0.102365
      vertex 5.60638 -11.7533 -4.16188
    endloop
  endfacet
  facet normal 0.309017 -0.951057 -1.29011e-16
    outer loop
      vertex 5.60638 -11.7533 4.16188
      vertex 3.98958 -12.2787 0.78189
      vertex 5.38977 -11.8237 -0.102365
    endloop
  endfacet
  facet normal 0.309017 -0.951057 0
    outer loop
      vertex 5.38977 -11.8237 -0.102365
      vertex 5.38977 -11.8237 -1.87087
      vertex 5.60638 -11.7533 -4.16188
    endloop
  endfacet
  facet normal 0.309017 -0.951057 -2.60456e-16
    outer loop
      vertex 2.5894 -12.7336 -0.102365
      vertex 3.98958 -12.2787 0.78189
      vertex 2.37279 -12.804 4.16188
    endloop
  endfacet
  facet normal 0.309017 -0.951057 2.34357e-16
    outer loop
      vertex 5.38977 -11.8237 -1.87087
      vertex 3.98958 -12.2787 -2.75513
      vertex 5.60638 -11.7533 -4.16188
    endloop
  endfacet
  facet normal 0.809017 -0.587785 0
    outer loop
      vertex 5.60638 -11.7533 4.16188
      vertex 5.60638 -11.7533 -4.16188
      vertex 12.9106 -1.7 -4.16188
    endloop
  endfacet
  facet normal 0.809017 -0.587785 0
    outer loop
      vertex 12.9106 -1.7 4.16188
      vertex 5.60638 -11.7533 4.16188
      vertex 12.9106 -1.7 -4.16188
    endloop
  endfacet
  facet normal 1 0 -0
    outer loop
      vertex 12.9106 -1.47224 -1.87087
      vertex 12.9106 -1.7 -4.16188
      vertex 12.9106 1.7 -4.16188
    endloop
  endfacet
  facet normal 1 -0 -0
    outer loop
      vertex 12.9106 -3.16207e-15 -2.75513
      vertex 12.9106 -1.47224 -1.87087
      vertex 12.9106 1.7 -4.16188
    endloop
  endfacet
  facet normal 1 0 -0
    outer loop
      vertex 12.9106 -1.7 4.16188
      vertex 12.9106 -1.7 -4.16188
      vertex 12.9106 -1.47224 -1.87087
    endloop
  endfacet
  facet normal 1 0 0
    outer loop
      vertex 12.9106 -1.7 4.16188
      vertex 12.9106 -1.47224 -1.87087
      vertex 12.9106 -1.47224 -0.102365
    endloop
  endfacet
  facet normal 1 0 0
    outer loop
      vertex 12.9106 1.7 4.16188
      vertex 12.9106 -1.7 4.16188
      vertex 12.9106 -3.16207e-15 0.78189
    endloop
  endfacet
  facet normal 6.66134e-16 0 0
    outer loop
      vertex 12.9106 1.7 4.16188
      vertex 12.9106 -3.16207e-15 0.78189
      vertex 12.9106 -1.58104e-15 0.78189
    endloop
  endfacet
  facet normal 3.33067e-16 0 0
    outer loop
      vertex 12.9106 1.7 4.16188
      vertex 12.9106 -1.58104e-15 0.78189
      vertex 12.9106 0 0.78189
    endloop
  endfacet
  facet normal 1 0 0
    outer loop
      vertex 12.9106 1.7 4.16188
      vertex 12.9106 1.47224 -0.102365
      vertex 12.9106 1.7 -4.16188
    endloop
  endfacet
  facet normal 1 0 0
    outer loop
      vertex 12.9106 1.7 4.16188
      vertex 12.9106 0 0.78189
      vertex 12.9106 1.47224 -0.102365
    endloop
  endfacet
  facet normal 1 0 -0
    outer loop
      vertex 12.9106 1.47224 -0.102365
      vertex 12.9106 1.47224 -1.87087
      vertex 12.9106 1.7 -4.16188
    endloop
  endfacet
  facet normal 1.53919e-15 0 -0
    outer loop
      vertex 12.9106 0 -2.75513
      vertex 12.9106 -3.16207e-15 -2.75513
      vertex 12.9106 1.7 -4.16188
    endloop
  endfacet
  facet normal 1 0 -0
    outer loop
      vertex 12.9106 -1.58104e-15 -2.75513
      vertex 12.9106 -3.16207e-15 -2.75513
      vertex 12.9106 0 -2.75513
    endloop
  endfacet
  facet normal 1 0 0
    outer loop
      vertex 12.9106 -1.47224 -0.102365
      vertex 12.9106 -3.16207e-15 0.78189
      vertex 12.9106 -1.7 4.16188
    endloop
  endfacet
  facet normal 1 0 -0
    outer loop
      vertex 12.9106 1.47224 -1.87087
      vertex 12.9106 0 -2.75513
      vertex 12.9106 1.7 -4.16188
    endloop
  endfacet
  facet normal 0.809017 0.587785 0
    outer loop
      vertex 12.9106 1.7 -4.16188
      vertex 5.60638 11.7533 -4.16188
      vertex 5.60638 11.7533 4.16188
    endloop
  endfacet
  facet normal 0.809017 0.587785 -0
    outer loop
      vertex 12.9106 1.7 4.16188
      vertex 12.9106 1.7 -4.16188
      vertex 5.60638 11.7533 4.16188
    endloop
  endfacet
  facet normal 0.309017 0.951057 -4.6362e-16
    outer loop
      vertex 5.38977 11.8237 -1.87087
      vertex 5.60638 11.7533 -4.16188
      vertex 3.98958 12.2787 -2.75513
    endloop
  endfacet
  facet normal 0.309017 0.951057 2.28446e-16
    outer loop
      vertex 5.38977 11.8237 -0.102365
      vertex 2.37279 12.804 4.16188
      vertex 5.60638 11.7533 4.16188
    endloop
  endfacet
  facet normal 0.309017 0.951057 0
    outer loop
      vertex 2.37279 12.804 -4.16188
      vertex 2.37279 12.804 4.16188
      vertex 2.5894 12.7336 -0.102365
    endloop
  endfacet
  facet normal 0.309017 0.951057 0
    outer loop
      vertex 2.37279 12.804 -4.16188
      vertex 2.5894 12.7336 -0.102365
      vertex 2.5894 12.7336 -1.87087
    endloop
  endfacet
  facet normal 0.309017 0.951057 -2.46832e-16
    outer loop
      vertex 2.37279 12.804 -4.16188
      vertex 2.5894 12.7336 -1.87087
      vertex 5.60638 11.7533 -4.16188
    endloop
  endfacet
  facet normal 0.309017 0.951057 2.2245e-15
    outer loop
      vertex 2.5894 12.7336 -1.87087
      vertex 3.98958 12.2787 -2.75513
      vertex 5.60638 11.7533 -4.16188
    endloop
  endfacet
  facet normal 0.309017 0.951057 0
    outer loop
      vertex 5.60638 11.7533 -4.16188
      vertex 5.38977 11.8237 -1.87087
      vertex 5.60638 11.7533 4.16188
    endloop
  endfacet
  facet normal 0.309017 0.951057 0
    outer loop
      vertex 5.38977 11.8237 -1.87087
      vertex 5.38977 11.8237 -0.102365
      vertex 5.60638 11.7533 4.16188
    endloop
  endfacet
  facet normal 0.309017 0.951057 -5.47817e-16
    outer loop
      vertex 3.98958 12.2787 0.78189
      vertex 2.37279 12.804 4.16188
      vertex 5.38977 11.8237 -0.102365
    endloop
  endfacet
  facet normal 0.309017 0.951057 1.53352e-16
    outer loop
      vertex 2.5894 12.7336 -0.102365
      vertex 2.37279 12.804 4.16188
      vertex 3.98958 12.2787 0.78189
    endloop
  endfacet
  facet normal -0.309017 0.951057 0
    outer loop
      vertex -9.44563 8.96397 -4.16188
      vertex -9.44563 8.96397 4.16188
      vertex 2.37279 12.804 -4.16188
    endloop
  endfacet
  facet normal -0.309017 0.951057 0
    outer loop
      vertex 2.37279 12.804 -4.16188
      vertex -9.44563 8.96397 4.16188
      vertex 2.37279 12.804 4.16188
    endloop
  endfacet
  facet normal -0.809017 0.587785 0
    outer loop
      vertex -10.4449 7.58864 -4.16188
      vertex -10.4449 7.58864 -2.75513
      vertex -9.44563 8.96397 -4.16188
    endloop
  endfacet
  facet normal -0.809017 0.587785 3.97388e-16
    outer loop
      vertex -9.44563 8.96397 -4.16188
      vertex -10.4449 7.58864 -2.75513
      vertex -9.5795 8.77971 -1.87087
    endloop
  endfacet
  facet normal -0.809017 0.587785 0
    outer loop
      vertex -9.5795 8.77971 -1.87087
      vertex -9.5795 8.77971 -0.102365
      vertex -9.44563 8.96397 -4.16188
    endloop
  endfacet
  facet normal -0.809017 0.587785 -1.95881e-16
    outer loop
      vertex -10.4449 7.58864 0.78189
      vertex -10.4449 7.58864 4.16188
      vertex -9.5795 8.77971 -0.102365
    endloop
  endfacet
  facet normal -0.809017 0.587785 -2.13216e-16
    outer loop
      vertex -9.5795 8.77971 -0.102365
      vertex -10.4449 7.58864 4.16188
      vertex -9.44563 8.96397 4.16188
    endloop
  endfacet
  facet normal -0.809017 0.587785 0
    outer loop
      vertex -9.5795 8.77971 -0.102365
      vertex -9.44563 8.96397 4.16188
      vertex -9.44563 8.96397 -4.16188
    endloop
  endfacet
  facet normal 0.100773 0.544818 0.832477
    outer loop
      vertex -3.26246 0.550523 0.981552
      vertex -2.20755 1.60388 0.16448
      vertex -10.4449 7.58864 -2.75513
    endloop
  endfacet
  facet normal 0.100773 0.544818 0.832477
    outer loop
      vertex -11.3102 6.39757 -1.87087
      vertex -3.26246 0.550523 0.981552
      vertex -10.4449 7.58864 -2.75513
    endloop
  endfacet
  facet normal 0.587785 0.809017 -2.43423e-17
    outer loop
      vertex -3.64155 0.82595 2.6157
      vertex -3.26246 0.550523 0.981552
      vertex -11.3102 6.39757 -0.102365
    endloop
  endfacet
  facet normal 0.587785 0.809017 -0
    outer loop
      vertex -11.3102 6.39757 -0.102365
      vertex -3.26246 0.550523 0.981552
      vertex -11.3102 6.39757 -1.87087
    endloop
  endfacet
  facet normal 0.487012 0.264199 -0.832477
    outer loop
      vertex -10.4449 7.58864 0.78189
      vertex -2.96573 2.15473 3.43277
      vertex -3.64155 0.82595 2.6157
    endloop
  endfacet
  facet normal 0.487012 0.264199 -0.832477
    outer loop
      vertex -10.4449 7.58864 0.78189
      vertex -3.64155 0.82595 2.6157
      vertex -11.3102 6.39757 -0.102365
    endloop
  endfacet
  facet normal -0.974928 -0.222521 -0
    outer loop
      vertex -4.30352 0 4.16188
      vertex -3.87734 -1.86723 4.16188
      vertex -4.30352 0 4.66188
    endloop
  endfacet
  facet normal -0.974928 -0.222521 0
    outer loop
      vertex -4.30352 0 4.66188
      vertex -3.87734 -1.86723 4.16188
      vertex -3.87734 -1.86723 4.66188
    endloop
  endfacet
  facet normal -0.781832 -0.62349 -0
    outer loop
      vertex -3.87734 -1.86723 4.16188
      vertex -2.6832 -3.36463 4.16188
      vertex -3.87734 -1.86723 4.66188
    endloop
  endfacet
  facet normal -0.781832 -0.62349 0
    outer loop
      vertex -3.87734 -1.86723 4.66188
      vertex -2.6832 -3.36463 4.16188
      vertex -2.6832 -3.36463 4.66188
    endloop
  endfacet
  facet normal -0.433883 -0.900969 0
    outer loop
      vertex -2.6832 -3.36463 4.66188
      vertex -2.6832 -3.36463 4.16188
      vertex -0.957624 -4.19562 4.16188
    endloop
  endfacet
  facet normal -0.433883 -0.900969 0
    outer loop
      vertex -0.957624 -4.19562 4.66188
      vertex -2.6832 -3.36463 4.66188
      vertex -0.957624 -4.19562 4.16188
    endloop
  endfacet
  facet normal 0 -1 0
    outer loop
      vertex -0.957624 -4.19562 4.66188
      vertex -0.957624 -4.19562 4.16188
      vertex 0.957624 -4.19562 4.16188
    endloop
  endfacet
  facet normal 0 -1 0
    outer loop
      vertex 0.957624 -4.19562 4.66188
      vertex -0.957624 -4.19562 4.66188
      vertex 0.957624 -4.19562 4.16188
    endloop
  endfacet
  facet normal 0.433883 -0.900969 0
    outer loop
      vertex 0.957624 -4.19562 4.66188
      vertex 0.957624 -4.19562 4.16188
      vertex 2.6832 -3.36463 4.16188
    endloop
  endfacet
  facet normal 0.433883 -0.900969 0
    outer loop
      vertex 2.6832 -3.36463 4.66188
      vertex 0.957624 -4.19562 4.66188
      vertex 2.6832 -3.36463 4.16188
    endloop
  endfacet
  facet normal 0.781832 -0.62349 0
    outer loop
      vertex 2.6832 -3.36463 4.66188
      vertex 2.6832 -3.36463 4.16188
      vertex 3.87734 -1.86723 4.16188
    endloop
  endfacet
  facet normal 0.781832 -0.62349 0
    outer loop
      vertex 3.87734 -1.86723 4.66188
      vertex 2.6832 -3.36463 4.66188
      vertex 3.87734 -1.86723 4.16188
    endloop
  endfacet
  facet normal 0.974928 -0.222521 0
    outer loop
      vertex 3.87734 -1.86723 4.66188
      vertex 3.87734 -1.86723 4.16188
      vertex 4.30352 0 4.16188
    endloop
  endfacet
  facet normal 0.974928 -0.222521 0
    outer loop
      vertex 4.30352 0 4.66188
      vertex 3.87734 -1.86723 4.66188
      vertex 4.30352 0 4.16188
    endloop
  endfacet
  facet normal 0.974928 0.222521 0
    outer loop
      vertex 4.30352 0 4.16188
      vertex 3.87734 1.86723 4.16188
      vertex 3.87734 1.86723 4.66188
    endloop
  endfacet
  facet normal 0.974928 0.222521 -0
    outer loop
      vertex 4.30352 0 4.66188
      vertex 4.30352 0 4.16188
      vertex 3.87734 1.86723 4.66188
    endloop
  endfacet
  facet normal 0.781832 0.62349 0
    outer loop
      vertex 3.87734 1.86723 4.16188
      vertex 2.6832 3.36463 4.16188
      vertex 2.6832 3.36463 4.66188
    endloop
  endfacet
  facet normal 0.781832 0.62349 -0
    outer loop
      vertex 3.87734 1.86723 4.66188
      vertex 3.87734 1.86723 4.16188
      vertex 2.6832 3.36463 4.66188
    endloop
  endfacet
  facet normal 0.433883 0.900969 0
    outer loop
      vertex 0.957624 4.19562 4.16188
      vertex 0.957624 4.19562 4.66188
      vertex 2.6832 3.36463 4.16188
    endloop
  endfacet
  facet normal 0.433883 0.900969 0
    outer loop
      vertex 2.6832 3.36463 4.16188
      vertex 0.957624 4.19562 4.66188
      vertex 2.6832 3.36463 4.66188
    endloop
  endfacet
  facet normal 0 1 0
    outer loop
      vertex -0.957624 4.19562 4.16188
      vertex -0.957624 4.19562 4.66188
      vertex 0.957624 4.19562 4.16188
    endloop
  endfacet
  facet normal 0 1 0
    outer loop
      vertex 0.957624 4.19562 4.16188
      vertex -0.957624 4.19562 4.66188
      vertex 0.957624 4.19562 4.66188
    endloop
  endfacet
  facet normal -0.433883 0.900969 0
    outer loop
      vertex -2.6832 3.36463 4.16188
      vertex -2.6832 3.36463 4.66188
      vertex -0.957624 4.19562 4.16188
    endloop
  endfacet
  facet normal -0.433883 0.900969 0
    outer loop
      vertex -0.957624 4.19562 4.16188
      vertex -2.6832 3.36463 4.66188
      vertex -0.957624 4.19562 4.66188
    endloop
  endfacet
  facet normal -0.781832 0.62349 0
    outer loop
      vertex -3.87734 1.86723 4.16188
      vertex -3.87734 1.86723 4.66188
      vertex -2.6832 3.36463 4.16188
    endloop
  endfacet
  facet normal -0.781832 0.62349 0
    outer loop
      vertex -2.6832 3.36463 4.16188
      vertex -3.87734 1.86723 4.66188
      vertex -2.6832 3.36463 4.66188
    endloop
  endfacet
  facet normal -0.974928 0.222521 0
    outer loop
      vertex -4.30352 0 4.16188
      vertex -4.30352 0 4.66188
      vertex -3.87734 1.86723 4.16188
    endloop
  endfacet
  facet normal -0.974928 0.222521 0
    outer loop
      vertex -3.87734 1.86723 4.16188
      vertex -4.30352 0 4.66188
      vertex -3.87734 1.86723 4.66188
    endloop
  endfacet
  facet normal -0.487012 0.264199 0.832477
    outer loop
      vertex -9.5795 -8.77971 -1.87087
      vertex -1.53173 -2.93266 0.981552
      vertex -2.20755 -1.60388 0.16448
    endloop
  endfacet
  facet normal -0.487012 0.264199 0.832477
    outer loop
      vertex -10.4449 -7.58864 -2.75513
      vertex -9.5795 -8.77971 -1.87087
      vertex -2.20755 -1.60388 0.16448
    endloop
  endfacet
  facet normal -0.587785 0.809017 1.21711e-16
    outer loop
      vertex -1.91083 -3.20809 2.6157
      vertex -1.53173 -2.93266 0.981552
      vertex -9.5795 -8.77971 -0.102365
    endloop
  endfacet
  facet normal -0.587785 0.809017 0
    outer loop
      vertex -9.5795 -8.77971 -0.102365
      vertex -1.53173 -2.93266 0.981552
      vertex -9.5795 -8.77971 -1.87087
    endloop
  endfacet
  facet normal -0.100773 0.544818 -0.832477
    outer loop
      vertex -1.91083 -3.20809 2.6157
      vertex -9.5795 -8.77971 -0.102365
      vertex -2.96573 -2.15473 3.43277
    endloop
  endfacet
  facet normal -0.100773 0.544818 -0.832477
    outer loop
      vertex -2.96573 -2.15473 3.43277
      vertex -9.5795 -8.77971 -0.102365
      vertex -10.4449 -7.58864 0.78189
    endloop
  endfacet
  facet normal -0.777677 -0.565015 -0.275637
    outer loop
      vertex -2.20755 -1.60388 0.16448
      vertex -1.53173 -2.93266 0.981552
      vertex -3.26246 -0.550523 0.981552
    endloop
  endfacet
  facet normal -0.777677 -0.565015 -0.275637
    outer loop
      vertex -3.26246 -0.550523 0.981552
      vertex -1.53173 -2.93266 0.981552
      vertex -1.91083 -3.20809 2.6157
    endloop
  endfacet
  facet normal -0.777677 -0.565015 -0.275637
    outer loop
      vertex -3.26246 -0.550523 0.981552
      vertex -1.91083 -3.20809 2.6157
      vertex -2.96573 -2.15473 3.43277
    endloop
  endfacet
  facet normal -0.777677 -0.565015 -0.275637
    outer loop
      vertex -3.26246 -0.550523 0.981552
      vertex -2.96573 -2.15473 3.43277
      vertex -3.64155 -0.82595 2.6157
    endloop
  endfacet
  facet normal 0.951057 0.309017 0
    outer loop
      vertex -0.339776 -3.71855 2.6157
      vertex 2.5894 -12.7336 -0.102365
      vertex 2.5894 -12.7336 -1.87087
    endloop
  endfacet
  facet normal 0.951057 0.309017 6.17805e-17
    outer loop
      vertex -0.484577 -3.2729 0.981552
      vertex -0.339776 -3.71855 2.6157
      vertex 2.5894 -12.7336 -1.87087
    endloop
  endfacet
  facet normal 0.549293 -0.0725172 0.832477
    outer loop
      vertex 2.5894 -12.7336 -1.87087
      vertex 3.98958 -12.2787 -2.75513
      vertex 0.843209 -2.59513 0.16448
    endloop
  endfacet
  facet normal 0.549293 -0.0725172 0.832477
    outer loop
      vertex -0.484577 -3.2729 0.981552
      vertex 2.5894 -12.7336 -1.87087
      vertex 0.843209 -2.59513 0.16448
    endloop
  endfacet
  facet normal -0.401763 -0.381534 0.832477
    outer loop
      vertex 3.98958 -12.2787 -2.75513
      vertex 5.38977 -11.8237 -1.87087
      vertex 2.3158 -2.36301 0.981552
    endloop
  endfacet
  facet normal -0.401763 -0.381534 0.832477
    outer loop
      vertex 0.843209 -2.59513 0.16448
      vertex 3.98958 -12.2787 -2.75513
      vertex 2.3158 -2.36301 0.981552
    endloop
  endfacet
  facet normal -0.951057 -0.309017 0
    outer loop
      vertex 5.38977 -11.8237 -0.102365
      vertex 2.4606 -2.80866 2.6157
      vertex 5.38977 -11.8237 -1.87087
    endloop
  endfacet
  facet normal -0.951057 -0.309017 2.82425e-16
    outer loop
      vertex 5.38977 -11.8237 -1.87087
      vertex 2.4606 -2.80866 2.6157
      vertex 2.3158 -2.36301 0.981552
    endloop
  endfacet
  facet normal -0.549293 0.0725172 -0.832477
    outer loop
      vertex 5.38977 -11.8237 -0.102365
      vertex 3.98958 -12.2787 0.78189
      vertex 2.4606 -2.80866 2.6157
    endloop
  endfacet
  facet normal -0.549293 0.0725172 -0.832477
    outer loop
      vertex 2.4606 -2.80866 2.6157
      vertex 3.98958 -12.2787 0.78189
      vertex 1.13281 -3.48643 3.43277
    endloop
  endfacet
  facet normal 0.401763 0.381534 -0.832477
    outer loop
      vertex 3.98958 -12.2787 0.78189
      vertex 2.5894 -12.7336 -0.102365
      vertex 1.13281 -3.48643 3.43277
    endloop
  endfacet
  facet normal 0.401763 0.381534 -0.832477
    outer loop
      vertex 1.13281 -3.48643 3.43277
      vertex 2.5894 -12.7336 -0.102365
      vertex -0.339776 -3.71855 2.6157
    endloop
  endfacet
  facet normal 0.238709 0.5 0.832477
    outer loop
      vertex 2.96297 -1.47224 0.981552
      vertex 12.9106 -1.47224 -1.87087
      vertex 12.9106 -3.16207e-15 -2.75513
    endloop
  endfacet
  facet normal 0.238709 0.5 0.832477
    outer loop
      vertex 2.72868 -6.68312e-16 0.16448
      vertex 2.96297 -1.47224 0.981552
      vertex 12.9106 -3.16207e-15 -2.75513
    endloop
  endfacet
  facet normal 2.57674e-16 1 -0
    outer loop
      vertex 12.9106 -1.47224 -0.102365
      vertex 12.9106 -1.47224 -1.87087
      vertex 3.43156 -1.47224 2.6157
    endloop
  endfacet
  facet normal 2.26881e-16 1 -6.50571e-17
    outer loop
      vertex 3.43156 -1.47224 2.6157
      vertex 12.9106 -1.47224 -1.87087
      vertex 2.96297 -1.47224 0.981552
    endloop
  endfacet
  facet normal 4.45256e-17 -8.72313e-17 1.55279e-16
    outer loop
      vertex 12.9106 -3.16207e-15 -2.75513
      vertex 12.9106 -1.58104e-15 -2.75513
      vertex 2.72868 -3.34156e-16 0.16448
    endloop
  endfacet
  facet normal 9.41061e-18 -1.90818e-17 3.28187e-17
    outer loop
      vertex 2.72868 -6.68312e-16 0.16448
      vertex 12.9106 -3.16207e-15 -2.75513
      vertex 2.72868 -3.34156e-16 0.16448
    endloop
  endfacet
  facet normal 4.45256e-17 8.72313e-17 1.55279e-16
    outer loop
      vertex 12.9106 0 -2.75513
      vertex 2.72868 -3.34156e-16 0.16448
      vertex 12.9106 -1.58104e-15 -2.75513
    endloop
  endfacet
  facet normal 9.41061e-18 1.90818e-17 3.28187e-17
    outer loop
      vertex 2.72868 0 0.16448
      vertex 2.72868 -3.34156e-16 0.16448
      vertex 12.9106 0 -2.75513
    endloop
  endfacet
  facet normal -1 0 0
    outer loop
      vertex 2.72868 -6.68312e-16 0.16448
      vertex 2.72868 -3.34156e-16 0.16448
      vertex 2.72868 0 0.16448
    endloop
  endfacet
  facet normal 0.238709 -0.5 0.832477
    outer loop
      vertex 12.9106 0 -2.75513
      vertex 12.9106 1.47224 -1.87087
      vertex 2.96297 1.47224 0.981552
    endloop
  endfacet
  facet normal 0.238709 -0.5 0.832477
    outer loop
      vertex 2.72868 0 0.16448
      vertex 12.9106 0 -2.75513
      vertex 2.96297 1.47224 0.981552
    endloop
  endfacet
  facet normal 0 -1 0
    outer loop
      vertex 12.9106 1.47224 -1.87087
      vertex 12.9106 1.47224 -0.102365
      vertex 3.43156 1.47224 2.6157
    endloop
  endfacet
  facet normal -0 -1 0
    outer loop
      vertex 2.96297 1.47224 0.981552
      vertex 12.9106 1.47224 -1.87087
      vertex 3.43156 1.47224 2.6157
    endloop
  endfacet
  facet normal -0.238709 -0.5 -0.832477
    outer loop
      vertex 12.9106 0 0.78189
      vertex 3.66585 0 3.43277
      vertex 12.9106 1.47224 -0.102365
    endloop
  endfacet
  facet normal -0.238709 -0.5 -0.832477
    outer loop
      vertex 12.9106 1.47224 -0.102365
      vertex 3.66585 0 3.43277
      vertex 3.43156 1.47224 2.6157
    endloop
  endfacet
  facet normal -4.90393e-17 1.08083e-16 -1.71021e-16
    outer loop
      vertex 12.9106 0 0.78189
      vertex 12.9106 -1.58104e-15 0.78189
      vertex 3.66585 0 3.43277
    endloop
  endfacet
  facet normal -1.39243e-17 0 -4.85599e-17
    outer loop
      vertex 3.66585 0 3.43277
      vertex 12.9106 -1.58104e-15 0.78189
      vertex 3.66585 -4.48922e-16 3.43277
    endloop
  endfacet
  facet normal 1 0 0
    outer loop
      vertex 3.66585 0 3.43277
      vertex 3.66585 -4.48922e-16 3.43277
      vertex 3.66585 -8.97845e-16 3.43277
    endloop
  endfacet
  facet normal -4.90393e-17 -1.08083e-16 -1.71021e-16
    outer loop
      vertex 12.9106 -3.16207e-15 0.78189
      vertex 3.66585 -8.97845e-16 3.43277
      vertex 12.9106 -1.58104e-15 0.78189
    endloop
  endfacet
  facet normal -1.39243e-17 0 -4.85599e-17
    outer loop
      vertex 12.9106 -1.58104e-15 0.78189
      vertex 3.66585 -8.97845e-16 3.43277
      vertex 3.66585 -4.48922e-16 3.43277
    endloop
  endfacet
  facet normal -0.238709 0.5 -0.832477
    outer loop
      vertex 12.9106 -3.16207e-15 0.78189
      vertex 12.9106 -1.47224 -0.102365
      vertex 3.66585 -8.97845e-16 3.43277
    endloop
  endfacet
  facet normal -0.238709 0.5 -0.832477
    outer loop
      vertex 3.66585 -8.97845e-16 3.43277
      vertex 12.9106 -1.47224 -0.102365
      vertex 3.43156 -1.47224 2.6157
    endloop
  endfacet
  facet normal 0.951057 -0.309017 0
    outer loop
      vertex 2.5894 12.7336 -1.87087
      vertex 2.5894 12.7336 -0.102365
      vertex -0.339776 3.71855 2.6157
    endloop
  endfacet
  facet normal 0.951057 -0.309017 8.82579e-18
    outer loop
      vertex -0.484577 3.2729 0.981552
      vertex 2.5894 12.7336 -1.87087
      vertex -0.339776 3.71855 2.6157
    endloop
  endfacet
  facet normal 0.401763 -0.381534 -0.832477
    outer loop
      vertex 3.98958 12.2787 0.78189
      vertex 1.13281 3.48643 3.43277
      vertex 2.5894 12.7336 -0.102365
    endloop
  endfacet
  facet normal 0.401763 -0.381534 -0.832477
    outer loop
      vertex 2.5894 12.7336 -0.102365
      vertex 1.13281 3.48643 3.43277
      vertex -0.339776 3.71855 2.6157
    endloop
  endfacet
  facet normal -0.549293 -0.0725172 -0.832477
    outer loop
      vertex 5.38977 11.8237 -0.102365
      vertex 2.4606 2.80866 2.6157
      vertex 3.98958 12.2787 0.78189
    endloop
  endfacet
  facet normal -0.549293 -0.0725172 -0.832477
    outer loop
      vertex 3.98958 12.2787 0.78189
      vertex 2.4606 2.80866 2.6157
      vertex 1.13281 3.48643 3.43277
    endloop
  endfacet
  facet normal -0.951057 0.309017 0
    outer loop
      vertex 5.38977 11.8237 -0.102365
      vertex 5.38977 11.8237 -1.87087
      vertex 2.4606 2.80866 2.6157
    endloop
  endfacet
  facet normal -0.951057 0.309017 -1.4425e-16
    outer loop
      vertex 2.4606 2.80866 2.6157
      vertex 5.38977 11.8237 -1.87087
      vertex 2.3158 2.36301 0.981552
    endloop
  endfacet
  facet normal -0.401763 0.381534 0.832477
    outer loop
      vertex 2.3158 2.36301 0.981552
      vertex 5.38977 11.8237 -1.87087
      vertex 3.98958 12.2787 -2.75513
    endloop
  endfacet
  facet normal -0.401763 0.381534 0.832477
    outer loop
      vertex 0.843209 2.59513 0.16448
      vertex 2.3158 2.36301 0.981552
      vertex 3.98958 12.2787 -2.75513
    endloop
  endfacet
  facet normal 0.549293 0.0725172 0.832477
    outer loop
      vertex 0.843209 2.59513 0.16448
      vertex 3.98958 12.2787 -2.75513
      vertex 2.5894 12.7336 -1.87087
    endloop
  endfacet
  facet normal 0.549293 0.0725172 0.832477
    outer loop
      vertex -0.484577 3.2729 0.981552
      vertex 0.843209 2.59513 0.16448
      vertex 2.5894 12.7336 -1.87087
    endloop
  endfacet
  facet normal -0.100773 -0.544818 -0.832477
    outer loop
      vertex -1.91083 3.20809 2.6157
      vertex -2.96573 2.15473 3.43277
      vertex -9.5795 8.77971 -0.102365
    endloop
  endfacet
  facet normal -0.100773 -0.544818 -0.832477
    outer loop
      vertex -9.5795 8.77971 -0.102365
      vertex -2.96573 2.15473 3.43277
      vertex -10.4449 7.58864 0.78189
    endloop
  endfacet
  facet normal -0.587785 -0.809017 -8.04253e-17
    outer loop
      vertex -1.53173 2.93266 0.981552
      vertex -1.91083 3.20809 2.6157
      vertex -9.5795 8.77971 -0.102365
    endloop
  endfacet
  facet normal -0.587785 -0.809017 -0
    outer loop
      vertex -9.5795 8.77971 -1.87087
      vertex -1.53173 2.93266 0.981552
      vertex -9.5795 8.77971 -0.102365
    endloop
  endfacet
  facet normal -0.487012 -0.264199 0.832477
    outer loop
      vertex -2.20755 1.60388 0.16448
      vertex -1.53173 2.93266 0.981552
      vertex -9.5795 8.77971 -1.87087
    endloop
  endfacet
  facet normal -0.487012 -0.264199 0.832477
    outer loop
      vertex -10.4449 7.58864 -2.75513
      vertex -2.20755 1.60388 0.16448
      vertex -9.5795 8.77971 -1.87087
    endloop
  endfacet
  facet normal -0.777677 0.565015 -0.275637
    outer loop
      vertex -1.91083 3.20809 2.6157
      vertex -1.53173 2.93266 0.981552
      vertex -2.96573 2.15473 3.43277
    endloop
  endfacet
  facet normal -0.777677 0.565015 -0.275637
    outer loop
      vertex -2.96573 2.15473 3.43277
      vertex -1.53173 2.93266 0.981552
      vertex -2.20755 1.60388 0.16448
    endloop
  endfacet
  facet normal -0.777677 0.565015 -0.275637
    outer loop
      vertex -2.96573 2.15473 3.43277
      vertex -2.20755 1.60388 0.16448
      vertex -3.26246 0.550523 0.981552
    endloop
  endfacet
  facet normal -0.777677 0.565015 -0.275637
    outer loop
      vertex -2.96573 2.15473 3.43277
      vertex -3.26246 0.550523 0.981552
      vertex -3.64155 0.82595 2.6157
    endloop
  endfacet
  facet normal 0 0 1
    outer loop
      vertex -3.87734 1.86723 4.66188
      vertex -4.30352 0 4.66188
      vertex -3.87734 -1.86723 4.66188
    endloop
  endfacet
  facet normal 0 0 1
    outer loop
      vertex -0.957624 -4.19562 4.66188
      vertex -3.87734 1.86723 4.66188
      vertex -2.6832 -3.36463 4.66188
    endloop
  endfacet
  facet normal 0 0 1
    outer loop
      vertex -2.6832 -3.36463 4.66188
      vertex -3.87734 1.86723 4.66188
      vertex -3.87734 -1.86723 4.66188
    endloop
  endfacet
  facet normal -0 0 1
    outer loop
      vertex 0.957624 -4.19562 4.66188
      vertex -3.87734 1.86723 4.66188
      vertex -0.957624 -4.19562 4.66188
    endloop
  endfacet
  facet normal -0 0 1
    outer loop
      vertex 2.6832 -3.36463 4.66188
      vertex -3.87734 1.86723 4.66188
      vertex 0.957624 -4.19562 4.66188
    endloop
  endfacet
  facet normal -0 0 1
    outer loop
      vertex 3.87734 -1.86723 4.66188
      vertex -3.87734 1.86723 4.66188
      vertex 2.6832 -3.36463 4.66188
    endloop
  endfacet
  facet normal -0 0 1
    outer loop
      vertex 4.30352 0 4.66188
      vertex -3.87734 1.86723 4.66188
      vertex 3.87734 -1.86723 4.66188
    endloop
  endfacet
  facet normal 0 -0 1
    outer loop
      vertex 3.87734 1.86723 4.66188
      vertex -3.87734 1.86723 4.66188
      vertex 4.30352 0 4.66188
    endloop
  endfacet
  facet normal 0 -0 1
    outer loop
      vertex 2.6832 3.36463 4.66188
      vertex -3.87734 1.86723 4.66188
      vertex 3.87734 1.86723 4.66188
    endloop
  endfacet
  facet normal 0 -0 1
    outer loop
      vertex 0.957624 4.19562 4.66188
      vertex -3.87734 1.86723 4.66188
      vertex 2.6832 3.36463 4.66188
    endloop
  endfacet
  facet normal 0 -0 1
    outer loop
      vertex -0.957624 4.19562 4.66188
      vertex -3.87734 1.86723 4.66188
      vertex 0.957624 4.19562 4.66188
    endloop
  endfacet
  facet normal 0 -0 1
    outer loop
      vertex -2.6832 3.36463 4.66188
      vertex -3.87734 1.86723 4.66188
      vertex -0.957624 4.19562 4.66188
    endloop
  endfacet
  facet normal 0.297046 -0.914214 -0.275637
    outer loop
      vertex 0.843209 -2.59513 0.16448
      vertex 2.3158 -2.36301 0.981552
      vertex 2.4606 -2.80866 2.6157
    endloop
  endfacet
  facet normal 0.297046 -0.914214 -0.275637
    outer loop
      vertex -0.339776 -3.71855 2.6157
      vertex 0.843209 -2.59513 0.16448
      vertex 1.13281 -3.48643 3.43277
    endloop
  endfacet
  facet normal 0.297046 -0.914214 -0.275637
    outer loop
      vertex 1.13281 -3.48643 3.43277
      vertex 0.843209 -2.59513 0.16448
      vertex 2.4606 -2.80866 2.6157
    endloop
  endfacet
  facet normal 0.297046 -0.914214 -0.275637
    outer loop
      vertex -0.484577 -3.2729 0.981552
      vertex 0.843209 -2.59513 0.16448
      vertex -0.339776 -3.71855 2.6157
    endloop
  endfacet
  facet normal 0.961262 -3.4982e-16 -0.275637
    outer loop
      vertex 3.43156 -1.47224 2.6157
      vertex 2.72868 -6.68312e-16 0.16448
      vertex 3.66585 -8.97845e-16 3.43277
    endloop
  endfacet
  facet normal -1.28499e-17 1.80011e-17 3.612e-17
    outer loop
      vertex 2.72868 -3.34156e-16 0.16448
      vertex 2.72868 -6.68312e-16 0.16448
      vertex 2.96297 -1.47224 0.981552
    endloop
  endfacet
  facet normal 0.961262 -3.33162e-16 -0.275637
    outer loop
      vertex 3.43156 -1.47224 2.6157
      vertex 2.96297 -1.47224 0.981552
      vertex 2.72868 -6.68312e-16 0.16448
    endloop
  endfacet
  facet normal 2.22045e-16 1.38778e-17 -2.77556e-17
    outer loop
      vertex 2.96297 -1.47224 0.981552
      vertex 2.72868 -6.68312e-16 0.16448
      vertex 2.72868 -3.34156e-16 0.16448
    endloop
  endfacet
  facet normal 0.961262 0 -0.275637
    outer loop
      vertex 2.96297 1.47224 0.981552
      vertex 3.43156 1.47224 2.6157
      vertex 3.66585 0 3.43277
    endloop
  endfacet
  facet normal 0.961262 -2.96144e-17 -0.275637
    outer loop
      vertex 2.72868 -6.68312e-16 0.16448
      vertex 2.96297 1.47224 0.981552
      vertex 3.66585 -8.97845e-16 3.43277
    endloop
  endfacet
  facet normal 4.751e-16 5.19499e-17 -1.05031e-16
    outer loop
      vertex 3.66585 -8.97845e-16 3.43277
      vertex 2.96297 1.47224 0.981552
      vertex 3.66585 0 3.43277
    endloop
  endfacet
  facet normal 4.97014e-16 -3.90024e-17 -7.224e-17
    outer loop
      vertex 2.72868 0 0.16448
      vertex 2.96297 1.47224 0.981552
      vertex 2.72868 -6.68312e-16 0.16448
    endloop
  endfacet
  facet normal 0.297046 0.914214 -0.275637
    outer loop
      vertex 1.13281 3.48643 3.43277
      vertex 2.4606 2.80866 2.6157
      vertex -0.339776 3.71855 2.6157
    endloop
  endfacet
  facet normal 0.297046 0.914214 -0.275637
    outer loop
      vertex -0.339776 3.71855 2.6157
      vertex 2.4606 2.80866 2.6157
      vertex 2.3158 2.36301 0.981552
    endloop
  endfacet
  facet normal 0.297046 0.914214 -0.275637
    outer loop
      vertex -0.339776 3.71855 2.6157
      vertex 2.3158 2.36301 0.981552
      vertex 0.843209 2.59513 0.16448
    endloop
  endfacet
  facet normal 0.297046 0.914214 -0.275637
    outer loop
      vertex -0.339776 3.71855 2.6157
      vertex 0.843209 2.59513 0.16448
      vertex -0.484577 3.2729 0.981552
    endloop
  endfacet
endsolid OpenSCAD_Model
