solid OpenSCAD_Model
  facet normal -0 0 -1
    outer loop
      vertex -7.9 0 0
      vertex -7.51335 2.44123 0
      vertex -7.51335 -2.44123 0
    endloop
  endfacet
  facet normal 0 -0 -1
    outer loop
      vertex -7.51335 -2.44123 0
      vertex -7.51335 2.44123 0
      vertex -6.39123 4.6435 0
    endloop
  endfacet
  facet normal 0 0 -1
    outer loop
      vertex -7.51335 -2.44123 0
      vertex -6.39123 4.6435 0
      vertex -4.6435 6.39123 0
    endloop
  endfacet
  facet normal 0 0 -1
    outer loop
      vertex -7.51335 -2.44123 0
      vertex -4.6435 6.39123 0
      vertex -2.44123 7.51335 0
    endloop
  endfacet
  facet normal 0 0 -1
    outer loop
      vertex -7.51335 -2.44123 0
      vertex -2.44123 7.51335 0
      vertex 0 7.9 0
    endloop
  endfacet
  facet normal 0 0 -1
    outer loop
      vertex -0.945714 4.14344 0
      vertex 0 7.9 0
      vertex 2.44123 7.51335 0
    endloop
  endfacet
  facet normal 0 0 -1
    outer loop
      vertex 0.945714 4.14344 0
      vertex 2.44123 7.51335 0
      vertex 4.6435 6.39123 0
    endloop
  endfacet
  facet normal 0 0 -1
    outer loop
      vertex 2.64983 3.32278 0
      vertex 4.6435 6.39123 0
      vertex 6.39123 4.6435 0
    endloop
  endfacet
  facet normal 0 0 -1
    outer loop
      vertex 3.82912 1.84401 0
      vertex 6.39123 4.6435 0
      vertex 7.51335 2.44123 0
    endloop
  endfacet
  facet normal -0 0 -1
    outer loop
      vertex 4.25 0 0
      vertex 7.51335 2.44123 0
      vertex 7.9 0 0
    endloop
  endfacet
  facet normal -0 0 -1
    outer loop
      vertex 3.82912 -1.84401 0
      vertex 7.9 0 0
      vertex 7.51335 -2.44123 0
    endloop
  endfacet
  facet normal -0 0 -1
    outer loop
      vertex 2.64983 -3.32278 0
      vertex 7.51335 -2.44123 0
      vertex 6.39123 -4.6435 0
    endloop
  endfacet
  facet normal 0 0 -1
    outer loop
      vertex 0.945714 -4.14344 0
      vertex 6.39123 -4.6435 0
      vertex 4.6435 -6.39123 0
    endloop
  endfacet
  facet normal 0 0 -1
    outer loop
      vertex -7.51335 -2.44123 0
      vertex 4.6435 -6.39123 0
      vertex 2.44123 -7.51335 0
    endloop
  endfacet
  facet normal 0 0 -1
    outer loop
      vertex -7.51335 -2.44123 0
      vertex 2.44123 -7.51335 0
      vertex 0 -7.9 0
    endloop
  endfacet
  facet normal 0 0 -1
    outer loop
      vertex -7.51335 -2.44123 0
      vertex 0 -7.9 0
      vertex -2.44123 -7.51335 0
    endloop
  endfacet
  facet normal 0 0 -1
    outer loop
      vertex -7.51335 -2.44123 0
      vertex -2.44123 -7.51335 0
      vertex -4.6435 -6.39123 0
    endloop
  endfacet
  facet normal 0 0 -1
    outer loop
      vertex -7.51335 -2.44123 0
      vertex -4.6435 -6.39123 0
      vertex -6.39123 -4.6435 0
    endloop
  endfacet
  facet normal 0 0 -1
    outer loop
      vertex -3.82912 -1.84401 0
      vertex -7.51335 -2.44123 0
      vertex -4.25 0 0
    endloop
  endfacet
  facet normal 0 0 -1
    outer loop
      vertex -2.64983 -3.32278 0
      vertex -7.51335 -2.44123 0
      vertex -3.82912 -1.84401 0
    endloop
  endfacet
  facet normal 0 0 -1
    outer loop
      vertex 0.945714 -4.14344 0
      vertex 4.6435 -6.39123 0
      vertex -0.945714 -4.14344 0
    endloop
  endfacet
  facet normal 0 0 -1
    outer loop
      vertex -7.51335 -2.44123 0
      vertex -2.64983 -3.32278 0
      vertex -0.945714 -4.14344 0
    endloop
  endfacet
  facet normal 0 0 -1
    outer loop
      vertex -7.51335 -2.44123 0
      vertex -0.945714 -4.14344 0
      vertex 4.6435 -6.39123 0
    endloop
  endfacet
  facet normal 0 0 -1
    outer loop
      vertex 2.64983 -3.32278 0
      vertex 6.39123 -4.6435 0
      vertex 0.945714 -4.14344 0
    endloop
  endfacet
  facet normal -0 0 -1
    outer loop
      vertex 3.82912 1.84401 0
      vertex 7.51335 2.44123 0
      vertex 4.25 0 0
    endloop
  endfacet
  facet normal 0 0 -1
    outer loop
      vertex 4.25 0 0
      vertex 7.9 0 0
      vertex 3.82912 -1.84401 0
    endloop
  endfacet
  facet normal 0 0 -1
    outer loop
      vertex 3.82912 -1.84401 0
      vertex 7.51335 -2.44123 0
      vertex 2.64983 -3.32278 0
    endloop
  endfacet
  facet normal -0 0 -1
    outer loop
      vertex -0.945714 4.14344 0
      vertex 2.44123 7.51335 0
      vertex 0.945714 4.14344 0
    endloop
  endfacet
  facet normal 0 0 -1
    outer loop
      vertex -2.64983 3.32278 0
      vertex 0 7.9 0
      vertex -0.945714 4.14344 0
    endloop
  endfacet
  facet normal 0 0 -1
    outer loop
      vertex -7.51335 -2.44123 0
      vertex 0 7.9 0
      vertex -2.64983 3.32278 0
    endloop
  endfacet
  facet normal 0 0 -1
    outer loop
      vertex -7.51335 -2.44123 0
      vertex -2.64983 3.32278 0
      vertex -3.82912 1.84401 0
    endloop
  endfacet
  facet normal -0 0 -1
    outer loop
      vertex 0.945714 4.14344 0
      vertex 4.6435 6.39123 0
      vertex 2.64983 3.32278 0
    endloop
  endfacet
  facet normal 0 -0 -1
    outer loop
      vertex -4.25 0 0
      vertex -7.51335 -2.44123 0
      vertex -3.82912 1.84401 0
    endloop
  endfacet
  facet normal -0 0 -1
    outer loop
      vertex 2.64983 3.32278 0
      vertex 6.39123 4.6435 0
      vertex 3.82912 1.84401 0
    endloop
  endfacet
  facet normal -0.987688 0.156435 0
    outer loop
      vertex -7.9 0 0
      vertex -7.9 0 1.5
      vertex -7.51335 2.44123 0
    endloop
  endfacet
  facet normal -0.987688 0.156435 0
    outer loop
      vertex -7.51335 2.44123 0
      vertex -7.9 0 1.5
      vertex -7.51335 2.44123 1.5
    endloop
  endfacet
  facet normal -0.987688 -0.156435 -0
    outer loop
      vertex -7.9 0 0
      vertex -7.51335 -2.44123 0
      vertex -7.9 0 1.5
    endloop
  endfacet
  facet normal -0.987688 -0.156435 0
    outer loop
      vertex -7.9 0 1.5
      vertex -7.51335 -2.44123 0
      vertex -7.51335 -2.44123 1.5
    endloop
  endfacet
  facet normal -0.891007 -0.45399 -0
    outer loop
      vertex -7.51335 -2.44123 0
      vertex -6.39123 -4.6435 0
      vertex -7.51335 -2.44123 1.5
    endloop
  endfacet
  facet normal -0.891007 -0.45399 0
    outer loop
      vertex -7.51335 -2.44123 1.5
      vertex -6.39123 -4.6435 0
      vertex -6.39123 -4.6435 1.5
    endloop
  endfacet
  facet normal -0.707107 -0.707107 0
    outer loop
      vertex -6.39123 -4.6435 1.5
      vertex -6.39123 -4.6435 0
      vertex -4.6435 -6.39123 0
    endloop
  endfacet
  facet normal -0.707107 -0.707107 0
    outer loop
      vertex -4.6435 -6.39123 1.5
      vertex -6.39123 -4.6435 1.5
      vertex -4.6435 -6.39123 0
    endloop
  endfacet
  facet normal -0.45399 -0.891007 0
    outer loop
      vertex -4.6435 -6.39123 1.5
      vertex -4.6435 -6.39123 0
      vertex -2.44123 -7.51335 0
    endloop
  endfacet
  facet normal -0.45399 -0.891007 0
    outer loop
      vertex -2.44123 -7.51335 1.5
      vertex -4.6435 -6.39123 1.5
      vertex -2.44123 -7.51335 0
    endloop
  endfacet
  facet normal -0.156435 -0.987688 0
    outer loop
      vertex -2.44123 -7.51335 1.5
      vertex -2.44123 -7.51335 0
      vertex 0 -7.9 0
    endloop
  endfacet
  facet normal -0.156435 -0.987688 0
    outer loop
      vertex 0 -7.9 1.5
      vertex -2.44123 -7.51335 1.5
      vertex 0 -7.9 0
    endloop
  endfacet
  facet normal 0.156435 -0.987688 0
    outer loop
      vertex 0 -7.9 1.5
      vertex 0 -7.9 0
      vertex 2.44123 -7.51335 0
    endloop
  endfacet
  facet normal 0.156435 -0.987688 0
    outer loop
      vertex 2.44123 -7.51335 1.5
      vertex 0 -7.9 1.5
      vertex 2.44123 -7.51335 0
    endloop
  endfacet
  facet normal 0.45399 -0.891007 0
    outer loop
      vertex 2.44123 -7.51335 1.5
      vertex 2.44123 -7.51335 0
      vertex 4.6435 -6.39123 0
    endloop
  endfacet
  facet normal 0.45399 -0.891007 0
    outer loop
      vertex 4.6435 -6.39123 1.5
      vertex 2.44123 -7.51335 1.5
      vertex 4.6435 -6.39123 0
    endloop
  endfacet
  facet normal 0.707107 -0.707107 0
    outer loop
      vertex 4.6435 -6.39123 1.5
      vertex 4.6435 -6.39123 0
      vertex 6.39123 -4.6435 0
    endloop
  endfacet
  facet normal 0.707107 -0.707107 0
    outer loop
      vertex 6.39123 -4.6435 1.5
      vertex 4.6435 -6.39123 1.5
      vertex 6.39123 -4.6435 0
    endloop
  endfacet
  facet normal 0.891007 -0.45399 0
    outer loop
      vertex 6.39123 -4.6435 1.5
      vertex 6.39123 -4.6435 0
      vertex 7.51335 -2.44123 0
    endloop
  endfacet
  facet normal 0.891007 -0.45399 0
    outer loop
      vertex 7.51335 -2.44123 1.5
      vertex 6.39123 -4.6435 1.5
      vertex 7.51335 -2.44123 0
    endloop
  endfacet
  facet normal 0.987688 -0.156435 0
    outer loop
      vertex 7.51335 -2.44123 1.5
      vertex 7.51335 -2.44123 0
      vertex 7.9 0 0
    endloop
  endfacet
  facet normal 0.987688 -0.156435 0
    outer loop
      vertex 7.9 0 1.5
      vertex 7.51335 -2.44123 1.5
      vertex 7.9 0 0
    endloop
  endfacet
  facet normal 0.987688 0.156435 0
    outer loop
      vertex 7.9 0 0
      vertex 7.51335 2.44123 0
      vertex 7.51335 2.44123 1.5
    endloop
  endfacet
  facet normal 0.987688 0.156435 -0
    outer loop
      vertex 7.9 0 1.5
      vertex 7.9 0 0
      vertex 7.51335 2.44123 1.5
    endloop
  endfacet
  facet normal 0.891007 0.45399 0
    outer loop
      vertex 7.51335 2.44123 0
      vertex 6.39123 4.6435 0
      vertex 6.39123 4.6435 1.5
    endloop
  endfacet
  facet normal 0.891007 0.45399 -0
    outer loop
      vertex 7.51335 2.44123 1.5
      vertex 7.51335 2.44123 0
      vertex 6.39123 4.6435 1.5
    endloop
  endfacet
  facet normal 0.707107 0.707107 0
    outer loop
      vertex 4.6435 6.39123 0
      vertex 4.6435 6.39123 1.5
      vertex 6.39123 4.6435 0
    endloop
  endfacet
  facet normal 0.707107 0.707107 0
    outer loop
      vertex 6.39123 4.6435 0
      vertex 4.6435 6.39123 1.5
      vertex 6.39123 4.6435 1.5
    endloop
  endfacet
  facet normal 0.45399 0.891007 0
    outer loop
      vertex 2.44123 7.51335 0
      vertex 2.44123 7.51335 1.5
      vertex 4.6435 6.39123 0
    endloop
  endfacet
  facet normal 0.45399 0.891007 0
    outer loop
      vertex 4.6435 6.39123 0
      vertex 2.44123 7.51335 1.5
      vertex 4.6435 6.39123 1.5
    endloop
  endfacet
  facet normal 0.156435 0.987688 0
    outer loop
      vertex 0 7.9 0
      vertex 0 7.9 1.5
      vertex 2.44123 7.51335 0
    endloop
  endfacet
  facet normal 0.156435 0.987688 0
    outer loop
      vertex 2.44123 7.51335 0
      vertex 0 7.9 1.5
      vertex 2.44123 7.51335 1.5
    endloop
  endfacet
  facet normal -0.156435 0.987688 0
    outer loop
      vertex -2.44123 7.51335 0
      vertex -2.44123 7.51335 1.5
      vertex 0 7.9 0
    endloop
  endfacet
  facet normal -0.156435 0.987688 0
    outer loop
      vertex 0 7.9 0
      vertex -2.44123 7.51335 1.5
      vertex 0 7.9 1.5
    endloop
  endfacet
  facet normal -0.45399 0.891007 0
    outer loop
      vertex -4.6435 6.39123 0
      vertex -4.6435 6.39123 1.5
      vertex -2.44123 7.51335 0
    endloop
  endfacet
  facet normal -0.45399 0.891007 0
    outer loop
      vertex -2.44123 7.51335 0
      vertex -4.6435 6.39123 1.5
      vertex -2.44123 7.51335 1.5
    endloop
  endfacet
  facet normal -0.707107 0.707107 0
    outer loop
      vertex -6.39123 4.6435 0
      vertex -6.39123 4.6435 1.5
      vertex -4.6435 6.39123 0
    endloop
  endfacet
  facet normal -0.707107 0.707107 0
    outer loop
      vertex -4.6435 6.39123 0
      vertex -6.39123 4.6435 1.5
      vertex -4.6435 6.39123 1.5
    endloop
  endfacet
  facet normal -0.891007 0.45399 0
    outer loop
      vertex -7.51335 2.44123 0
      vertex -7.51335 2.44123 1.5
      vertex -6.39123 4.6435 0
    endloop
  endfacet
  facet normal -0.891007 0.45399 0
    outer loop
      vertex -6.39123 4.6435 0
      vertex -7.51335 2.44123 1.5
      vertex -6.39123 4.6435 1.5
    endloop
  endfacet
  facet normal 0.974928 -0.222521 0
    outer loop
      vertex -3.82912 1.84401 0
      vertex -3.82912 1.84401 1.5
      vertex -4.25 0 1.5
    endloop
  endfacet
  facet normal 0.974928 -0.222521 0
    outer loop
      vertex -4.25 0 0
      vertex -3.82912 1.84401 0
      vertex -4.25 0 1.5
    endloop
  endfacet
  facet normal 0.974928 0.222521 0
    outer loop
      vertex -4.25 0 1.5
      vertex -3.82912 -1.84401 1.5
      vertex -3.82912 -1.84401 0
    endloop
  endfacet
  facet normal 0.974928 0.222521 0
    outer loop
      vertex -4.25 0 0
      vertex -4.25 0 1.5
      vertex -3.82912 -1.84401 0
    endloop
  endfacet
  facet normal 0.781832 -0.62349 0
    outer loop
      vertex -2.64983 3.32278 0
      vertex -2.64983 3.32278 1.5
      vertex -3.82912 1.84401 1.5
    endloop
  endfacet
  facet normal 0.781832 -0.62349 0
    outer loop
      vertex -3.82912 1.84401 0
      vertex -2.64983 3.32278 0
      vertex -3.82912 1.84401 1.5
    endloop
  endfacet
  facet normal 0.433884 -0.900969 0
    outer loop
      vertex -0.945714 4.14344 0
      vertex -0.945714 4.14344 1.5
      vertex -2.64983 3.32278 1.5
    endloop
  endfacet
  facet normal 0.433884 -0.900969 0
    outer loop
      vertex -2.64983 3.32278 0
      vertex -0.945714 4.14344 0
      vertex -2.64983 3.32278 1.5
    endloop
  endfacet
  facet normal 0 -1 0
    outer loop
      vertex 0.945714 4.14344 0
      vertex 0.945714 4.14344 1.5
      vertex -0.945714 4.14344 1.5
    endloop
  endfacet
  facet normal -0 -1 -0
    outer loop
      vertex -0.945714 4.14344 0
      vertex 0.945714 4.14344 0
      vertex -0.945714 4.14344 1.5
    endloop
  endfacet
  facet normal -0.433884 -0.900969 -0
    outer loop
      vertex 2.64983 3.32278 0
      vertex 2.64983 3.32278 1.5
      vertex 0.945714 4.14344 1.5
    endloop
  endfacet
  facet normal -0.433884 -0.900969 -0
    outer loop
      vertex 0.945714 4.14344 0
      vertex 2.64983 3.32278 0
      vertex 0.945714 4.14344 1.5
    endloop
  endfacet
  facet normal -0.781832 -0.62349 0
    outer loop
      vertex 3.82912 1.84401 1.5
      vertex 2.64983 3.32278 1.5
      vertex 3.82912 1.84401 0
    endloop
  endfacet
  facet normal -0.781832 -0.62349 0
    outer loop
      vertex 3.82912 1.84401 0
      vertex 2.64983 3.32278 1.5
      vertex 2.64983 3.32278 0
    endloop
  endfacet
  facet normal -0.974928 -0.222521 0
    outer loop
      vertex 4.25 0 1.5
      vertex 3.82912 1.84401 1.5
      vertex 4.25 0 0
    endloop
  endfacet
  facet normal -0.974928 -0.222521 0
    outer loop
      vertex 4.25 0 0
      vertex 3.82912 1.84401 1.5
      vertex 3.82912 1.84401 0
    endloop
  endfacet
  facet normal -0.974928 0.222521 0
    outer loop
      vertex 4.25 0 1.5
      vertex 4.25 0 0
      vertex 3.82912 -1.84401 1.5
    endloop
  endfacet
  facet normal -0.974928 0.222521 0
    outer loop
      vertex 3.82912 -1.84401 1.5
      vertex 4.25 0 0
      vertex 3.82912 -1.84401 0
    endloop
  endfacet
  facet normal -0.781832 0.62349 0
    outer loop
      vertex 3.82912 -1.84401 1.5
      vertex 3.82912 -1.84401 0
      vertex 2.64983 -3.32278 1.5
    endloop
  endfacet
  facet normal -0.781832 0.62349 0
    outer loop
      vertex 2.64983 -3.32278 1.5
      vertex 3.82912 -1.84401 0
      vertex 2.64983 -3.32278 0
    endloop
  endfacet
  facet normal -0.433884 0.900969 0
    outer loop
      vertex 2.64983 -3.32278 1.5
      vertex 2.64983 -3.32278 0
      vertex 0.945714 -4.14344 1.5
    endloop
  endfacet
  facet normal -0.433884 0.900969 0
    outer loop
      vertex 0.945714 -4.14344 1.5
      vertex 2.64983 -3.32278 0
      vertex 0.945714 -4.14344 0
    endloop
  endfacet
  facet normal 0 1 0
    outer loop
      vertex 0.945714 -4.14344 1.5
      vertex 0.945714 -4.14344 0
      vertex -0.945714 -4.14344 1.5
    endloop
  endfacet
  facet normal 0 1 -0
    outer loop
      vertex -0.945714 -4.14344 1.5
      vertex 0.945714 -4.14344 0
      vertex -0.945714 -4.14344 0
    endloop
  endfacet
  facet normal 0.433884 0.900969 -0
    outer loop
      vertex -0.945714 -4.14344 1.5
      vertex -0.945714 -4.14344 0
      vertex -2.64983 -3.32278 1.5
    endloop
  endfacet
  facet normal 0.433884 0.900969 -0
    outer loop
      vertex -2.64983 -3.32278 1.5
      vertex -0.945714 -4.14344 0
      vertex -2.64983 -3.32278 0
    endloop
  endfacet
  facet normal 0.781832 0.62349 0
    outer loop
      vertex -3.82912 -1.84401 1.5
      vertex -2.64983 -3.32278 1.5
      vertex -2.64983 -3.32278 0
    endloop
  endfacet
  facet normal 0.781832 0.62349 0
    outer loop
      vertex -3.82912 -1.84401 0
      vertex -3.82912 -1.84401 1.5
      vertex -2.64983 -3.32278 0
    endloop
  endfacet
  facet normal 0 0 1
    outer loop
      vertex -7.51335 2.44123 1.5
      vertex -7.9 0 1.5
      vertex -7.51335 -2.44123 1.5
    endloop
  endfacet
  facet normal 0 0 1
    outer loop
      vertex -4.6435 -6.39123 1.5
      vertex -7.51335 2.44123 1.5
      vertex -6.39123 -4.6435 1.5
    endloop
  endfacet
  facet normal 0 0 1
    outer loop
      vertex -6.39123 -4.6435 1.5
      vertex -7.51335 2.44123 1.5
      vertex -7.51335 -2.44123 1.5
    endloop
  endfacet
  facet normal 0 0 1
    outer loop
      vertex -2.44123 -7.51335 1.5
      vertex -7.51335 2.44123 1.5
      vertex -4.6435 -6.39123 1.5
    endloop
  endfacet
  facet normal 0 0 1
    outer loop
      vertex 0 -7.9 1.5
      vertex -7.51335 2.44123 1.5
      vertex -2.44123 -7.51335 1.5
    endloop
  endfacet
  facet normal -0 -0 1
    outer loop
      vertex -3.82912 -1.84401 1.5
      vertex -7.51335 2.44123 1.5
      vertex 0 -7.9 1.5
    endloop
  endfacet
  facet normal 0 -0 1
    outer loop
      vertex 4.25 0 1.5
      vertex 3.82912 -1.84401 1.5
      vertex 7.51335 -2.44123 1.5
    endloop
  endfacet
  facet normal 0 0 1
    outer loop
      vertex 3.82912 1.84401 1.5
      vertex 4.25 0 1.5
      vertex 7.9 0 1.5
    endloop
  endfacet
  facet normal 0 -0 1
    outer loop
      vertex 2.44123 7.51335 1.5
      vertex -7.51335 2.44123 1.5
      vertex 4.6435 6.39123 1.5
    endloop
  endfacet
  facet normal 0 -0 1
    outer loop
      vertex 0 7.9 1.5
      vertex -7.51335 2.44123 1.5
      vertex 2.44123 7.51335 1.5
    endloop
  endfacet
  facet normal 0 -0 1
    outer loop
      vertex -2.44123 7.51335 1.5
      vertex -7.51335 2.44123 1.5
      vertex 0 7.9 1.5
    endloop
  endfacet
  facet normal 0 -0 1
    outer loop
      vertex -4.6435 6.39123 1.5
      vertex -7.51335 2.44123 1.5
      vertex -2.44123 7.51335 1.5
    endloop
  endfacet
  facet normal 0 -0 1
    outer loop
      vertex -6.39123 4.6435 1.5
      vertex -7.51335 2.44123 1.5
      vertex -4.6435 6.39123 1.5
    endloop
  endfacet
  facet normal -0 -0 1
    outer loop
      vertex -2.64983 -3.32278 1.5
      vertex -3.82912 -1.84401 1.5
      vertex 0 -7.9 1.5
    endloop
  endfacet
  facet normal -0 -0 1
    outer loop
      vertex -0.945714 -4.14344 1.5
      vertex -2.64983 -3.32278 1.5
      vertex 2.44123 -7.51335 1.5
    endloop
  endfacet
  facet normal 0 0 1
    outer loop
      vertex -3.82912 1.84401 1.5
      vertex -2.64983 3.32278 1.5
      vertex -7.51335 2.44123 1.5
    endloop
  endfacet
  facet normal 0 -0 1
    outer loop
      vertex 3.82912 -1.84401 1.5
      vertex 2.64983 -3.32278 1.5
      vertex 6.39123 -4.6435 1.5
    endloop
  endfacet
  facet normal 0 0 1
    outer loop
      vertex 2.64983 3.32278 1.5
      vertex 3.82912 1.84401 1.5
      vertex 7.51335 2.44123 1.5
    endloop
  endfacet
  facet normal 0 0 1
    outer loop
      vertex -0.945714 4.14344 1.5
      vertex -7.51335 2.44123 1.5
      vertex -2.64983 3.32278 1.5
    endloop
  endfacet
  facet normal 0 0 1
    outer loop
      vertex 0.945714 4.14344 1.5
      vertex 2.64983 3.32278 1.5
      vertex 6.39123 4.6435 1.5
    endloop
  endfacet
  facet normal 0 0 1
    outer loop
      vertex 4.6435 6.39123 1.5
      vertex -7.51335 2.44123 1.5
      vertex -0.945714 4.14344 1.5
    endloop
  endfacet
  facet normal 0 -0 1
    outer loop
      vertex 4.6435 6.39123 1.5
      vertex 0.945714 4.14344 1.5
      vertex 6.39123 4.6435 1.5
    endloop
  endfacet
  facet normal 0 -0 1
    outer loop
      vertex 6.39123 4.6435 1.5
      vertex 2.64983 3.32278 1.5
      vertex 7.51335 2.44123 1.5
    endloop
  endfacet
  facet normal 0 0 1
    outer loop
      vertex -0.945714 4.14344 1.5
      vertex 0.945714 4.14344 1.5
      vertex 4.6435 6.39123 1.5
    endloop
  endfacet
  facet normal 0 -0 1
    outer loop
      vertex 7.51335 2.44123 1.5
      vertex 3.82912 1.84401 1.5
      vertex 7.9 0 1.5
    endloop
  endfacet
  facet normal 0 0 1
    outer loop
      vertex 7.9 0 1.5
      vertex 4.25 0 1.5
      vertex 7.51335 -2.44123 1.5
    endloop
  endfacet
  facet normal -0 0 1
    outer loop
      vertex 7.51335 -2.44123 1.5
      vertex 3.82912 -1.84401 1.5
      vertex 6.39123 -4.6435 1.5
    endloop
  endfacet
  facet normal -0 0 1
    outer loop
      vertex 6.39123 -4.6435 1.5
      vertex 2.64983 -3.32278 1.5
      vertex 4.6435 -6.39123 1.5
    endloop
  endfacet
  facet normal 0 -0 1
    outer loop
      vertex 2.64983 -3.32278 1.5
      vertex 0.945714 -4.14344 1.5
      vertex 4.6435 -6.39123 1.5
    endloop
  endfacet
  facet normal -0 0 1
    outer loop
      vertex 4.6435 -6.39123 1.5
      vertex 0.945714 -4.14344 1.5
      vertex 2.44123 -7.51335 1.5
    endloop
  endfacet
  facet normal -0 0 1
    outer loop
      vertex 2.44123 -7.51335 1.5
      vertex -2.64983 -3.32278 1.5
      vertex 0 -7.9 1.5
    endloop
  endfacet
  facet normal 0 0 1
    outer loop
      vertex -3.82912 -1.84401 1.5
      vertex -4.25 0 1.5
      vertex -7.51335 2.44123 1.5
    endloop
  endfacet
  facet normal 0 -0 1
    outer loop
      vertex 0.945714 -4.14344 1.5
      vertex -0.945714 -4.14344 1.5
      vertex 2.44123 -7.51335 1.5
    endloop
  endfacet
  facet normal 0 0 1
    outer loop
      vertex -4.25 0 1.5
      vertex -3.82912 1.84401 1.5
      vertex -7.51335 2.44123 1.5
    endloop
  endfacet
endsolid OpenSCAD_Model
