solid OpenSCAD_Model
  facet normal -1 -0 -0
    outer loop
      vertex -20 -20 -7.5
      vertex -20 -20 3.49
      vertex -20 20 -7.5
    endloop
  endfacet
  facet normal -1 0 0
    outer loop
      vertex -20 20 -7.5
      vertex -20 -20 3.49
      vertex -20 20 3.49
    endloop
  endfacet
  facet normal 0 -1 0
    outer loop
      vertex -5 -20 -2.51
      vertex -20 -20 -7.5
      vertex 20 -20 -7.5
    endloop
  endfacet
  facet normal 0 -1 0
    outer loop
      vertex 20 -20 -0.51
      vertex 19.99 -20 -0.51
      vertex 20 -20 -7.5
    endloop
  endfacet
  facet normal -0 -1 0
    outer loop
      vertex -15.99 -20 7.49
      vertex -19.99 -20 3.49
      vertex -5 -20 7.5
    endloop
  endfacet
  facet normal 0 -1 0
    outer loop
      vertex -5 -20 -2.51
      vertex -19.99 -20 3.49
      vertex -20 -20 3.49
    endloop
  endfacet
  facet normal 0 -1 0
    outer loop
      vertex -5 -20 -2.51
      vertex -5 -20 7.5
      vertex -19.99 -20 3.49
    endloop
  endfacet
  facet normal 0 -1 0
    outer loop
      vertex 19.99 -20 -0.51
      vertex 5 -20 -2.51
      vertex 20 -20 -7.5
    endloop
  endfacet
  facet normal 0 -1 0
    outer loop
      vertex -20 -20 3.49
      vertex -20 -20 -7.5
      vertex -5 -20 -2.51
    endloop
  endfacet
  facet normal 0 -1 0
    outer loop
      vertex -15.99 -20 7.5
      vertex -15.99 -20 7.49
      vertex -5 -20 7.5
    endloop
  endfacet
  facet normal 0 -1 0
    outer loop
      vertex 5 -20 -2.51
      vertex -5 -20 -2.51
      vertex 20 -20 -7.5
    endloop
  endfacet
  facet normal 0 -1 0
    outer loop
      vertex 5 -20 7.5
      vertex 11.99 -20 7.49
      vertex 11.99 -20 7.5
    endloop
  endfacet
  facet normal 0 -1 0
    outer loop
      vertex 5 -20 7.5
      vertex 13.1285 -20 7.40857
      vertex 11.99 -20 7.49
    endloop
  endfacet
  facet normal 0 -1 0
    outer loop
      vertex 5 -20 7.5
      vertex 14.2439 -20 7.16594
      vertex 13.1285 -20 7.40857
    endloop
  endfacet
  facet normal 0 -1 0
    outer loop
      vertex 5 -20 7.5
      vertex 15.3133 -20 6.76706
      vertex 14.2439 -20 7.16594
    endloop
  endfacet
  facet normal 0 -1 0
    outer loop
      vertex 5 -20 7.5
      vertex 16.3151 -20 6.22003
      vertex 15.3133 -20 6.76706
    endloop
  endfacet
  facet normal 0 -1 0
    outer loop
      vertex 5 -20 7.5
      vertex 17.2289 -20 5.536
      vertex 16.3151 -20 6.22003
    endloop
  endfacet
  facet normal 0 -1 0
    outer loop
      vertex 5 -20 7.5
      vertex 18.036 -20 4.72889
      vertex 17.2289 -20 5.536
    endloop
  endfacet
  facet normal 0 -1 0
    outer loop
      vertex 5 -20 7.5
      vertex 18.72 -20 3.81513
      vertex 18.036 -20 4.72889
    endloop
  endfacet
  facet normal 0 -1 0
    outer loop
      vertex 5 -20 7.5
      vertex 19.2671 -20 2.81332
      vertex 18.72 -20 3.81513
    endloop
  endfacet
  facet normal 0 -1 0
    outer loop
      vertex 5 -20 7.5
      vertex 19.6659 -20 1.74386
      vertex 19.2671 -20 2.81332
    endloop
  endfacet
  facet normal 0 -1 0
    outer loop
      vertex 5 -20 7.5
      vertex 19.9086 -20 0.628519
      vertex 19.6659 -20 1.74386
    endloop
  endfacet
  facet normal 0 -1 0
    outer loop
      vertex 5 -20 7.5
      vertex 19.99 -20 -0.51
      vertex 19.9086 -20 0.628519
    endloop
  endfacet
  facet normal 0 -1 0
    outer loop
      vertex 5 -20 7.5
      vertex 5 -20 -2.51
      vertex 19.99 -20 -0.51
    endloop
  endfacet
  facet normal -0 -0 -1
    outer loop
      vertex -20 -20 -7.5
      vertex -20 20 -7.5
      vertex 20 -20 -7.5
    endloop
  endfacet
  facet normal 0 0 -1
    outer loop
      vertex 20 -20 -7.5
      vertex -20 20 -7.5
      vertex 20 20 -7.5
    endloop
  endfacet
  facet normal 0 1 -0
    outer loop
      vertex 5 20 7.5
      vertex 20 20 -7.5
      vertex 5 20 -2.51
    endloop
  endfacet
  facet normal 0 1 0
    outer loop
      vertex -20 20 -7.5
      vertex -20 20 3.49
      vertex -5 20 -2.51
    endloop
  endfacet
  facet normal 0 1 0
    outer loop
      vertex -20 20 -7.5
      vertex -5 20 -2.51
      vertex 20 20 -7.5
    endloop
  endfacet
  facet normal -0 1 -0
    outer loop
      vertex 13.1285 20 7.40857
      vertex 20 20 -7.5
      vertex 11.99 20 7.49
    endloop
  endfacet
  facet normal 0 1 0
    outer loop
      vertex 11.99 20 7.49
      vertex 5 20 7.5
      vertex 11.99 20 7.5
    endloop
  endfacet
  facet normal 0 1 0
    outer loop
      vertex 20 20 -7.5
      vertex 5 20 7.5
      vertex 11.99 20 7.49
    endloop
  endfacet
  facet normal 0 1 0
    outer loop
      vertex 20 20 -7.5
      vertex 13.1285 20 7.40857
      vertex 14.2439 20 7.16594
    endloop
  endfacet
  facet normal 0 1 0
    outer loop
      vertex 20 20 -7.5
      vertex 14.2439 20 7.16594
      vertex 15.3133 20 6.76706
    endloop
  endfacet
  facet normal 0 1 0
    outer loop
      vertex 20 20 -7.5
      vertex 15.3133 20 6.76706
      vertex 16.3151 20 6.22003
    endloop
  endfacet
  facet normal 0 1 0
    outer loop
      vertex 20 20 -7.5
      vertex 16.3151 20 6.22003
      vertex 17.2289 20 5.536
    endloop
  endfacet
  facet normal 0 1 0
    outer loop
      vertex 20 20 -7.5
      vertex 17.2289 20 5.536
      vertex 18.036 20 4.72889
    endloop
  endfacet
  facet normal 0 1 0
    outer loop
      vertex 20 20 -7.5
      vertex 18.036 20 4.72889
      vertex 18.72 20 3.81513
    endloop
  endfacet
  facet normal 0 1 0
    outer loop
      vertex 20 20 -7.5
      vertex 18.72 20 3.81513
      vertex 19.2671 20 2.81332
    endloop
  endfacet
  facet normal 0 1 0
    outer loop
      vertex 20 20 -7.5
      vertex 19.2671 20 2.81332
      vertex 19.6659 20 1.74386
    endloop
  endfacet
  facet normal 0 1 0
    outer loop
      vertex 20 20 -7.5
      vertex 19.6659 20 1.74386
      vertex 19.9086 20 0.628519
    endloop
  endfacet
  facet normal 0 1 0
    outer loop
      vertex 20 20 -7.5
      vertex 19.9086 20 0.628519
      vertex 19.99 20 -0.51
    endloop
  endfacet
  facet normal 0 1 0
    outer loop
      vertex 20 20 -7.5
      vertex 19.99 20 -0.51
      vertex 20 20 -0.51
    endloop
  endfacet
  facet normal 0 1 0
    outer loop
      vertex -5 20 -2.51
      vertex -20 20 3.49
      vertex -19.99 20 3.49
    endloop
  endfacet
  facet normal 0 1 0
    outer loop
      vertex -5 20 -2.51
      vertex -19.99 20 3.49
      vertex -15.99 20 7.49
    endloop
  endfacet
  facet normal 0 1 0
    outer loop
      vertex -5 20 -2.51
      vertex -15.99 20 7.49
      vertex -15.99 20 7.5
    endloop
  endfacet
  facet normal 0 1 0
    outer loop
      vertex -5 20 -2.51
      vertex -15.99 20 7.5
      vertex -5 20 7.5
    endloop
  endfacet
  facet normal 0 1 -0
    outer loop
      vertex 5 20 -2.51
      vertex 20 20 -7.5
      vertex -5 20 -2.51
    endloop
  endfacet
  facet normal 2.10735e-08 -5.55112e-17 1
    outer loop
      vertex -19.99 -20 3.49
      vertex -19.99 20 3.49
      vertex -20 20 3.49
    endloop
  endfacet
  facet normal 2.10734e-08 -6.66134e-17 1
    outer loop
      vertex -20 -20 3.49
      vertex -19.99 -20 3.49
      vertex -20 20 3.49
    endloop
  endfacet
  facet normal -0.707107 -3.92523e-17 0.707107
    outer loop
      vertex -19.99 20 3.49
      vertex -19.99 -20 3.49
      vertex -15.99 -20 7.49
    endloop
  endfacet
  facet normal -0.707107 -3.14018e-17 0.707107
    outer loop
      vertex -15.99 20 7.49
      vertex -19.99 20 3.49
      vertex -15.99 -20 7.49
    endloop
  endfacet
  facet normal -1 0 2.10735e-08
    outer loop
      vertex -15.99 20 7.5
      vertex -15.99 20 7.49
      vertex -15.99 -20 7.5
    endloop
  endfacet
  facet normal -1 -9.35581e-25 2.10735e-08
    outer loop
      vertex -15.99 -20 7.5
      vertex -15.99 20 7.49
      vertex -15.99 -20 7.49
    endloop
  endfacet
  facet normal 0 -0 1
    outer loop
      vertex -15.99 20 7.5
      vertex -15.99 -20 7.5
      vertex -5 -20 7.5
    endloop
  endfacet
  facet normal -0 0 1
    outer loop
      vertex 5 -9.99 7.5
      vertex -15.99 20 7.5
      vertex -5 -9.99 7.5
    endloop
  endfacet
  facet normal -0 0 1
    outer loop
      vertex -5 -9.99 7.5
      vertex -15.99 20 7.5
      vertex -5 -20 7.5
    endloop
  endfacet
  facet normal -0 -0 1
    outer loop
      vertex -5 9.99 7.5
      vertex -15.99 20 7.5
      vertex 5 -9.99 7.5
    endloop
  endfacet
  facet normal -0 0 1
    outer loop
      vertex 11.99 -20 7.5
      vertex 5 -9.99 7.5
      vertex 5 -20 7.5
    endloop
  endfacet
  facet normal 0 0 1
    outer loop
      vertex 11.99 20 7.5
      vertex 5 -9.99 7.5
      vertex 11.99 -20 7.5
    endloop
  endfacet
  facet normal 0 0 1
    outer loop
      vertex 11.99 20 7.5
      vertex 5 9.99 7.5
      vertex 5 -9.99 7.5
    endloop
  endfacet
  facet normal 0 0 1
    outer loop
      vertex 11.99 20 7.5
      vertex 5 20 7.5
      vertex 5 9.99 7.5
    endloop
  endfacet
  facet normal 0 -0 1
    outer loop
      vertex -5 20 7.5
      vertex -15.99 20 7.5
      vertex -5 9.99 7.5
    endloop
  endfacet
  facet normal 0 0 1
    outer loop
      vertex 5 9.99 7.5
      vertex -5 9.99 7.5
      vertex 5 -9.99 7.5
    endloop
  endfacet
  facet normal 1 1.86983e-24 8.87291e-17
    outer loop
      vertex -5 -20 7.5
      vertex -5 -20 -2.51
      vertex -5 -19.99 -2.51
    endloop
  endfacet
  facet normal 1 -0 8.8816e-14
    outer loop
      vertex -5 -9.99 7.5
      vertex -5 -20 7.5
      vertex -5 -9.99 7.49
    endloop
  endfacet
  facet normal 1 -8.86406e-17 8.86406e-17
    outer loop
      vertex -5 -9.99 7.49
      vertex -5 -20 7.5
      vertex -5 -19.99 -2.51
    endloop
  endfacet
  facet normal -4.44089e-17 2.10735e-08 1
    outer loop
      vertex 5 -20 -2.51
      vertex 5 -19.99 -2.51
      vertex -5 -19.99 -2.51
    endloop
  endfacet
  facet normal -8.88178e-17 2.10734e-08 1
    outer loop
      vertex -5 -20 -2.51
      vertex 5 -20 -2.51
      vertex -5 -19.99 -2.51
    endloop
  endfacet
  facet normal -1 0 -0
    outer loop
      vertex 5 -19.99 -2.51
      vertex 5 -20 -2.51
      vertex 5 -9.99 7.49
    endloop
  endfacet
  facet normal -1 0 0
    outer loop
      vertex 5 -9.99 7.49
      vertex 5 -20 -2.51
      vertex 5 -20 7.5
    endloop
  endfacet
  facet normal -1 -8.87291e-17 -8.8816e-14
    outer loop
      vertex 5 -9.99 7.49
      vertex 5 -20 7.5
      vertex 5 -9.99 7.5
    endloop
  endfacet
  facet normal 1 -4.44089e-17 0
    outer loop
      vertex 11.99 -20 7.49
      vertex 11.99 20 7.49
      vertex 11.99 20 7.5
    endloop
  endfacet
  facet normal 1 -4.44089e-17 0
    outer loop
      vertex 11.99 -20 7.5
      vertex 11.99 -20 7.49
      vertex 11.99 20 7.5
    endloop
  endfacet
  facet normal 0.0713388 -3.16808e-18 0.997452
    outer loop
      vertex 11.99 20 7.49
      vertex 11.99 -20 7.49
      vertex 13.1285 -20 7.40857
    endloop
  endfacet
  facet normal 0.0713388 -6.33615e-18 0.997452
    outer loop
      vertex 13.1285 20 7.40857
      vertex 11.99 20 7.49
      vertex 13.1285 -20 7.40857
    endloop
  endfacet
  facet normal 0.212566 -1.88796e-17 0.977147
    outer loop
      vertex 13.1285 20 7.40857
      vertex 13.1285 -20 7.40857
      vertex 14.2439 -20 7.16594
    endloop
  endfacet
  facet normal 0.212566 -9.43981e-18 0.977147
    outer loop
      vertex 14.2439 20 7.16594
      vertex 13.1285 20 7.40857
      vertex 14.2439 -20 7.16594
    endloop
  endfacet
  facet normal 0.349464 -1.55193e-17 0.93695
    outer loop
      vertex 14.2439 20 7.16594
      vertex 14.2439 -20 7.16594
      vertex 15.3133 -20 6.76706
    endloop
  endfacet
  facet normal 0.349464 -3.10387e-17 0.93695
    outer loop
      vertex 15.3133 20 6.76706
      vertex 14.2439 20 7.16594
      vertex 15.3133 -20 6.76706
    endloop
  endfacet
  facet normal 0.479249 -4.25659e-17 0.877679
    outer loop
      vertex 15.3133 20 6.76706
      vertex 15.3133 -20 6.76706
      vertex 16.3151 -20 6.22003
    endloop
  endfacet
  facet normal 0.479249 -4.25659e-17 0.877679
    outer loop
      vertex 16.3151 20 6.22003
      vertex 15.3133 20 6.76706
      vertex 16.3151 -20 6.22003
    endloop
  endfacet
  facet normal 0.599277 -5.32265e-17 0.800541
    outer loop
      vertex 16.3151 20 6.22003
      vertex 16.3151 -20 6.22003
      vertex 17.2289 -20 5.536
    endloop
  endfacet
  facet normal 0.599277 -5.32265e-17 0.800541
    outer loop
      vertex 17.2289 20 5.536
      vertex 16.3151 20 6.22003
      vertex 17.2289 -20 5.536
    endloop
  endfacet
  facet normal 0.707107 -6.28037e-17 0.707107
    outer loop
      vertex 17.2289 20 5.536
      vertex 17.2289 -20 5.536
      vertex 18.036 -20 4.72889
    endloop
  endfacet
  facet normal 0.707107 -0 0.707107
    outer loop
      vertex 18.036 20 4.72889
      vertex 17.2289 20 5.536
      vertex 18.036 -20 4.72889
    endloop
  endfacet
  facet normal 0.800541 -0 0.599277
    outer loop
      vertex 18.036 20 4.72889
      vertex 18.036 -20 4.72889
      vertex 18.72 -20 3.81513
    endloop
  endfacet
  facet normal 0.800541 -7.11024e-17 0.599277
    outer loop
      vertex 18.72 20 3.81513
      vertex 18.036 20 4.72889
      vertex 18.72 -20 3.81513
    endloop
  endfacet
  facet normal 0.877679 -7.79536e-17 0.479249
    outer loop
      vertex 18.72 20 3.81513
      vertex 18.72 -20 3.81513
      vertex 19.2671 -20 2.81332
    endloop
  endfacet
  facet normal 0.877679 -7.79536e-17 0.479249
    outer loop
      vertex 19.2671 20 2.81332
      vertex 18.72 20 3.81513
      vertex 19.2671 -20 2.81332
    endloop
  endfacet
  facet normal 0.93695 -8.32179e-17 0.349464
    outer loop
      vertex 19.2671 20 2.81332
      vertex 19.2671 -20 2.81332
      vertex 19.6659 -20 1.74386
    endloop
  endfacet
  facet normal 0.93695 -8.32179e-17 0.349464
    outer loop
      vertex 19.6659 20 1.74386
      vertex 19.2671 20 2.81332
      vertex 19.6659 -20 1.74386
    endloop
  endfacet
  facet normal 0.977147 -8.67881e-17 0.212566
    outer loop
      vertex 19.6659 20 1.74386
      vertex 19.6659 -20 1.74386
      vertex 19.9086 -20 0.628519
    endloop
  endfacet
  facet normal 0.977147 -8.67881e-17 0.212566
    outer loop
      vertex 19.9086 20 0.628519
      vertex 19.6659 20 1.74386
      vertex 19.9086 -20 0.628519
    endloop
  endfacet
  facet normal 0.997452 -8.85915e-17 0.0713388
    outer loop
      vertex 19.9086 20 0.628519
      vertex 19.9086 -20 0.628519
      vertex 19.99 -20 -0.51
    endloop
  endfacet
  facet normal 0.997452 -0 0.0713388
    outer loop
      vertex 19.99 20 -0.51
      vertex 19.9086 20 0.628519
      vertex 19.99 -20 -0.51
    endloop
  endfacet
  facet normal 0 0 1
    outer loop
      vertex 20 -20 -0.51
      vertex 20 20 -0.51
      vertex 19.99 20 -0.51
    endloop
  endfacet
  facet normal 0 0 1
    outer loop
      vertex 19.99 -20 -0.51
      vertex 20 -20 -0.51
      vertex 19.99 20 -0.51
    endloop
  endfacet
  facet normal 1 0 -0
    outer loop
      vertex 20 -20 -0.51
      vertex 20 -20 -7.5
      vertex 20 20 -7.5
    endloop
  endfacet
  facet normal 1 0 0
    outer loop
      vertex 20 20 -0.51
      vertex 20 -20 -0.51
      vertex 20 20 -7.5
    endloop
  endfacet
  facet normal -1 -0 -0
    outer loop
      vertex 5 19.99 -2.51
      vertex 5 18.6503 2.49
      vertex 5 20 -2.51
    endloop
  endfacet
  facet normal -1 0 0
    outer loop
      vertex 5 20 -2.51
      vertex 5 18.6503 2.49
      vertex 5 20 7.5
    endloop
  endfacet
  facet normal -1 0 0
    outer loop
      vertex 5 9.99 7.5
      vertex 5 14.99 6.15025
      vertex 5 9.99 7.49
    endloop
  endfacet
  facet normal -1 0 0
    outer loop
      vertex 5 20 7.5
      vertex 5 14.99 6.15025
      vertex 5 9.99 7.5
    endloop
  endfacet
  facet normal -1 0 -0
    outer loop
      vertex 5 18.6503 2.49
      vertex 5 14.99 6.15025
      vertex 5 20 7.5
    endloop
  endfacet
  facet normal 0 0 1
    outer loop
      vertex -5 19.99 -2.51
      vertex 5 19.99 -2.51
      vertex 5 20 -2.51
    endloop
  endfacet
  facet normal 0 -0 1
    outer loop
      vertex -5 20 -2.51
      vertex -5 19.99 -2.51
      vertex 5 20 -2.51
    endloop
  endfacet
  facet normal 1 1.39656e-16 1.39656e-16
    outer loop
      vertex -5 18.6503 2.49
      vertex -5 20 7.5
      vertex -5 14.99 6.15025
    endloop
  endfacet
  facet normal 1 0 -0
    outer loop
      vertex -5 9.99 7.5
      vertex -5 9.99 7.49
      vertex -5 14.99 6.15025
    endloop
  endfacet
  facet normal 1 8.87291e-17 3.28688e-16
    outer loop
      vertex -5 20 7.5
      vertex -5 9.99 7.5
      vertex -5 14.99 6.15025
    endloop
  endfacet
  facet normal 1 0 0
    outer loop
      vertex -5 19.99 -2.51
      vertex -5 20 -2.51
      vertex -5 18.6503 2.49
    endloop
  endfacet
  facet normal 1 3.28688e-16 8.87291e-17
    outer loop
      vertex -5 20 -2.51
      vertex -5 20 7.5
      vertex -5 18.6503 2.49
    endloop
  endfacet
  facet normal -1.77636e-16 1 0
    outer loop
      vertex 5 9.99 7.49
      vertex -5 9.99 7.49
      vertex 5 9.99 7.5
    endloop
  endfacet
  facet normal -1.77636e-16 1 0
    outer loop
      vertex 5 9.99 7.5
      vertex -5 9.99 7.49
      vertex -5 9.99 7.5
    endloop
  endfacet
  facet normal -1.87169e-24 -1 2.10734e-08
    outer loop
      vertex -5 -9.99 7.49
      vertex 5 -9.99 7.49
      vertex 5 -9.99 7.5
    endloop
  endfacet
  facet normal 0 -1 2.10734e-08
    outer loop
      vertex -5 -9.99 7.5
      vertex -5 -9.99 7.49
      vertex 5 -9.99 7.5
    endloop
  endfacet
  facet normal -6.28037e-17 -0.707107 0.707107
    outer loop
      vertex 5 -9.99 7.49
      vertex -5 -9.99 7.49
      vertex -5 -19.99 -2.51
    endloop
  endfacet
  facet normal -3.14018e-17 -0.707107 0.707107
    outer loop
      vertex 5 -19.99 -2.51
      vertex 5 -9.99 7.49
      vertex -5 -19.99 -2.51
    endloop
  endfacet
  facet normal -4.59755e-17 0.258819 0.965926
    outer loop
      vertex 5 14.99 6.15025
      vertex -5 14.99 6.15025
      vertex -5 9.99 7.49
    endloop
  endfacet
  facet normal -4.59755e-17 0.258819 0.965926
    outer loop
      vertex 5 9.99 7.49
      vertex 5 14.99 6.15025
      vertex -5 9.99 7.49
    endloop
  endfacet
  facet normal -2.51215e-16 0.707107 0.707107
    outer loop
      vertex 5 18.6503 2.49
      vertex -5 18.6503 2.49
      vertex -5 14.99 6.15025
    endloop
  endfacet
  facet normal -1.25607e-16 0.707107 0.707107
    outer loop
      vertex 5 14.99 6.15025
      vertex 5 18.6503 2.49
      vertex -5 14.99 6.15025
    endloop
  endfacet
  facet normal 0 0.965926 0.258819
    outer loop
      vertex -5 19.99 -2.51
      vertex -5 18.6503 2.49
      vertex 5 19.99 -2.51
    endloop
  endfacet
  facet normal -3.48528e-16 0.965926 0.258819
    outer loop
      vertex 5 19.99 -2.51
      vertex -5 18.6503 2.49
      vertex 5 18.6503 2.49
    endloop
  endfacet
endsolid OpenSCAD_Model
