solid OpenSCAD_Model
  facet normal -1 -0 -0
    outer loop
      vertex -22.65 -7 0
      vertex -22.65 -7 13
      vertex -22.65 7 0
    endloop
  endfacet
  facet normal -1 0 0
    outer loop
      vertex -22.65 7 0
      vertex -22.65 -7 13
      vertex -22.65 7 13
    endloop
  endfacet
  facet normal 0 -1 0
    outer loop
      vertex -22.65 -7 13
      vertex -22.65 -7 0
      vertex -22.5338 -7 0
    endloop
  endfacet
  facet normal 0 -1 0
    outer loop
      vertex -22.5338 -7 13
      vertex -22.65 -7 13
      vertex -22.5338 -7 0
    endloop
  endfacet
  facet normal -0 -0 -1
    outer loop
      vertex -22.65 -7 0
      vertex -22.65 7 0
      vertex -22.5338 -7 0
    endloop
  endfacet
  facet normal 0 0 -1
    outer loop
      vertex -22.5338 -7 0
      vertex -22.65 7 0
      vertex -22.5338 7 0
    endloop
  endfacet
  facet normal 0 -0 -1
    outer loop
      vertex -22.5338 7 0
      vertex -22.5338 7.95726 0
      vertex -21.644 9.65249 0
    endloop
  endfacet
  facet normal -0 0 -1
    outer loop
      vertex -22.5338 7 0
      vertex -21.644 9.65249 0
      vertex -22.5338 -7 0
    endloop
  endfacet
  facet normal 0 0 -1
    outer loop
      vertex -22.5338 -7 0
      vertex -21.644 9.65249 0
      vertex -20.0684 10.7401 0
    endloop
  endfacet
  facet normal 0 0 -1
    outer loop
      vertex -22.5338 -7 0
      vertex -20.0684 10.7401 0
      vertex -18.65 10.9123 0
    endloop
  endfacet
  facet normal 0 -0 -1
    outer loop
      vertex -18.65 10.9123 0
      vertex -18.65 11 0
      vertex 18.65 11 0
    endloop
  endfacet
  facet normal -0 0 -1
    outer loop
      vertex -18.65 10.9123 0
      vertex 18.65 11 0
      vertex -22.5338 -7 0
    endloop
  endfacet
  facet normal 0 0 -1
    outer loop
      vertex -22.5338 -7 0
      vertex 18.65 11 0
      vertex 18.65 10.9123 0
    endloop
  endfacet
  facet normal 0 0 -1
    outer loop
      vertex -22.5338 -7 0
      vertex 18.65 10.9123 0
      vertex 19.1321 10.9708 0
    endloop
  endfacet
  facet normal 0 0 -1
    outer loop
      vertex -22.5338 -7 0
      vertex 19.1321 10.9708 0
      vertex 20.9223 10.2919 0
    endloop
  endfacet
  facet normal 0 0 -1
    outer loop
      vertex -22.5338 -7 0
      vertex 20.9223 10.2919 0
      vertex 22.1918 8.85889 0
    endloop
  endfacet
  facet normal 0 0 -1
    outer loop
      vertex -22.5338 -7 0
      vertex 22.1918 8.85889 0
      vertex 22.65 7 0
    endloop
  endfacet
  facet normal -0 0 -1
    outer loop
      vertex -22.5338 -7 0
      vertex 22.65 7 0
      vertex 22.65 -7 0
    endloop
  endfacet
  facet normal 0 0 -1
    outer loop
      vertex -22.5338 -7 0
      vertex 22.65 -7 0
      vertex 22.1918 -8.85889 0
    endloop
  endfacet
  facet normal 0 0 -1
    outer loop
      vertex 18.65 -11 0
      vertex -22.5338 -7 0
      vertex 18.65 -10.9123 0
    endloop
  endfacet
  facet normal 0 0 -1
    outer loop
      vertex 20.9223 -10.2919 0
      vertex 19.1321 -10.9708 0
      vertex 18.65 -10.9123 0
    endloop
  endfacet
  facet normal 0 0 -1
    outer loop
      vertex 18.65 -11 0
      vertex -18.65 -11 0
      vertex -18.65 -10.9123 0
    endloop
  endfacet
  facet normal 0 0 -1
    outer loop
      vertex -22.5338 -7 0
      vertex 22.1918 -8.85889 0
      vertex 20.9223 -10.2919 0
    endloop
  endfacet
  facet normal 0 0 -1
    outer loop
      vertex -22.5338 -7 0
      vertex 20.9223 -10.2919 0
      vertex 18.65 -10.9123 0
    endloop
  endfacet
  facet normal -0 -0 -1
    outer loop
      vertex -20.0684 -10.7401 0
      vertex -22.5338 -7 0
      vertex -18.65 -10.9123 0
    endloop
  endfacet
  facet normal 0 0 -1
    outer loop
      vertex -22.5338 -7 0
      vertex 18.65 -11 0
      vertex -18.65 -10.9123 0
    endloop
  endfacet
  facet normal 0 0 -1
    outer loop
      vertex -22.5338 -7 0
      vertex -20.0684 -10.7401 0
      vertex -21.644 -9.65249 0
    endloop
  endfacet
  facet normal 0 0 -1
    outer loop
      vertex -22.5338 -7 0
      vertex -21.644 -9.65249 0
      vertex -22.5338 -7.95726 0
    endloop
  endfacet
  facet normal 0 1 0
    outer loop
      vertex -22.65 7 0
      vertex -22.65 7 13
      vertex -22.5338 7 0
    endloop
  endfacet
  facet normal 0 1 0
    outer loop
      vertex -22.5338 7 0
      vertex -22.65 7 13
      vertex -22.5338 7 13
    endloop
  endfacet
  facet normal 0 -0 1
    outer loop
      vertex -22.65 7 13
      vertex -22.65 -7 13
      vertex -22.5338 -7 13
    endloop
  endfacet
  facet normal 0 0 1
    outer loop
      vertex -21.644 -9.65249 13
      vertex -22.65 7 13
      vertex -22.5338 -7 13
    endloop
  endfacet
  facet normal 0 0 1
    outer loop
      vertex -22.5338 -7.95726 13
      vertex -21.644 -9.65249 13
      vertex -22.5338 -7 13
    endloop
  endfacet
  facet normal 0 0 1
    outer loop
      vertex -21.644 -9.65249 13
      vertex -20.0684 -10.7401 13
      vertex -22.65 7 13
    endloop
  endfacet
  facet normal 0 0 1
    outer loop
      vertex -20.0684 -10.7401 13
      vertex -18.65 -10.9123 13
      vertex -22.65 7 13
    endloop
  endfacet
  facet normal 0 0 1
    outer loop
      vertex -18.65 -11 13
      vertex 18.65 -11 13
      vertex -18.65 -10.9123 13
    endloop
  endfacet
  facet normal 0 0 1
    outer loop
      vertex 12.55 -6.5 13
      vertex 19.1321 -10.9708 13
      vertex 20.9223 -10.2919 13
    endloop
  endfacet
  facet normal 0 0 1
    outer loop
      vertex -17.65 6.5 13
      vertex 22.65 7 13
      vertex -22.5338 7 13
    endloop
  endfacet
  facet normal 0 0 1
    outer loop
      vertex -2.55 -6.5 13
      vertex -2.55 6.5 13
      vertex -12.55 6.5 13
    endloop
  endfacet
  facet normal 0 0 1
    outer loop
      vertex 12.55 -6.5 13
      vertex 18.65 -11 13
      vertex 18.65 -10.9123 13
    endloop
  endfacet
  facet normal 0 0 1
    outer loop
      vertex 20.9223 10.2919 13
      vertex 19.1321 10.9708 13
      vertex 18.65 10.9123 13
    endloop
  endfacet
  facet normal 0 0 1
    outer loop
      vertex -22.5338 7.95726 13
      vertex -20.0684 10.7401 13
      vertex -21.644 9.65249 13
    endloop
  endfacet
  facet normal 0 -0 1
    outer loop
      vertex 12.55 -6.5 13
      vertex 2.55 -6.5 13
      vertex 18.65 -11 13
    endloop
  endfacet
  facet normal 0 0 1
    outer loop
      vertex 18.65 11 13
      vertex -18.65 11 13
      vertex -18.65 10.9123 13
    endloop
  endfacet
  facet normal 0 0 1
    outer loop
      vertex 12.55 -6.5 13
      vertex 18.65 -10.9123 13
      vertex 19.1321 -10.9708 13
    endloop
  endfacet
  facet normal 0 -0 1
    outer loop
      vertex 17.65 6.5 13
      vertex 17.65 -6.5 13
      vertex 22.65 -7 13
    endloop
  endfacet
  facet normal -0 0 1
    outer loop
      vertex 22.65 7 13
      vertex 22.1918 8.85889 13
      vertex -22.5338 7 13
    endloop
  endfacet
  facet normal 0 0 1
    outer loop
      vertex -18.65 -10.9123 13
      vertex -17.65 -6.5 13
      vertex -22.65 7 13
    endloop
  endfacet
  facet normal 0 0 1
    outer loop
      vertex -18.65 -10.9123 13
      vertex 18.65 -11 13
      vertex -17.65 -6.5 13
    endloop
  endfacet
  facet normal -0 0 1
    outer loop
      vertex -12.55 6.5 13
      vertex 22.65 7 13
      vertex -17.65 6.5 13
    endloop
  endfacet
  facet normal -0 0 1
    outer loop
      vertex -2.55 6.5 13
      vertex 22.65 7 13
      vertex -12.55 6.5 13
    endloop
  endfacet
  facet normal 0 0 1
    outer loop
      vertex -17.65 -6.5 13
      vertex 18.65 -11 13
      vertex -12.55 -6.5 13
    endloop
  endfacet
  facet normal 0 0 1
    outer loop
      vertex -12.55 -6.5 13
      vertex 18.65 -11 13
      vertex -2.55 -6.5 13
    endloop
  endfacet
  facet normal -0 0 1
    outer loop
      vertex 2.55 6.5 13
      vertex 22.65 7 13
      vertex -2.55 6.5 13
    endloop
  endfacet
  facet normal -0 0 1
    outer loop
      vertex 12.55 6.5 13
      vertex 22.65 7 13
      vertex 2.55 6.5 13
    endloop
  endfacet
  facet normal 0 -0 1
    outer loop
      vertex -12.55 6.5 13
      vertex -12.55 -6.5 13
      vertex -2.55 -6.5 13
    endloop
  endfacet
  facet normal 0 0 1
    outer loop
      vertex -2.55 -6.5 13
      vertex 18.65 -11 13
      vertex 2.55 -6.5 13
    endloop
  endfacet
  facet normal 0 0 1
    outer loop
      vertex 20.9223 -10.2919 13
      vertex 22.1918 -8.85889 13
      vertex 12.55 -6.5 13
    endloop
  endfacet
  facet normal -0 0 1
    outer loop
      vertex 17.65 6.5 13
      vertex 22.65 7 13
      vertex 12.55 6.5 13
    endloop
  endfacet
  facet normal 0 0 1
    outer loop
      vertex 22.65 -7 13
      vertex 22.65 7 13
      vertex 17.65 6.5 13
    endloop
  endfacet
  facet normal 0 -0 1
    outer loop
      vertex 2.55 6.5 13
      vertex 2.55 -6.5 13
      vertex 12.55 -6.5 13
    endloop
  endfacet
  facet normal 0 0 1
    outer loop
      vertex 22.1918 -8.85889 13
      vertex 22.65 -7 13
      vertex 17.65 -6.5 13
    endloop
  endfacet
  facet normal 0 0 1
    outer loop
      vertex -22.5338 7.95726 13
      vertex -18.65 10.9123 13
      vertex -20.0684 10.7401 13
    endloop
  endfacet
  facet normal 0 0 1
    outer loop
      vertex -22.5338 7.95726 13
      vertex 18.65 11 13
      vertex -18.65 10.9123 13
    endloop
  endfacet
  facet normal 0 0 1
    outer loop
      vertex -22.5338 7.95726 13
      vertex 18.65 10.9123 13
      vertex 18.65 11 13
    endloop
  endfacet
  facet normal 0 0 1
    outer loop
      vertex -22.5338 7.95726 13
      vertex 20.9223 10.2919 13
      vertex 18.65 10.9123 13
    endloop
  endfacet
  facet normal 0 0 1
    outer loop
      vertex -22.5338 7.95726 13
      vertex 22.1918 8.85889 13
      vertex 20.9223 10.2919 13
    endloop
  endfacet
  facet normal 0 -0 1
    outer loop
      vertex -22.5338 7.95726 13
      vertex -22.5338 7 13
      vertex 22.1918 8.85889 13
    endloop
  endfacet
  facet normal 0 -0 1
    outer loop
      vertex 17.65 -6.5 13
      vertex 12.55 -6.5 13
      vertex 22.1918 -8.85889 13
    endloop
  endfacet
  facet normal 0 0 1
    outer loop
      vertex 12.55 -6.5 13
      vertex 12.55 6.5 13
      vertex 2.55 6.5 13
    endloop
  endfacet
  facet normal 0 0 1
    outer loop
      vertex -17.65 -6.5 13
      vertex -22.5338 7 13
      vertex -22.65 7 13
    endloop
  endfacet
  facet normal 0 0 1
    outer loop
      vertex -17.65 -6.5 13
      vertex -17.65 6.5 13
      vertex -22.5338 7 13
    endloop
  endfacet
  facet normal -1 -0 -0
    outer loop
      vertex -22.5338 -7.95726 0
      vertex -22.5338 -7.95726 13
      vertex -22.5338 -7 0
    endloop
  endfacet
  facet normal -1 0 0
    outer loop
      vertex -22.5338 -7 0
      vertex -22.5338 -7.95726 13
      vertex -22.5338 -7 13
    endloop
  endfacet
  facet normal -0.885456 -0.464723 -0
    outer loop
      vertex -22.5338 -7.95726 0
      vertex -21.644 -9.65249 0
      vertex -22.5338 -7.95726 13
    endloop
  endfacet
  facet normal -0.885456 -0.464723 0
    outer loop
      vertex -22.5338 -7.95726 13
      vertex -21.644 -9.65249 0
      vertex -21.644 -9.65249 13
    endloop
  endfacet
  facet normal -0.568065 -0.822984 0
    outer loop
      vertex -21.644 -9.65249 13
      vertex -21.644 -9.65249 0
      vertex -20.0684 -10.7401 0
    endloop
  endfacet
  facet normal -0.568065 -0.822984 0
    outer loop
      vertex -20.0684 -10.7401 13
      vertex -21.644 -9.65249 13
      vertex -20.0684 -10.7401 0
    endloop
  endfacet
  facet normal -0.120536 -0.992709 0
    outer loop
      vertex -20.0684 -10.7401 13
      vertex -20.0684 -10.7401 0
      vertex -18.65 -10.9123 0
    endloop
  endfacet
  facet normal -0.120536 -0.992709 0
    outer loop
      vertex -18.65 -10.9123 13
      vertex -20.0684 -10.7401 13
      vertex -18.65 -10.9123 0
    endloop
  endfacet
  facet normal -1 -0 -0
    outer loop
      vertex -18.65 -11 0
      vertex -18.65 -11 13
      vertex -18.65 -10.9123 0
    endloop
  endfacet
  facet normal -1 0 0
    outer loop
      vertex -18.65 -10.9123 0
      vertex -18.65 -11 13
      vertex -18.65 -10.9123 13
    endloop
  endfacet
  facet normal 0 -1 0
    outer loop
      vertex -18.65 -11 13
      vertex -18.65 -11 0
      vertex 18.65 -11 0
    endloop
  endfacet
  facet normal 0 -1 0
    outer loop
      vertex 18.65 -11 13
      vertex -18.65 -11 13
      vertex 18.65 -11 0
    endloop
  endfacet
  facet normal 1 0 -0
    outer loop
      vertex 18.65 -11 13
      vertex 18.65 -11 0
      vertex 18.65 -10.9123 0
    endloop
  endfacet
  facet normal 1 0 0
    outer loop
      vertex 18.65 -10.9123 13
      vertex 18.65 -11 13
      vertex 18.65 -10.9123 0
    endloop
  endfacet
  facet normal -0.120536 -0.992709 0
    outer loop
      vertex 18.65 -10.9123 13
      vertex 18.65 -10.9123 0
      vertex 19.1321 -10.9708 0
    endloop
  endfacet
  facet normal -0.120536 -0.992709 0
    outer loop
      vertex 19.1321 -10.9708 13
      vertex 18.65 -10.9123 13
      vertex 19.1321 -10.9708 0
    endloop
  endfacet
  facet normal 0.354605 -0.935016 0
    outer loop
      vertex 19.1321 -10.9708 13
      vertex 19.1321 -10.9708 0
      vertex 20.9223 -10.2919 0
    endloop
  endfacet
  facet normal 0.354605 -0.935016 0
    outer loop
      vertex 20.9223 -10.2919 13
      vertex 19.1321 -10.9708 13
      vertex 20.9223 -10.2919 0
    endloop
  endfacet
  facet normal 0.748511 -0.663123 0
    outer loop
      vertex 20.9223 -10.2919 13
      vertex 20.9223 -10.2919 0
      vertex 22.1918 -8.85889 0
    endloop
  endfacet
  facet normal 0.748511 -0.663123 0
    outer loop
      vertex 22.1918 -8.85889 13
      vertex 20.9223 -10.2919 13
      vertex 22.1918 -8.85889 0
    endloop
  endfacet
  facet normal 0.970942 -0.239316 0
    outer loop
      vertex 22.1918 -8.85889 13
      vertex 22.1918 -8.85889 0
      vertex 22.65 -7 0
    endloop
  endfacet
  facet normal 0.970942 -0.239316 0
    outer loop
      vertex 22.65 -7 13
      vertex 22.1918 -8.85889 13
      vertex 22.65 -7 0
    endloop
  endfacet
  facet normal 1 0 -0
    outer loop
      vertex 22.65 -7 13
      vertex 22.65 -7 0
      vertex 22.65 7 0
    endloop
  endfacet
  facet normal 1 0 0
    outer loop
      vertex 22.65 7 13
      vertex 22.65 -7 13
      vertex 22.65 7 0
    endloop
  endfacet
  facet normal 0.970942 0.239316 0
    outer loop
      vertex 22.65 7 0
      vertex 22.1918 8.85889 0
      vertex 22.1918 8.85889 13
    endloop
  endfacet
  facet normal 0.970942 0.239316 -0
    outer loop
      vertex 22.65 7 13
      vertex 22.65 7 0
      vertex 22.1918 8.85889 13
    endloop
  endfacet
  facet normal 0.748511 0.663123 0
    outer loop
      vertex 22.1918 8.85889 0
      vertex 20.9223 10.2919 0
      vertex 20.9223 10.2919 13
    endloop
  endfacet
  facet normal 0.748511 0.663123 -0
    outer loop
      vertex 22.1918 8.85889 13
      vertex 22.1918 8.85889 0
      vertex 20.9223 10.2919 13
    endloop
  endfacet
  facet normal 0.354605 0.935016 0
    outer loop
      vertex 19.1321 10.9708 0
      vertex 19.1321 10.9708 13
      vertex 20.9223 10.2919 0
    endloop
  endfacet
  facet normal 0.354605 0.935016 0
    outer loop
      vertex 20.9223 10.2919 0
      vertex 19.1321 10.9708 13
      vertex 20.9223 10.2919 13
    endloop
  endfacet
  facet normal -0.120536 0.992709 0
    outer loop
      vertex 18.65 10.9123 0
      vertex 18.65 10.9123 13
      vertex 19.1321 10.9708 0
    endloop
  endfacet
  facet normal -0.120536 0.992709 0
    outer loop
      vertex 19.1321 10.9708 0
      vertex 18.65 10.9123 13
      vertex 19.1321 10.9708 13
    endloop
  endfacet
  facet normal 1 0 -0
    outer loop
      vertex 18.65 10.9123 13
      vertex 18.65 10.9123 0
      vertex 18.65 11 0
    endloop
  endfacet
  facet normal 1 0 0
    outer loop
      vertex 18.65 11 13
      vertex 18.65 10.9123 13
      vertex 18.65 11 0
    endloop
  endfacet
  facet normal 0 1 0
    outer loop
      vertex -18.65 11 0
      vertex -18.65 11 13
      vertex 18.65 11 0
    endloop
  endfacet
  facet normal 0 1 0
    outer loop
      vertex 18.65 11 0
      vertex -18.65 11 13
      vertex 18.65 11 13
    endloop
  endfacet
  facet normal -1 -0 -0
    outer loop
      vertex -18.65 10.9123 0
      vertex -18.65 10.9123 13
      vertex -18.65 11 0
    endloop
  endfacet
  facet normal -1 0 0
    outer loop
      vertex -18.65 11 0
      vertex -18.65 10.9123 13
      vertex -18.65 11 13
    endloop
  endfacet
  facet normal -0.120536 0.992709 0
    outer loop
      vertex -20.0684 10.7401 0
      vertex -20.0684 10.7401 13
      vertex -18.65 10.9123 0
    endloop
  endfacet
  facet normal -0.120536 0.992709 0
    outer loop
      vertex -18.65 10.9123 0
      vertex -20.0684 10.7401 13
      vertex -18.65 10.9123 13
    endloop
  endfacet
  facet normal -0.568065 0.822984 0
    outer loop
      vertex -21.644 9.65249 0
      vertex -21.644 9.65249 13
      vertex -20.0684 10.7401 0
    endloop
  endfacet
  facet normal -0.568065 0.822984 0
    outer loop
      vertex -20.0684 10.7401 0
      vertex -21.644 9.65249 13
      vertex -20.0684 10.7401 13
    endloop
  endfacet
  facet normal -0.885456 0.464723 0
    outer loop
      vertex -22.5338 7.95726 0
      vertex -22.5338 7.95726 13
      vertex -21.644 9.65249 0
    endloop
  endfacet
  facet normal -0.885456 0.464723 0
    outer loop
      vertex -21.644 9.65249 0
      vertex -22.5338 7.95726 13
      vertex -21.644 9.65249 13
    endloop
  endfacet
  facet normal -1 -0 -0
    outer loop
      vertex -22.5338 7 0
      vertex -22.5338 7 13
      vertex -22.5338 7.95726 0
    endloop
  endfacet
  facet normal -1 0 0
    outer loop
      vertex -22.5338 7.95726 0
      vertex -22.5338 7 13
      vertex -22.5338 7.95726 13
    endloop
  endfacet
  facet normal 1 0 0
    outer loop
      vertex -17.65 6.5 3
      vertex -17.65 6.5 13
      vertex -17.65 -6.5 13
    endloop
  endfacet
  facet normal 1 0 0
    outer loop
      vertex -17.65 -6.5 3
      vertex -17.65 6.5 3
      vertex -17.65 -6.5 13
    endloop
  endfacet
  facet normal 0 1 0
    outer loop
      vertex -12.55 -6.5 13
      vertex -12.55 -6.5 3
      vertex -17.65 -6.5 13
    endloop
  endfacet
  facet normal 0 1 -0
    outer loop
      vertex -17.65 -6.5 13
      vertex -12.55 -6.5 3
      vertex -17.65 -6.5 3
    endloop
  endfacet
  facet normal -1 0 0
    outer loop
      vertex -12.55 6.5 13
      vertex -12.55 6.5 3
      vertex -12.55 -6.5 13
    endloop
  endfacet
  facet normal -1 0 0
    outer loop
      vertex -12.55 -6.5 13
      vertex -12.55 6.5 3
      vertex -12.55 -6.5 3
    endloop
  endfacet
  facet normal 0 -1 0
    outer loop
      vertex -12.55 6.5 3
      vertex -12.55 6.5 13
      vertex -17.65 6.5 13
    endloop
  endfacet
  facet normal -0 -1 -0
    outer loop
      vertex -17.65 6.5 3
      vertex -12.55 6.5 3
      vertex -17.65 6.5 13
    endloop
  endfacet
  facet normal 1 0 0
    outer loop
      vertex -2.55 6.5 3
      vertex -2.55 6.5 13
      vertex -2.55 -6.5 13
    endloop
  endfacet
  facet normal 1 0 0
    outer loop
      vertex -2.55 -6.5 3
      vertex -2.55 6.5 3
      vertex -2.55 -6.5 13
    endloop
  endfacet
  facet normal 0 1 0
    outer loop
      vertex 2.55 -6.5 13
      vertex 2.55 -6.5 3
      vertex -2.55 -6.5 13
    endloop
  endfacet
  facet normal 0 1 -0
    outer loop
      vertex -2.55 -6.5 13
      vertex 2.55 -6.5 3
      vertex -2.55 -6.5 3
    endloop
  endfacet
  facet normal -1 0 0
    outer loop
      vertex 2.55 6.5 13
      vertex 2.55 6.5 3
      vertex 2.55 -6.5 13
    endloop
  endfacet
  facet normal -1 0 0
    outer loop
      vertex 2.55 -6.5 13
      vertex 2.55 6.5 3
      vertex 2.55 -6.5 3
    endloop
  endfacet
  facet normal 0 -1 0
    outer loop
      vertex 2.55 6.5 3
      vertex 2.55 6.5 13
      vertex -2.55 6.5 13
    endloop
  endfacet
  facet normal -0 -1 -0
    outer loop
      vertex -2.55 6.5 3
      vertex 2.55 6.5 3
      vertex -2.55 6.5 13
    endloop
  endfacet
  facet normal 1 0 0
    outer loop
      vertex 12.55 6.5 3
      vertex 12.55 6.5 13
      vertex 12.55 -6.5 13
    endloop
  endfacet
  facet normal 1 0 0
    outer loop
      vertex 12.55 -6.5 3
      vertex 12.55 6.5 3
      vertex 12.55 -6.5 13
    endloop
  endfacet
  facet normal 0 1 0
    outer loop
      vertex 17.65 -6.5 13
      vertex 17.65 -6.5 3
      vertex 12.55 -6.5 13
    endloop
  endfacet
  facet normal 0 1 -0
    outer loop
      vertex 12.55 -6.5 13
      vertex 17.65 -6.5 3
      vertex 12.55 -6.5 3
    endloop
  endfacet
  facet normal -1 0 0
    outer loop
      vertex 17.65 6.5 13
      vertex 17.65 6.5 3
      vertex 17.65 -6.5 13
    endloop
  endfacet
  facet normal -1 0 0
    outer loop
      vertex 17.65 -6.5 13
      vertex 17.65 6.5 3
      vertex 17.65 -6.5 3
    endloop
  endfacet
  facet normal 0 -1 0
    outer loop
      vertex 17.65 6.5 3
      vertex 17.65 6.5 13
      vertex 12.55 6.5 13
    endloop
  endfacet
  facet normal -0 -1 -0
    outer loop
      vertex 12.55 6.5 3
      vertex 17.65 6.5 3
      vertex 12.55 6.5 13
    endloop
  endfacet
  facet normal 0 0 1
    outer loop
      vertex -12.55 -6.5 3
      vertex -12.55 6.5 3
      vertex -17.65 6.5 3
    endloop
  endfacet
  facet normal 0 0 1
    outer loop
      vertex -17.65 -6.5 3
      vertex -12.55 -6.5 3
      vertex -17.65 6.5 3
    endloop
  endfacet
  facet normal 0 0 1
    outer loop
      vertex 2.55 -6.5 3
      vertex 2.55 6.5 3
      vertex -2.55 6.5 3
    endloop
  endfacet
  facet normal 0 0 1
    outer loop
      vertex -2.55 -6.5 3
      vertex 2.55 -6.5 3
      vertex -2.55 6.5 3
    endloop
  endfacet
  facet normal 0 0 1
    outer loop
      vertex 17.65 -6.5 3
      vertex 17.65 6.5 3
      vertex 12.55 6.5 3
    endloop
  endfacet
  facet normal 0 0 1
    outer loop
      vertex 12.55 -6.5 3
      vertex 17.65 -6.5 3
      vertex 12.55 6.5 3
    endloop
  endfacet
endsolid OpenSCAD_Model
