solid OpenSCAD_Model
  facet normal -1 -0 -0
    outer loop
      vertex -19 -11.5 -5
      vertex -19 -11.5 5
      vertex -19 14.5 -5
    endloop
  endfacet
  facet normal -1 0 0
    outer loop
      vertex -19 14.5 -5
      vertex -19 -11.5 5
      vertex -19 14.5 5
    endloop
  endfacet
  facet normal 0 -1 0
    outer loop
      vertex -19 -11.5 5
      vertex -19 -11.5 -5
      vertex 19 -11.5 -5
    endloop
  endfacet
  facet normal 0 -1 0
    outer loop
      vertex 19 -11.5 5
      vertex -19 -11.5 5
      vertex 19 -11.5 -5
    endloop
  endfacet
  facet normal 0 0 -1
    outer loop
      vertex 16 -8.5 -5
      vertex 19 -11.5 -5
      vertex -16 -8.5 -5
    endloop
  endfacet
  facet normal 0 -0 -1
    outer loop
      vertex 16 8.5 -5
      vertex -19 14.5 -5
      vertex 19 14.5 -5
    endloop
  endfacet
  facet normal 0 -0 -1
    outer loop
      vertex -19 -11.5 -5
      vertex -19 14.5 -5
      vertex -16 8.5 -5
    endloop
  endfacet
  facet normal 0 0 -1
    outer loop
      vertex -19 -11.5 -5
      vertex -16 8.5 -5
      vertex -16 -8.5 -5
    endloop
  endfacet
  facet normal -0 0 -1
    outer loop
      vertex -19 -11.5 -5
      vertex -16 -8.5 -5
      vertex 19 -11.5 -5
    endloop
  endfacet
  facet normal 0 0 -1
    outer loop
      vertex 19 -11.5 -5
      vertex 16 -8.5 -5
      vertex 19 14.5 -5
    endloop
  endfacet
  facet normal 0 -0 -1
    outer loop
      vertex 16 -8.5 -5
      vertex 16 8.5 -5
      vertex 19 14.5 -5
    endloop
  endfacet
  facet normal -0 -0 -1
    outer loop
      vertex -16 8.5 -5
      vertex -19 14.5 -5
      vertex 16 8.5 -5
    endloop
  endfacet
  facet normal 0 1 0
    outer loop
      vertex -19 14.5 -5
      vertex -19 14.5 5
      vertex 19 14.5 -5
    endloop
  endfacet
  facet normal 0 1 0
    outer loop
      vertex 19 14.5 -5
      vertex -19 14.5 5
      vertex 19 14.5 5
    endloop
  endfacet
  facet normal 0 -0 1
    outer loop
      vertex -16 -8.5 5
      vertex -19 -11.5 5
      vertex 19 -11.5 5
    endloop
  endfacet
  facet normal 0 -0 1
    outer loop
      vertex -19 14.5 5
      vertex -19 -11.5 5
      vertex -16 -8.5 5
    endloop
  endfacet
  facet normal 0 0 1
    outer loop
      vertex -16 8.5 5
      vertex 16 8.5 5
      vertex -19 14.5 5
    endloop
  endfacet
  facet normal 0 0 1
    outer loop
      vertex -19 14.5 5
      vertex -16 -8.5 5
      vertex -16 8.5 5
    endloop
  endfacet
  facet normal 0 0 1
    outer loop
      vertex 19 14.5 5
      vertex 16 8.5 5
      vertex 19 -11.5 5
    endloop
  endfacet
  facet normal 0 0 1
    outer loop
      vertex 19 14.5 5
      vertex -19 14.5 5
      vertex 16 8.5 5
    endloop
  endfacet
  facet normal 0 -0 1
    outer loop
      vertex 16 8.5 5
      vertex 16 -8.5 5
      vertex 19 -11.5 5
    endloop
  endfacet
  facet normal 0 -0 1
    outer loop
      vertex 16 -8.5 5
      vertex -16 -8.5 5
      vertex 19 -11.5 5
    endloop
  endfacet
  facet normal 1 0 -0
    outer loop
      vertex 19 -11.5 5
      vertex 19 -11.5 -5
      vertex 19 14.5 -5
    endloop
  endfacet
  facet normal 1 0 0
    outer loop
      vertex 19 14.5 5
      vertex 19 -11.5 5
      vertex 19 14.5 -5
    endloop
  endfacet
  facet normal 1 0 0
    outer loop
      vertex -16 8.5 -5
      vertex -16 8.5 5
      vertex -16 -8.5 5
    endloop
  endfacet
  facet normal 1 0 0
    outer loop
      vertex -16 -8.5 -5
      vertex -16 8.5 -5
      vertex -16 -8.5 5
    endloop
  endfacet
  facet normal 0 -1 0
    outer loop
      vertex 16 8.5 -5
      vertex 16 8.5 5
      vertex -16 8.5 5
    endloop
  endfacet
  facet normal -0 -1 -0
    outer loop
      vertex -16 8.5 -5
      vertex 16 8.5 -5
      vertex -16 8.5 5
    endloop
  endfacet
  facet normal -1 0 0
    outer loop
      vertex 16 8.5 5
      vertex 16 8.5 -5
      vertex 16 -8.5 5
    endloop
  endfacet
  facet normal -1 0 0
    outer loop
      vertex 16 -8.5 5
      vertex 16 8.5 -5
      vertex 16 -8.5 -5
    endloop
  endfacet
  facet normal 0 1 0
    outer loop
      vertex 16 -8.5 5
      vertex 16 -8.5 -5
      vertex -16 -8.5 5
    endloop
  endfacet
  facet normal 0 1 -0
    outer loop
      vertex -16 -8.5 5
      vertex 16 -8.5 -5
      vertex -16 -8.5 -5
    endloop
  endfacet
endsolid OpenSCAD_Model
