solid OpenSCAD_Model
  facet normal -1 -0 -0
    outer loop
      vertex -11.5 -4.75 -5
      vertex -11.5 -4.75 5
      vertex -11.5 19.75 -5
    endloop
  endfacet
  facet normal -1 0 0
    outer loop
      vertex -11.5 19.75 -5
      vertex -11.5 -4.75 5
      vertex -11.5 19.75 5
    endloop
  endfacet
  facet normal 0 -1 0
    outer loop
      vertex -11.5 -4.75 5
      vertex -11.5 -4.75 -5
      vertex -5.5 -4.75 -5
    endloop
  endfacet
  facet normal 0 -1 0
    outer loop
      vertex -5.5 -4.75 5
      vertex -11.5 -4.75 5
      vertex -5.5 -4.75 -5
    endloop
  endfacet
  facet normal 0 0 -1
    outer loop
      vertex -5.5 -1.75 -5
      vertex -5.5 -4.75 -5
      vertex -8.5 -1.75 -5
    endloop
  endfacet
  facet normal -0 0 -1
    outer loop
      vertex 8.5 -1.75 -5
      vertex 11.5 19.75 -5
      vertex 11.5 -4.75 -5
    endloop
  endfacet
  facet normal -0 0 -1
    outer loop
      vertex 8.5 1.75 -5
      vertex 11.5 19.75 -5
      vertex 8.5 -1.75 -5
    endloop
  endfacet
  facet normal -0 0 -1
    outer loop
      vertex 5.5 -4.75 -5
      vertex 8.5 -1.75 -5
      vertex 11.5 -4.75 -5
    endloop
  endfacet
  facet normal -0 0 -1
    outer loop
      vertex -8.5 1.75 -5
      vertex 11.5 19.75 -5
      vertex 8.5 1.75 -5
    endloop
  endfacet
  facet normal 0 -0 -1
    outer loop
      vertex -8.5 1.75 -5
      vertex -11.5 19.75 -5
      vertex 11.5 19.75 -5
    endloop
  endfacet
  facet normal 0 -0 -1
    outer loop
      vertex -11.5 -4.75 -5
      vertex -11.5 19.75 -5
      vertex -8.5 1.75 -5
    endloop
  endfacet
  facet normal 0 0 -1
    outer loop
      vertex -11.5 -4.75 -5
      vertex -8.5 1.75 -5
      vertex -8.5 -1.75 -5
    endloop
  endfacet
  facet normal -0 0 -1
    outer loop
      vertex -11.5 -4.75 -5
      vertex -8.5 -1.75 -5
      vertex -5.5 -4.75 -5
    endloop
  endfacet
  facet normal 0 0 -1
    outer loop
      vertex 8.5 -1.75 -5
      vertex 5.5 -4.75 -5
      vertex 5.5 -1.75 -5
    endloop
  endfacet
  facet normal 0 1 0
    outer loop
      vertex -11.5 19.75 -5
      vertex -11.5 19.75 5
      vertex 11.5 19.75 -5
    endloop
  endfacet
  facet normal 0 1 0
    outer loop
      vertex 11.5 19.75 -5
      vertex -11.5 19.75 5
      vertex 11.5 19.75 5
    endloop
  endfacet
  facet normal 0 -0 1
    outer loop
      vertex -8.5 -1.75 5
      vertex -11.5 -4.75 5
      vertex -5.5 -4.75 5
    endloop
  endfacet
  facet normal 0 -0 1
    outer loop
      vertex -11.5 19.75 5
      vertex -11.5 -4.75 5
      vertex -8.5 -1.75 5
    endloop
  endfacet
  facet normal 0 0 1
    outer loop
      vertex -8.5 1.75 5
      vertex 8.5 1.75 5
      vertex -11.5 19.75 5
    endloop
  endfacet
  facet normal 0 0 1
    outer loop
      vertex -11.5 19.75 5
      vertex -8.5 -1.75 5
      vertex -8.5 1.75 5
    endloop
  endfacet
  facet normal 0 0 1
    outer loop
      vertex 11.5 19.75 5
      vertex -11.5 19.75 5
      vertex 8.5 1.75 5
    endloop
  endfacet
  facet normal 0 0 1
    outer loop
      vertex 11.5 -4.75 5
      vertex 8.5 1.75 5
      vertex 8.5 -1.75 5
    endloop
  endfacet
  facet normal -0 0 1
    outer loop
      vertex 11.5 -4.75 5
      vertex 8.5 -1.75 5
      vertex 5.5 -4.75 5
    endloop
  endfacet
  facet normal 0 0 1
    outer loop
      vertex 11.5 19.75 5
      vertex 8.5 1.75 5
      vertex 11.5 -4.75 5
    endloop
  endfacet
  facet normal 0 -0 1
    outer loop
      vertex 5.5 -1.75 5
      vertex 5.5 -4.75 5
      vertex 8.5 -1.75 5
    endloop
  endfacet
  facet normal 0 0 1
    outer loop
      vertex -5.5 -1.75 5
      vertex -8.5 -1.75 5
      vertex -5.5 -4.75 5
    endloop
  endfacet
  facet normal 1 0 0
    outer loop
      vertex -5.5 -1.75 -5
      vertex -5.5 -1.75 5
      vertex -5.5 -4.75 5
    endloop
  endfacet
  facet normal 1 0 0
    outer loop
      vertex -5.5 -4.75 -5
      vertex -5.5 -1.75 -5
      vertex -5.5 -4.75 5
    endloop
  endfacet
  facet normal 0 1 0
    outer loop
      vertex -5.5 -1.75 5
      vertex -5.5 -1.75 -5
      vertex -8.5 -1.75 5
    endloop
  endfacet
  facet normal 0 1 -0
    outer loop
      vertex -8.5 -1.75 5
      vertex -5.5 -1.75 -5
      vertex -8.5 -1.75 -5
    endloop
  endfacet
  facet normal 1 0 0
    outer loop
      vertex -8.5 1.75 -5
      vertex -8.5 1.75 5
      vertex -8.5 -1.75 5
    endloop
  endfacet
  facet normal 1 0 0
    outer loop
      vertex -8.5 -1.75 -5
      vertex -8.5 1.75 -5
      vertex -8.5 -1.75 5
    endloop
  endfacet
  facet normal 0 -1 0
    outer loop
      vertex 8.5 1.75 -5
      vertex 8.5 1.75 5
      vertex -8.5 1.75 5
    endloop
  endfacet
  facet normal -0 -1 -0
    outer loop
      vertex -8.5 1.75 -5
      vertex 8.5 1.75 -5
      vertex -8.5 1.75 5
    endloop
  endfacet
  facet normal -1 0 0
    outer loop
      vertex 8.5 1.75 5
      vertex 8.5 1.75 -5
      vertex 8.5 -1.75 5
    endloop
  endfacet
  facet normal -1 0 0
    outer loop
      vertex 8.5 -1.75 5
      vertex 8.5 1.75 -5
      vertex 8.5 -1.75 -5
    endloop
  endfacet
  facet normal 0 1 0
    outer loop
      vertex 8.5 -1.75 5
      vertex 8.5 -1.75 -5
      vertex 5.5 -1.75 5
    endloop
  endfacet
  facet normal 0 1 -0
    outer loop
      vertex 5.5 -1.75 5
      vertex 8.5 -1.75 -5
      vertex 5.5 -1.75 -5
    endloop
  endfacet
  facet normal -1 0 0
    outer loop
      vertex 5.5 -1.75 5
      vertex 5.5 -1.75 -5
      vertex 5.5 -4.75 5
    endloop
  endfacet
  facet normal -1 0 0
    outer loop
      vertex 5.5 -4.75 5
      vertex 5.5 -1.75 -5
      vertex 5.5 -4.75 -5
    endloop
  endfacet
  facet normal 0 -1 0
    outer loop
      vertex 5.5 -4.75 5
      vertex 5.5 -4.75 -5
      vertex 11.5 -4.75 -5
    endloop
  endfacet
  facet normal 0 -1 0
    outer loop
      vertex 11.5 -4.75 5
      vertex 5.5 -4.75 5
      vertex 11.5 -4.75 -5
    endloop
  endfacet
  facet normal 1 0 -0
    outer loop
      vertex 11.5 -4.75 5
      vertex 11.5 -4.75 -5
      vertex 11.5 19.75 -5
    endloop
  endfacet
  facet normal 1 0 0
    outer loop
      vertex 11.5 19.75 5
      vertex 11.5 -4.75 5
      vertex 11.5 19.75 -5
    endloop
  endfacet
endsolid OpenSCAD_Model
