solid OpenSCAD_Model
  facet normal -1 -0 -0
    outer loop
      vertex -11.5 -6.25 -5
      vertex -11.5 -6.25 5
      vertex -11.5 13.25 -5
    endloop
  endfacet
  facet normal -1 0 0
    outer loop
      vertex -11.5 13.25 -5
      vertex -11.5 -6.25 5
      vertex -11.5 13.25 5
    endloop
  endfacet
  facet normal 0 -1 0
    outer loop
      vertex -11.5 -6.25 5
      vertex -11.5 -6.25 -5
      vertex 11.5 -6.25 -5
    endloop
  endfacet
  facet normal 0 -1 0
    outer loop
      vertex 11.5 -6.25 5
      vertex -11.5 -6.25 5
      vertex 11.5 -6.25 -5
    endloop
  endfacet
  facet normal 0 0 -1
    outer loop
      vertex 8.5 -3.25 -5
      vertex 11.5 -6.25 -5
      vertex -8.5 -3.25 -5
    endloop
  endfacet
  facet normal 0 -0 -1
    outer loop
      vertex 8.5 3.25 -5
      vertex -11.5 13.25 -5
      vertex 11.5 13.25 -5
    endloop
  endfacet
  facet normal 0 -0 -1
    outer loop
      vertex -11.5 -6.25 -5
      vertex -11.5 13.25 -5
      vertex -8.5 3.25 -5
    endloop
  endfacet
  facet normal 0 0 -1
    outer loop
      vertex -11.5 -6.25 -5
      vertex -8.5 3.25 -5
      vertex -8.5 -3.25 -5
    endloop
  endfacet
  facet normal -0 0 -1
    outer loop
      vertex -11.5 -6.25 -5
      vertex -8.5 -3.25 -5
      vertex 11.5 -6.25 -5
    endloop
  endfacet
  facet normal 0 0 -1
    outer loop
      vertex 11.5 -6.25 -5
      vertex 8.5 -3.25 -5
      vertex 11.5 13.25 -5
    endloop
  endfacet
  facet normal 0 -0 -1
    outer loop
      vertex 8.5 -3.25 -5
      vertex 8.5 3.25 -5
      vertex 11.5 13.25 -5
    endloop
  endfacet
  facet normal -0 -0 -1
    outer loop
      vertex -8.5 3.25 -5
      vertex -11.5 13.25 -5
      vertex 8.5 3.25 -5
    endloop
  endfacet
  facet normal 0 1 0
    outer loop
      vertex -11.5 13.25 -5
      vertex -11.5 13.25 5
      vertex 11.5 13.25 -5
    endloop
  endfacet
  facet normal 0 1 0
    outer loop
      vertex 11.5 13.25 -5
      vertex -11.5 13.25 5
      vertex 11.5 13.25 5
    endloop
  endfacet
  facet normal 0 -0 1
    outer loop
      vertex -8.5 -3.25 5
      vertex -11.5 -6.25 5
      vertex 11.5 -6.25 5
    endloop
  endfacet
  facet normal 0 -0 1
    outer loop
      vertex -11.5 13.25 5
      vertex -11.5 -6.25 5
      vertex -8.5 -3.25 5
    endloop
  endfacet
  facet normal 0 0 1
    outer loop
      vertex -8.5 3.25 5
      vertex 8.5 3.25 5
      vertex -11.5 13.25 5
    endloop
  endfacet
  facet normal 0 0 1
    outer loop
      vertex -11.5 13.25 5
      vertex -8.5 -3.25 5
      vertex -8.5 3.25 5
    endloop
  endfacet
  facet normal 0 0 1
    outer loop
      vertex 11.5 13.25 5
      vertex 8.5 3.25 5
      vertex 11.5 -6.25 5
    endloop
  endfacet
  facet normal 0 0 1
    outer loop
      vertex 11.5 13.25 5
      vertex -11.5 13.25 5
      vertex 8.5 3.25 5
    endloop
  endfacet
  facet normal 0 -0 1
    outer loop
      vertex 8.5 3.25 5
      vertex 8.5 -3.25 5
      vertex 11.5 -6.25 5
    endloop
  endfacet
  facet normal 0 -0 1
    outer loop
      vertex 8.5 -3.25 5
      vertex -8.5 -3.25 5
      vertex 11.5 -6.25 5
    endloop
  endfacet
  facet normal 1 0 -0
    outer loop
      vertex 11.5 -6.25 5
      vertex 11.5 -6.25 -5
      vertex 11.5 13.25 -5
    endloop
  endfacet
  facet normal 1 0 0
    outer loop
      vertex 11.5 13.25 5
      vertex 11.5 -6.25 5
      vertex 11.5 13.25 -5
    endloop
  endfacet
  facet normal 1 0 0
    outer loop
      vertex -8.5 3.25 -5
      vertex -8.5 3.25 5
      vertex -8.5 -3.25 5
    endloop
  endfacet
  facet normal 1 0 0
    outer loop
      vertex -8.5 -3.25 -5
      vertex -8.5 3.25 -5
      vertex -8.5 -3.25 5
    endloop
  endfacet
  facet normal 0 -1 0
    outer loop
      vertex 8.5 3.25 -5
      vertex 8.5 3.25 5
      vertex -8.5 3.25 5
    endloop
  endfacet
  facet normal -0 -1 -0
    outer loop
      vertex -8.5 3.25 -5
      vertex 8.5 3.25 -5
      vertex -8.5 3.25 5
    endloop
  endfacet
  facet normal -1 0 0
    outer loop
      vertex 8.5 3.25 5
      vertex 8.5 3.25 -5
      vertex 8.5 -3.25 5
    endloop
  endfacet
  facet normal -1 0 0
    outer loop
      vertex 8.5 -3.25 5
      vertex 8.5 3.25 -5
      vertex 8.5 -3.25 -5
    endloop
  endfacet
  facet normal 0 1 0
    outer loop
      vertex 8.5 -3.25 5
      vertex 8.5 -3.25 -5
      vertex -8.5 -3.25 5
    endloop
  endfacet
  facet normal 0 1 -0
    outer loop
      vertex -8.5 -3.25 5
      vertex 8.5 -3.25 -5
      vertex -8.5 -3.25 -5
    endloop
  endfacet
endsolid OpenSCAD_Model
