solid OpenSCAD_Model
  facet normal -1 -0 -0
    outer loop
      vertex -10.5 -4.75 -5
      vertex -10.5 -4.75 5
      vertex -10.5 11.75 -5
    endloop
  endfacet
  facet normal -1 0 0
    outer loop
      vertex -10.5 11.75 -5
      vertex -10.5 -4.75 5
      vertex -10.5 11.75 5
    endloop
  endfacet
  facet normal 0 -1 0
    outer loop
      vertex -10.5 -4.75 5
      vertex -10.5 -4.75 -5
      vertex -4.5 -4.75 -5
    endloop
  endfacet
  facet normal 0 -1 0
    outer loop
      vertex -4.5 -4.75 5
      vertex -10.5 -4.75 5
      vertex -4.5 -4.75 -5
    endloop
  endfacet
  facet normal 0 0 -1
    outer loop
      vertex -4.5 -1.75 -5
      vertex -4.5 -4.75 -5
      vertex -7.5 -1.75 -5
    endloop
  endfacet
  facet normal -0 0 -1
    outer loop
      vertex 7.5 -1.75 -5
      vertex 10.5 11.75 -5
      vertex 10.5 -4.75 -5
    endloop
  endfacet
  facet normal -0 0 -1
    outer loop
      vertex 7.5 1.75 -5
      vertex 10.5 11.75 -5
      vertex 7.5 -1.75 -5
    endloop
  endfacet
  facet normal -0 0 -1
    outer loop
      vertex 4.5 -4.75 -5
      vertex 7.5 -1.75 -5
      vertex 10.5 -4.75 -5
    endloop
  endfacet
  facet normal -0 0 -1
    outer loop
      vertex -7.5 1.75 -5
      vertex 10.5 11.75 -5
      vertex 7.5 1.75 -5
    endloop
  endfacet
  facet normal 0 -0 -1
    outer loop
      vertex -7.5 1.75 -5
      vertex -10.5 11.75 -5
      vertex 10.5 11.75 -5
    endloop
  endfacet
  facet normal 0 -0 -1
    outer loop
      vertex -10.5 -4.75 -5
      vertex -10.5 11.75 -5
      vertex -7.5 1.75 -5
    endloop
  endfacet
  facet normal 0 0 -1
    outer loop
      vertex -10.5 -4.75 -5
      vertex -7.5 1.75 -5
      vertex -7.5 -1.75 -5
    endloop
  endfacet
  facet normal -0 0 -1
    outer loop
      vertex -10.5 -4.75 -5
      vertex -7.5 -1.75 -5
      vertex -4.5 -4.75 -5
    endloop
  endfacet
  facet normal 0 0 -1
    outer loop
      vertex 7.5 -1.75 -5
      vertex 4.5 -4.75 -5
      vertex 4.5 -1.75 -5
    endloop
  endfacet
  facet normal 0 1 0
    outer loop
      vertex -10.5 11.75 -5
      vertex -10.5 11.75 5
      vertex 10.5 11.75 -5
    endloop
  endfacet
  facet normal 0 1 0
    outer loop
      vertex 10.5 11.75 -5
      vertex -10.5 11.75 5
      vertex 10.5 11.75 5
    endloop
  endfacet
  facet normal 0 -0 1
    outer loop
      vertex -7.5 -1.75 5
      vertex -10.5 -4.75 5
      vertex -4.5 -4.75 5
    endloop
  endfacet
  facet normal 0 -0 1
    outer loop
      vertex -10.5 11.75 5
      vertex -10.5 -4.75 5
      vertex -7.5 -1.75 5
    endloop
  endfacet
  facet normal 0 0 1
    outer loop
      vertex -7.5 1.75 5
      vertex 7.5 1.75 5
      vertex -10.5 11.75 5
    endloop
  endfacet
  facet normal 0 0 1
    outer loop
      vertex -10.5 11.75 5
      vertex -7.5 -1.75 5
      vertex -7.5 1.75 5
    endloop
  endfacet
  facet normal 0 0 1
    outer loop
      vertex 10.5 11.75 5
      vertex -10.5 11.75 5
      vertex 7.5 1.75 5
    endloop
  endfacet
  facet normal 0 0 1
    outer loop
      vertex 10.5 -4.75 5
      vertex 7.5 1.75 5
      vertex 7.5 -1.75 5
    endloop
  endfacet
  facet normal -0 0 1
    outer loop
      vertex 10.5 -4.75 5
      vertex 7.5 -1.75 5
      vertex 4.5 -4.75 5
    endloop
  endfacet
  facet normal 0 0 1
    outer loop
      vertex 10.5 11.75 5
      vertex 7.5 1.75 5
      vertex 10.5 -4.75 5
    endloop
  endfacet
  facet normal 0 -0 1
    outer loop
      vertex 4.5 -1.75 5
      vertex 4.5 -4.75 5
      vertex 7.5 -1.75 5
    endloop
  endfacet
  facet normal 0 0 1
    outer loop
      vertex -4.5 -1.75 5
      vertex -7.5 -1.75 5
      vertex -4.5 -4.75 5
    endloop
  endfacet
  facet normal 1 0 0
    outer loop
      vertex -4.5 -1.75 -5
      vertex -4.5 -1.75 5
      vertex -4.5 -4.75 5
    endloop
  endfacet
  facet normal 1 0 0
    outer loop
      vertex -4.5 -4.75 -5
      vertex -4.5 -1.75 -5
      vertex -4.5 -4.75 5
    endloop
  endfacet
  facet normal 0 1 0
    outer loop
      vertex -4.5 -1.75 5
      vertex -4.5 -1.75 -5
      vertex -7.5 -1.75 5
    endloop
  endfacet
  facet normal 0 1 -0
    outer loop
      vertex -7.5 -1.75 5
      vertex -4.5 -1.75 -5
      vertex -7.5 -1.75 -5
    endloop
  endfacet
  facet normal 1 0 0
    outer loop
      vertex -7.5 1.75 -5
      vertex -7.5 1.75 5
      vertex -7.5 -1.75 5
    endloop
  endfacet
  facet normal 1 0 0
    outer loop
      vertex -7.5 -1.75 -5
      vertex -7.5 1.75 -5
      vertex -7.5 -1.75 5
    endloop
  endfacet
  facet normal 0 -1 0
    outer loop
      vertex 7.5 1.75 -5
      vertex 7.5 1.75 5
      vertex -7.5 1.75 5
    endloop
  endfacet
  facet normal -0 -1 -0
    outer loop
      vertex -7.5 1.75 -5
      vertex 7.5 1.75 -5
      vertex -7.5 1.75 5
    endloop
  endfacet
  facet normal -1 0 0
    outer loop
      vertex 7.5 1.75 5
      vertex 7.5 1.75 -5
      vertex 7.5 -1.75 5
    endloop
  endfacet
  facet normal -1 0 0
    outer loop
      vertex 7.5 -1.75 5
      vertex 7.5 1.75 -5
      vertex 7.5 -1.75 -5
    endloop
  endfacet
  facet normal 0 1 0
    outer loop
      vertex 7.5 -1.75 5
      vertex 7.5 -1.75 -5
      vertex 4.5 -1.75 5
    endloop
  endfacet
  facet normal 0 1 -0
    outer loop
      vertex 4.5 -1.75 5
      vertex 7.5 -1.75 -5
      vertex 4.5 -1.75 -5
    endloop
  endfacet
  facet normal -1 0 0
    outer loop
      vertex 4.5 -1.75 5
      vertex 4.5 -1.75 -5
      vertex 4.5 -4.75 5
    endloop
  endfacet
  facet normal -1 0 0
    outer loop
      vertex 4.5 -4.75 5
      vertex 4.5 -1.75 -5
      vertex 4.5 -4.75 -5
    endloop
  endfacet
  facet normal 0 -1 0
    outer loop
      vertex 4.5 -4.75 5
      vertex 4.5 -4.75 -5
      vertex 10.5 -4.75 -5
    endloop
  endfacet
  facet normal 0 -1 0
    outer loop
      vertex 10.5 -4.75 5
      vertex 4.5 -4.75 5
      vertex 10.5 -4.75 -5
    endloop
  endfacet
  facet normal 1 0 -0
    outer loop
      vertex 10.5 -4.75 5
      vertex 10.5 -4.75 -5
      vertex 10.5 11.75 -5
    endloop
  endfacet
  facet normal 1 0 0
    outer loop
      vertex 10.5 11.75 5
      vertex 10.5 -4.75 5
      vertex 10.5 11.75 -5
    endloop
  endfacet
endsolid OpenSCAD_Model
