solid OpenSCAD_Model
  facet normal -1 0 0
    outer loop
      vertex -5 15 0.35
      vertex -5 15 -4.75
      vertex -5 -1.9 0.35
    endloop
  endfacet
  facet normal -1 0 -0
    outer loop
      vertex -5 -15 -4.75
      vertex -5 -15 4.75
      vertex -5 -1.9 0.35
    endloop
  endfacet
  facet normal -1 -0 0
    outer loop
      vertex -5 -15 -4.75
      vertex -5 -1.9 0.35
      vertex -5 15 -4.75
    endloop
  endfacet
  facet normal -1 0 0
    outer loop
      vertex -5 -1.9 0.35
      vertex -5 -15 4.75
      vertex -5 -1.9 4.75
    endloop
  endfacet
  facet normal 0 -1 0
    outer loop
      vertex -5 -15 4.75
      vertex -5 -15 -4.75
      vertex 5 -15 -4.75
    endloop
  endfacet
  facet normal 0 -1 0
    outer loop
      vertex 5 -15 4.75
      vertex -5 -15 4.75
      vertex 5 -15 -4.75
    endloop
  endfacet
  facet normal -0 -0 -1
    outer loop
      vertex 1.6 -10.4 -4.75
      vertex -5 15 -4.75
      vertex 5 -15 -4.75
    endloop
  endfacet
  facet normal 0 0 -1
    outer loop
      vertex 5 -15 -4.75
      vertex -5 15 -4.75
      vertex 5 15 -4.75
    endloop
  endfacet
  facet normal 0 -0 -1
    outer loop
      vertex -5 -15 -4.75
      vertex -5 15 -4.75
      vertex -1.6 -10.4 -4.75
    endloop
  endfacet
  facet normal 0 0 -1
    outer loop
      vertex -5 -15 -4.75
      vertex -1.6 -10.4 -4.75
      vertex -1.29443 -11.3405 -4.75
    endloop
  endfacet
  facet normal 0 0 -1
    outer loop
      vertex -5 -15 -4.75
      vertex -1.29443 -11.3405 -4.75
      vertex -0.494427 -11.9217 -4.75
    endloop
  endfacet
  facet normal -0 0 -1
    outer loop
      vertex -5 -15 -4.75
      vertex -0.494427 -11.9217 -4.75
      vertex 5 -15 -4.75
    endloop
  endfacet
  facet normal 0 0 -1
    outer loop
      vertex 1.29443 -11.3405 -4.75
      vertex 5 -15 -4.75
      vertex 0.494427 -11.9217 -4.75
    endloop
  endfacet
  facet normal -0 -0 -1
    outer loop
      vertex 0.494427 -8.87831 -4.75
      vertex -5 15 -4.75
      vertex 1.29443 -9.45954 -4.75
    endloop
  endfacet
  facet normal -0 -0 -1
    outer loop
      vertex 1.29443 -9.45954 -4.75
      vertex -5 15 -4.75
      vertex 1.6 -10.4 -4.75
    endloop
  endfacet
  facet normal -0 0 -1
    outer loop
      vertex 1.29443 -11.3405 -4.75
      vertex 1.6 -10.4 -4.75
      vertex 5 -15 -4.75
    endloop
  endfacet
  facet normal -0 -0 -1
    outer loop
      vertex -0.494427 -8.87831 -4.75
      vertex -5 15 -4.75
      vertex 0.494427 -8.87831 -4.75
    endloop
  endfacet
  facet normal 0 -0 -1
    outer loop
      vertex -1.29443 -9.45954 -4.75
      vertex -5 15 -4.75
      vertex -0.494427 -8.87831 -4.75
    endloop
  endfacet
  facet normal 0 -0 -1
    outer loop
      vertex -1.6 -10.4 -4.75
      vertex -5 15 -4.75
      vertex -1.29443 -9.45954 -4.75
    endloop
  endfacet
  facet normal 0 0 -1
    outer loop
      vertex 0.494427 -11.9217 -4.75
      vertex 5 -15 -4.75
      vertex -0.494427 -11.9217 -4.75
    endloop
  endfacet
  facet normal 0 1 0
    outer loop
      vertex -5 15 -4.75
      vertex -5 15 0.35
      vertex 5 15 -4.75
    endloop
  endfacet
  facet normal 0 1 0
    outer loop
      vertex 5 15 -4.75
      vertex -5 15 0.35
      vertex 5 15 0.35
    endloop
  endfacet
  facet normal 0 0 1
    outer loop
      vertex 5 -1.9 0.35
      vertex 5 15 0.35
      vertex -5 15 0.35
    endloop
  endfacet
  facet normal 0 0 1
    outer loop
      vertex -5 -1.9 0.35
      vertex 5 -1.9 0.35
      vertex -5 15 0.35
    endloop
  endfacet
  facet normal 0 1 0
    outer loop
      vertex 5 -1.9 4.75
      vertex 5 -1.9 0.35
      vertex -5 -1.9 4.75
    endloop
  endfacet
  facet normal 0 1 -0
    outer loop
      vertex -5 -1.9 4.75
      vertex 5 -1.9 0.35
      vertex -5 -1.9 0.35
    endloop
  endfacet
  facet normal 0 -0 1
    outer loop
      vertex -1.575 -13.128 4.75
      vertex -5 -15 4.75
      vertex 5 -15 4.75
    endloop
  endfacet
  facet normal 0 -0 1
    outer loop
      vertex 1.575 -13.128 4.75
      vertex -1.575 -13.128 4.75
      vertex 5 -15 4.75
    endloop
  endfacet
  facet normal 0 -0 1
    outer loop
      vertex -3.15 -10.4 4.75
      vertex -5 -15 4.75
      vertex -1.575 -13.128 4.75
    endloop
  endfacet
  facet normal 0 0 1
    outer loop
      vertex -1.575 -7.67202 4.75
      vertex 1.575 -7.67202 4.75
      vertex -5 -1.9 4.75
    endloop
  endfacet
  facet normal 0 -0 1
    outer loop
      vertex -5 -1.9 4.75
      vertex -5 -15 4.75
      vertex -3.15 -10.4 4.75
    endloop
  endfacet
  facet normal 0 0 1
    outer loop
      vertex 5 -1.9 4.75
      vertex -5 -1.9 4.75
      vertex 1.575 -7.67202 4.75
    endloop
  endfacet
  facet normal 0 0 1
    outer loop
      vertex 5 -1.9 4.75
      vertex 3.15 -10.4 4.75
      vertex 5 -15 4.75
    endloop
  endfacet
  facet normal 0 0 1
    outer loop
      vertex 5 -1.9 4.75
      vertex 1.575 -7.67202 4.75
      vertex 3.15 -10.4 4.75
    endloop
  endfacet
  facet normal 0 0 1
    outer loop
      vertex -3.15 -10.4 4.75
      vertex -1.575 -7.67202 4.75
      vertex -5 -1.9 4.75
    endloop
  endfacet
  facet normal 0 -0 1
    outer loop
      vertex 3.15 -10.4 4.75
      vertex 1.575 -13.128 4.75
      vertex 5 -15 4.75
    endloop
  endfacet
  facet normal 1 0 -0
    outer loop
      vertex 5 -1.9 0.35
      vertex 5 -15 -4.75
      vertex 5 15 -4.75
    endloop
  endfacet
  facet normal 1 0 0
    outer loop
      vertex 5 -1.9 0.35
      vertex 5 -1.9 4.75
      vertex 5 -15 4.75
    endloop
  endfacet
  facet normal 1 0 -0
    outer loop
      vertex 5 -15 4.75
      vertex 5 -15 -4.75
      vertex 5 -1.9 0.35
    endloop
  endfacet
  facet normal 1 0 0
    outer loop
      vertex 5 15 0.35
      vertex 5 -1.9 0.35
      vertex 5 15 -4.75
    endloop
  endfacet
  facet normal 0.951056 -0.309017 0
    outer loop
      vertex -1.29443 -9.45954 -4.75
      vertex -1.29443 -9.45954 2.35
      vertex -1.6 -10.4 2.35
    endloop
  endfacet
  facet normal 0.951056 -0.309017 0
    outer loop
      vertex -1.6 -10.4 -4.75
      vertex -1.29443 -9.45954 -4.75
      vertex -1.6 -10.4 2.35
    endloop
  endfacet
  facet normal 0.951056 0.309017 0
    outer loop
      vertex -1.6 -10.4 2.35
      vertex -1.29443 -11.3405 2.35
      vertex -1.29443 -11.3405 -4.75
    endloop
  endfacet
  facet normal 0.951056 0.309017 0
    outer loop
      vertex -1.6 -10.4 -4.75
      vertex -1.6 -10.4 2.35
      vertex -1.29443 -11.3405 -4.75
    endloop
  endfacet
  facet normal 0.587785 -0.809017 0
    outer loop
      vertex -0.494427 -8.87831 -4.75
      vertex -0.494427 -8.87831 2.35
      vertex -1.29443 -9.45954 2.35
    endloop
  endfacet
  facet normal 0.587785 -0.809017 0
    outer loop
      vertex -1.29443 -9.45954 -4.75
      vertex -0.494427 -8.87831 -4.75
      vertex -1.29443 -9.45954 2.35
    endloop
  endfacet
  facet normal 0 -1 0
    outer loop
      vertex 0.494427 -8.87831 -4.75
      vertex 0.494427 -8.87831 2.35
      vertex -0.494427 -8.87831 2.35
    endloop
  endfacet
  facet normal -0 -1 -0
    outer loop
      vertex -0.494427 -8.87831 -4.75
      vertex 0.494427 -8.87831 -4.75
      vertex -0.494427 -8.87831 2.35
    endloop
  endfacet
  facet normal -0.587785 -0.809017 -0
    outer loop
      vertex 1.29443 -9.45954 -4.75
      vertex 1.29443 -9.45954 2.35
      vertex 0.494427 -8.87831 2.35
    endloop
  endfacet
  facet normal -0.587785 -0.809017 -0
    outer loop
      vertex 0.494427 -8.87831 -4.75
      vertex 1.29443 -9.45954 -4.75
      vertex 0.494427 -8.87831 2.35
    endloop
  endfacet
  facet normal -0.951056 -0.309017 0
    outer loop
      vertex 1.6 -10.4 2.35
      vertex 1.29443 -9.45954 2.35
      vertex 1.6 -10.4 -4.75
    endloop
  endfacet
  facet normal -0.951056 -0.309017 0
    outer loop
      vertex 1.6 -10.4 -4.75
      vertex 1.29443 -9.45954 2.35
      vertex 1.29443 -9.45954 -4.75
    endloop
  endfacet
  facet normal -0.951056 0.309017 0
    outer loop
      vertex 1.6 -10.4 2.35
      vertex 1.6 -10.4 -4.75
      vertex 1.29443 -11.3405 2.35
    endloop
  endfacet
  facet normal -0.951056 0.309017 0
    outer loop
      vertex 1.29443 -11.3405 2.35
      vertex 1.6 -10.4 -4.75
      vertex 1.29443 -11.3405 -4.75
    endloop
  endfacet
  facet normal -0.587785 0.809017 0
    outer loop
      vertex 1.29443 -11.3405 2.35
      vertex 1.29443 -11.3405 -4.75
      vertex 0.494427 -11.9217 2.35
    endloop
  endfacet
  facet normal -0.587785 0.809017 0
    outer loop
      vertex 0.494427 -11.9217 2.35
      vertex 1.29443 -11.3405 -4.75
      vertex 0.494427 -11.9217 -4.75
    endloop
  endfacet
  facet normal 0 1 0
    outer loop
      vertex 0.494427 -11.9217 2.35
      vertex 0.494427 -11.9217 -4.75
      vertex -0.494427 -11.9217 2.35
    endloop
  endfacet
  facet normal 0 1 -0
    outer loop
      vertex -0.494427 -11.9217 2.35
      vertex 0.494427 -11.9217 -4.75
      vertex -0.494427 -11.9217 -4.75
    endloop
  endfacet
  facet normal 0.587785 0.809017 -0
    outer loop
      vertex -0.494427 -11.9217 2.35
      vertex -0.494427 -11.9217 -4.75
      vertex -1.29443 -11.3405 2.35
    endloop
  endfacet
  facet normal 0.587785 0.809017 -0
    outer loop
      vertex -1.29443 -11.3405 2.35
      vertex -0.494427 -11.9217 -4.75
      vertex -1.29443 -11.3405 -4.75
    endloop
  endfacet
  facet normal 0.866025 0.5 0
    outer loop
      vertex -3.15 -10.4 4.75
      vertex -1.575 -13.128 4.75
      vertex -1.575 -13.128 2.35
    endloop
  endfacet
  facet normal 0.866025 0.5 0
    outer loop
      vertex -3.15 -10.4 2.35
      vertex -3.15 -10.4 4.75
      vertex -1.575 -13.128 2.35
    endloop
  endfacet
  facet normal 0 1 0
    outer loop
      vertex 1.575 -13.128 4.75
      vertex 1.575 -13.128 2.35
      vertex -1.575 -13.128 4.75
    endloop
  endfacet
  facet normal 0 1 -0
    outer loop
      vertex -1.575 -13.128 4.75
      vertex 1.575 -13.128 2.35
      vertex -1.575 -13.128 2.35
    endloop
  endfacet
  facet normal -0.866025 0.5 0
    outer loop
      vertex 3.15 -10.4 4.75
      vertex 3.15 -10.4 2.35
      vertex 1.575 -13.128 4.75
    endloop
  endfacet
  facet normal -0.866025 0.5 0
    outer loop
      vertex 1.575 -13.128 4.75
      vertex 3.15 -10.4 2.35
      vertex 1.575 -13.128 2.35
    endloop
  endfacet
  facet normal -0.866025 -0.5 0
    outer loop
      vertex 3.15 -10.4 4.75
      vertex 1.575 -7.67202 4.75
      vertex 3.15 -10.4 2.35
    endloop
  endfacet
  facet normal -0.866025 -0.5 0
    outer loop
      vertex 3.15 -10.4 2.35
      vertex 1.575 -7.67202 4.75
      vertex 1.575 -7.67202 2.35
    endloop
  endfacet
  facet normal 0 -1 0
    outer loop
      vertex 1.575 -7.67202 2.35
      vertex 1.575 -7.67202 4.75
      vertex -1.575 -7.67202 4.75
    endloop
  endfacet
  facet normal -0 -1 -0
    outer loop
      vertex -1.575 -7.67202 2.35
      vertex 1.575 -7.67202 2.35
      vertex -1.575 -7.67202 4.75
    endloop
  endfacet
  facet normal 0.866025 -0.5 0
    outer loop
      vertex -1.575 -7.67202 2.35
      vertex -1.575 -7.67202 4.75
      vertex -3.15 -10.4 4.75
    endloop
  endfacet
  facet normal 0.866025 -0.5 0
    outer loop
      vertex -3.15 -10.4 2.35
      vertex -1.575 -7.67202 2.35
      vertex -3.15 -10.4 4.75
    endloop
  endfacet
  facet normal 0 0 1
    outer loop
      vertex -1.575 -13.128 2.35
      vertex 1.575 -13.128 2.35
      vertex 3.15 -10.4 2.35
    endloop
  endfacet
  facet normal 0 -0 1
    outer loop
      vertex 0.494427 -11.9217 2.35
      vertex -1.575 -13.128 2.35
      vertex 3.15 -10.4 2.35
    endloop
  endfacet
  facet normal 0 0 1
    outer loop
      vertex -3.15 -10.4 2.35
      vertex -1.6 -10.4 2.35
      vertex -1.575 -7.67202 2.35
    endloop
  endfacet
  facet normal 0 0 1
    outer loop
      vertex -3.15 -10.4 2.35
      vertex -1.575 -13.128 2.35
      vertex -1.6 -10.4 2.35
    endloop
  endfacet
  facet normal 0 0 1
    outer loop
      vertex 0.494427 -8.87831 2.35
      vertex 1.29443 -9.45954 2.35
      vertex 1.575 -7.67202 2.35
    endloop
  endfacet
  facet normal 0 0 1
    outer loop
      vertex -0.494427 -8.87831 2.35
      vertex 0.494427 -8.87831 2.35
      vertex 1.575 -7.67202 2.35
    endloop
  endfacet
  facet normal 0 0 1
    outer loop
      vertex -1.575 -7.67202 2.35
      vertex -0.494427 -8.87831 2.35
      vertex 1.575 -7.67202 2.35
    endloop
  endfacet
  facet normal 0 0 1
    outer loop
      vertex -1.575 -7.67202 2.35
      vertex -1.29443 -9.45954 2.35
      vertex -0.494427 -8.87831 2.35
    endloop
  endfacet
  facet normal 0 -0 1
    outer loop
      vertex 1.575 -7.67202 2.35
      vertex 1.29443 -9.45954 2.35
      vertex 3.15 -10.4 2.35
    endloop
  endfacet
  facet normal 0 0 1
    outer loop
      vertex 1.29443 -9.45954 2.35
      vertex 1.6 -10.4 2.35
      vertex 3.15 -10.4 2.35
    endloop
  endfacet
  facet normal 0 -0 1
    outer loop
      vertex 1.6 -10.4 2.35
      vertex 1.29443 -11.3405 2.35
      vertex 3.15 -10.4 2.35
    endloop
  endfacet
  facet normal 0 -0 1
    outer loop
      vertex 1.29443 -11.3405 2.35
      vertex 0.494427 -11.9217 2.35
      vertex 3.15 -10.4 2.35
    endloop
  endfacet
  facet normal -0 0 1
    outer loop
      vertex -0.494427 -11.9217 2.35
      vertex -1.29443 -11.3405 2.35
      vertex -1.575 -13.128 2.35
    endloop
  endfacet
  facet normal 0 0 1
    outer loop
      vertex 0.494427 -11.9217 2.35
      vertex -0.494427 -11.9217 2.35
      vertex -1.575 -13.128 2.35
    endloop
  endfacet
  facet normal 0 0 1
    outer loop
      vertex -1.6 -10.4 2.35
      vertex -1.29443 -9.45954 2.35
      vertex -1.575 -7.67202 2.35
    endloop
  endfacet
  facet normal -0 0 1
    outer loop
      vertex -1.29443 -11.3405 2.35
      vertex -1.6 -10.4 2.35
      vertex -1.575 -13.128 2.35
    endloop
  endfacet
endsolid OpenSCAD_Model
